<?xml version="1.0" standalone="no"?>
<!DOCTYPE svg PUBLIC "-//W3C//DTD SVG 20010904//EN"
 "http://www.w3.org/TR/2001/REC-SVG-20010904/DTD/svg10.dtd">
<svg version="1.0" xmlns="http://www.w3.org/2000/svg"
 width="713.000000pt" height="1280.000000pt" viewBox="0 0 713.000000 1280.000000"
 preserveAspectRatio="xMidYMid meet">
<g transform="translate(0.000000,1280.000000) scale(0.100000,-0.100000)"
fill="#000000" stroke="none">
<path d="M5248 12787 c-19 -8 -38 -35 -64 -87 -28 -57 -57 -95 -123 -160 -90
-89 -211 -176 -234 -167 -7 3 -32 50 -56 106 -49 112 -63 129 -114 138 -28 4
-39 1 -57 -17 -22 -22 -23 -26 -16 -165 11 -244 52 -440 125 -602 l41 -91 0
-293 c0 -427 -37 -1201 -58 -1220 -4 -4 -47 -28 -96 -53 -159 -83 -294 -187
-491 -377 -95 -91 -117 -106 -427 -288 -179 -105 -337 -191 -350 -191 -12 0
-29 4 -37 9 -11 7 -9 14 13 33 44 38 45 89 3 185 -51 116 -83 224 -102 346
-17 107 -19 112 -123 307 -101 187 -113 204 -212 310 -92 97 -113 115 -170
138 -55 22 -80 26 -165 26 -122 1 -154 -8 -275 -78 -217 -124 -418 -304 -480
-429 -25 -50 -33 -85 -42 -168 -21 -209 6 -366 81 -469 22 -30 57 -83 78 -118
35 -58 45 -67 140 -119 56 -31 110 -64 120 -75 16 -18 15 -30 -30 -229 -39
-178 -52 -219 -82 -269 -26 -43 -44 -62 -63 -66 -205 -45 -349 -108 -405 -176
-84 -103 -142 -235 -176 -398 l-18 -85 -95 -96 c-53 -54 -105 -116 -117 -142
-24 -49 -38 -55 -83 -38 -44 16 -99 86 -149 186 -47 94 -51 107 -56 196 -7
112 7 227 43 354 40 141 24 185 -73 206 -65 13 -98 3 -113 -36 -5 -14 -14 -25
-20 -25 -5 0 -63 46 -127 101 -122 105 -238 189 -261 189 -19 0 -172 -89 -205
-119 -49 -44 -70 -98 -116 -298 -11 -46 -10 -55 8 -90 11 -21 110 -132 220
-246 111 -114 201 -211 201 -215 0 -4 29 -164 65 -356 l65 -350 161 -257 c88
-142 167 -264 176 -271 11 -9 60 -13 177 -13 156 0 163 1 216 27 41 21 79 54
147 130 230 258 372 473 459 697 22 59 36 78 65 98 57 38 71 24 98 -95 18 -78
33 -117 73 -183 130 -216 225 -427 249 -549 12 -63 16 -69 124 -191 l111 -125
34 -203 33 -204 59 -66 c87 -99 96 -124 92 -256 -3 -104 -27 -256 -60 -390 -9
-33 -44 -109 -78 -170 -87 -151 -195 -368 -262 -527 -31 -73 -69 -160 -84
-193 -53 -116 -99 -327 -140 -650 l-22 -170 -297 -725 c-270 -657 -299 -733
-311 -815 -22 -158 -112 -485 -229 -839 -47 -142 -69 -169 -166 -201 l-67 -23
-29 -67 c-15 -37 -36 -76 -45 -86 -9 -10 -93 -62 -187 -114 -164 -93 -173 -97
-266 -111 -103 -15 -174 -37 -205 -63 -10 -9 -32 -43 -47 -76 -41 -85 -40
-161 1 -249 l31 -65 57 -12 c65 -13 223 -7 410 16 64 8 122 15 127 15 6 0 55
-34 110 -76 55 -42 127 -94 161 -115 57 -37 65 -40 156 -44 138 -7 273 21 311
63 18 20 18 27 2 203 -10 101 -15 208 -12 239 4 45 42 132 218 497 186 388
220 451 276 520 118 144 232 345 282 502 37 113 90 313 141 535 37 159 49 193
105 305 46 92 91 161 165 256 135 171 429 563 560 745 102 141 390 571 499
743 95 151 259 310 385 374 65 33 420 134 818 232 l325 81 302 176 c186 108
306 173 312 167 5 -5 -10 -72 -40 -173 l-48 -165 -28 -565 c-15 -311 -30 -570
-34 -577 -3 -6 -40 -35 -80 -64 -158 -110 -248 -230 -258 -339 -5 -51 -2 -67
22 -117 16 -32 59 -89 99 -131 l71 -74 90 -9 c240 -25 488 -138 764 -347 69
-52 145 -101 169 -109 61 -21 213 -14 267 12 47 24 53 48 34 140 -13 64 13 27
-452 637 -54 71 -71 104 -96 181 -44 139 -63 261 -51 328 34 176 106 372 240
644 164 333 213 465 300 804 28 110 43 338 36 541 -10 253 -24 397 -41 424
-58 87 -301 128 -641 107 -403 -25 -809 -97 -1191 -212 -72 -21 -136 -39 -142
-39 -6 0 -31 15 -55 34 -24 18 -65 39 -92 45 -54 14 -64 23 -64 62 0 41 -46
120 -105 183 -44 46 -58 68 -65 105 -12 66 -26 99 -66 154 -34 47 -37 60 -60
216 -30 201 -65 347 -100 419 -25 50 -29 86 -79 605 -32 330 -50 558 -44 568
4 9 117 121 250 250 l242 234 250 374 250 375 -21 445 -21 446 -35 100 c-52
152 -119 464 -120 560 l-1 80 137 248 c76 136 140 258 144 272 8 34 -10 137
-51 282 -19 67 -35 133 -35 147 0 56 -30 71 -92 43z"/>
</g>
</svg>
