<?xml version="1.0" standalone="no"?>
<!DOCTYPE svg PUBLIC "-//W3C//DTD SVG 20010904//EN"
 "http://www.w3.org/TR/2001/REC-SVG-20010904/DTD/svg10.dtd">
<svg version="1.0" xmlns="http://www.w3.org/2000/svg"
 width="1280.000000pt" height="1204.000000pt" viewBox="0 0 1280.000000 1204.000000"
 preserveAspectRatio="xMidYMid meet">
<g transform="translate(0.000000,1204.000000) scale(0.100000,-0.100000)"
fill="#000000" stroke="none">
<path d="M6368 12019 c-10 -10 -31 -19 -48 -19 -18 0 -38 -9 -52 -24 -16 -16
-38 -25 -70 -28 -25 -3 -66 -15 -90 -27 -24 -11 -50 -21 -56 -21 -7 0 -12 -3
-12 -7 0 -12 -59 -43 -80 -43 -28 0 -130 -48 -136 -65 -4 -8 -16 -15 -28 -15
-27 -1 -120 -33 -140 -49 -16 -14 -108 -50 -146 -58 -14 -3 -32 -12 -41 -19
-9 -8 -63 -30 -122 -49 -118 -38 -163 -59 -190 -86 -10 -11 -28 -19 -41 -19
-13 0 -26 -7 -30 -15 -3 -10 -19 -15 -43 -15 -21 0 -53 -9 -72 -21 -18 -11
-70 -32 -115 -46 -92 -29 -162 -62 -223 -106 -23 -16 -53 -29 -68 -29 -14 0
-32 -9 -39 -20 -10 -14 -20 -17 -40 -12 -19 4 -27 2 -32 -10 -3 -9 -15 -16
-25 -16 -11 0 -58 -16 -106 -35 -48 -19 -92 -35 -99 -35 -15 0 -70 -25 -109
-50 -16 -10 -44 -19 -60 -19 -17 -1 -47 -10 -68 -21 -20 -11 -43 -20 -51 -20
-7 0 -19 -7 -26 -15 -7 -8 -23 -15 -36 -15 -14 0 -30 -10 -40 -25 -12 -18 -25
-25 -50 -25 -18 0 -36 -4 -39 -10 -3 -5 -15 -10 -26 -10 -10 0 -19 -5 -19 -11
0 -7 -11 -9 -30 -6 -23 5 -35 1 -53 -17 -14 -14 -41 -25 -72 -29 -27 -4 -81
-25 -122 -47 -41 -22 -87 -40 -103 -40 -15 0 -33 -7 -40 -15 -7 -8 -22 -15
-33 -15 -12 0 -38 -12 -59 -26 -28 -20 -37 -32 -33 -45 7 -22 -10 -26 -19 -4
-7 20 -19 19 -68 -5 -23 -11 -51 -20 -62 -20 -12 0 -37 -10 -56 -22 -19 -12
-52 -30 -72 -40 -21 -9 -38 -22 -38 -27 0 -6 -12 -8 -29 -5 -17 4 -41 0 -59
-10 -17 -9 -39 -16 -49 -16 -10 0 -49 -16 -88 -35 -38 -19 -77 -35 -86 -35 -9
0 -22 -7 -29 -15 -7 -8 -22 -15 -34 -15 -42 0 -66 -12 -66 -32 0 -17 -5 -19
-26 -14 -14 4 -32 2 -40 -4 -7 -7 -18 -9 -24 -5 -5 3 -22 -3 -36 -14 -15 -12
-31 -21 -36 -21 -5 0 -16 -7 -24 -15 -9 -8 -23 -15 -32 -15 -9 0 -39 -11 -66
-25 -27 -14 -57 -25 -66 -25 -10 0 -23 -7 -30 -15 -7 -8 -16 -13 -20 -10 -4 3
-21 -2 -36 -10 -16 -8 -39 -15 -50 -15 -12 0 -33 -9 -47 -20 -14 -11 -32 -20
-40 -20 -23 0 -87 -29 -87 -39 0 -5 -19 -9 -43 -8 -33 1 -54 -6 -92 -30 -28
-17 -87 -43 -132 -58 -57 -20 -83 -33 -86 -46 -4 -13 -10 -17 -23 -12 -10 3
-21 0 -28 -8 -12 -15 -60 -35 -114 -49 -19 -5 -44 -18 -56 -29 -12 -12 -30
-21 -39 -21 -36 0 -114 -34 -150 -66 -20 -19 -44 -34 -52 -34 -22 0 -29 -44
-11 -78 19 -37 86 -94 103 -88 7 3 16 0 20 -7 9 -14 48 -37 64 -37 18 0 79
-52 94 -79 7 -14 13 -43 13 -63 0 -20 3 -42 7 -48 8 -13 17 -113 16 -173 0
-22 4 -47 9 -58 16 -29 -24 -291 -47 -310 -7 -6 -13 -23 -13 -36 0 -56 -79
-123 -185 -157 -78 -25 -110 -59 -119 -125 -8 -58 5 -91 34 -91 10 0 21 -9 25
-19 6 -21 81 -67 124 -78 14 -3 31 -10 37 -14 6 -5 33 -12 60 -16 27 -3 78
-21 114 -39 36 -18 88 -38 115 -45 28 -6 58 -20 68 -30 10 -11 24 -19 31 -19
7 0 27 -7 45 -16 18 -9 48 -16 67 -16 18 0 34 -4 34 -8 0 -5 20 -23 44 -41 57
-41 66 -73 35 -135 -27 -56 -63 -74 -150 -74 -54 0 -69 -5 -114 -34 -78 -52
-81 -57 -62 -117 9 -27 34 -71 56 -97 21 -26 46 -63 55 -82 36 -75 53 -102 75
-113 13 -7 31 -31 40 -54 9 -23 31 -57 49 -76 17 -18 32 -40 32 -49 0 -8 7
-21 16 -29 9 -7 30 -33 47 -58 17 -25 46 -63 65 -85 19 -21 43 -59 54 -85 11
-25 47 -78 78 -117 60 -72 160 -221 161 -239 0 -11 35 -61 184 -265 30 -41 66
-97 78 -125 13 -27 34 -59 46 -69 11 -11 21 -24 21 -31 0 -6 11 -21 25 -33 14
-12 25 -31 25 -43 0 -11 16 -37 35 -57 19 -20 59 -66 89 -102 87 -106 189
-187 241 -191 30 -2 123 14 182 32 37 12 113 -5 113 -25 0 -16 -41 -54 -115
-104 -33 -23 -85 -64 -115 -93 -30 -29 -77 -65 -105 -82 -27 -16 -75 -49 -105
-73 -115 -90 -207 -160 -249 -189 -80 -55 -128 -90 -182 -132 -30 -23 -80 -61
-112 -85 -101 -74 -168 -129 -317 -256 -80 -69 -161 -135 -181 -148 -20 -12
-47 -37 -59 -53 -12 -17 -27 -31 -34 -31 -7 0 -21 -9 -32 -21 -10 -12 -39 -33
-64 -47 -25 -14 -58 -38 -75 -53 -16 -15 -40 -30 -53 -34 -12 -3 -44 -25 -70
-48 -26 -22 -80 -62 -121 -89 -41 -27 -100 -70 -130 -96 -30 -26 -62 -51 -72
-57 -54 -33 -99 -67 -99 -75 0 -5 -24 -24 -54 -42 -81 -49 -216 -147 -216
-157 0 -4 -12 -20 -27 -35 -28 -29 -34 -54 -33 -156 1 -59 -2 -70 -29 -104
-17 -21 -31 -44 -31 -51 0 -6 -11 -21 -24 -32 -13 -11 -31 -34 -41 -49 -21
-36 -115 -108 -198 -152 -34 -19 -69 -40 -78 -48 -8 -8 -20 -14 -26 -14 -23 0
-70 -34 -81 -59 -11 -25 -6 -68 13 -114 8 -20 160 -97 192 -97 12 0 25 -5 28
-10 3 -6 17 -7 29 -4 14 3 66 -9 132 -32 60 -20 121 -36 135 -35 16 1 29 -5
33 -15 3 -8 10 -13 15 -10 8 6 109 -25 134 -41 6 -4 23 -6 36 -4 13 1 33 -2
45 -8 47 -24 128 -51 152 -51 14 0 37 -6 52 -14 15 -7 47 -16 72 -20 25 -4 72
-16 105 -27 188 -61 247 -79 263 -79 10 0 22 -4 28 -10 5 -5 34 -14 63 -20 29
-5 81 -22 115 -36 121 -52 136 -57 173 -59 21 -2 54 -9 73 -16 19 -6 52 -18
73 -26 20 -7 47 -13 60 -13 12 0 55 -11 95 -25 41 -14 88 -25 105 -25 17 0 39
-8 49 -17 24 -22 79 -42 146 -54 28 -5 76 -20 105 -33 28 -13 93 -34 142 -46
50 -12 100 -28 112 -36 12 -7 39 -18 60 -23 210 -55 303 -80 343 -96 19 -7 61
-21 94 -31 73 -24 96 -51 96 -114 0 -41 5 -52 42 -91 52 -54 140 -119 161
-119 9 0 35 -13 59 -28 66 -43 181 -92 217 -92 17 0 48 -7 69 -16 56 -24 230
-63 307 -69 11 -1 44 -5 73 -9 56 -8 174 12 239 40 40 18 81 18 115 0 14 -8
45 -17 67 -21 23 -4 43 -10 46 -15 3 -5 24 -11 48 -15 23 -4 49 -13 57 -19 8
-7 44 -21 80 -31 36 -11 76 -25 90 -32 14 -7 30 -13 36 -13 6 0 23 -9 37 -20
15 -12 55 -27 89 -34 35 -7 81 -24 103 -36 73 -42 94 -51 132 -57 21 -3 57
-13 80 -24 24 -10 48 -19 54 -19 6 0 24 -9 39 -20 16 -11 52 -25 81 -30 29 -6
60 -17 69 -25 9 -8 23 -15 31 -15 8 0 47 -14 88 -30 40 -17 81 -30 91 -30 9 0
28 -8 41 -19 37 -28 86 -51 110 -51 12 0 59 -20 103 -44 54 -30 104 -49 150
-56 45 -8 83 -23 114 -44 26 -17 67 -37 92 -45 70 -21 101 -33 113 -45 7 -6
39 -20 72 -30 33 -10 87 -29 120 -42 33 -12 72 -26 88 -29 15 -4 30 -11 33
-16 3 -5 15 -9 28 -9 13 0 31 -9 41 -20 13 -14 22 -17 36 -10 14 8 24 4 47
-19 17 -18 45 -32 68 -36 21 -4 49 -13 61 -21 12 -7 43 -18 70 -24 26 -6 54
-17 63 -25 8 -7 29 -17 45 -21 17 -4 41 -15 55 -24 41 -29 128 -70 147 -70 15
0 66 -22 184 -82 20 -10 38 -15 41 -13 3 3 45 -15 94 -40 49 -25 103 -45 121
-45 17 0 35 -5 38 -10 4 -6 26 -20 49 -31 l43 -20 37 22 c20 11 36 25 36 30 0
5 13 15 28 23 16 8 83 67 148 130 65 64 122 116 126 116 4 0 24 16 45 35 21
19 43 35 49 35 6 0 24 12 40 27 29 28 109 83 120 83 3 0 18 12 34 28 58 57 96
91 130 114 19 13 53 41 74 61 22 20 44 37 50 37 5 0 37 25 70 56 110 102 130
120 179 154 27 19 66 52 88 73 21 20 43 37 48 37 4 0 46 35 92 78 46 43 113
96 149 118 35 21 82 56 104 76 21 21 42 38 45 38 3 0 24 16 46 36 22 19 67 54
100 76 33 22 64 46 68 54 4 8 24 21 43 29 18 8 34 18 34 24 0 5 30 33 68 62
37 29 83 67 102 86 19 18 39 33 45 33 13 0 97 61 141 103 16 15 47 40 69 55
22 15 44 33 48 39 4 7 14 13 22 13 8 0 22 11 30 24 9 13 26 27 39 30 13 3 45
28 73 54 27 27 68 61 91 76 23 14 48 35 54 46 7 11 17 20 22 20 18 0 96 56
101 73 4 9 20 24 36 33 36 18 102 68 145 109 17 17 48 41 68 55 21 14 55 40
78 58 22 17 44 32 48 32 9 0 89 64 130 105 14 14 30 25 36 25 6 0 23 14 39 30
16 16 33 30 38 30 5 0 41 24 81 53 39 29 91 65 116 79 25 14 74 53 109 87 35
34 66 61 69 61 2 0 25 17 51 38 25 21 66 50 91 64 25 15 76 56 113 92 38 36
75 66 82 66 7 0 22 10 32 23 10 12 47 46 83 75 36 29 74 61 85 72 12 11 25 20
30 20 6 1 23 12 40 25 26 21 28 28 18 44 -6 10 -8 22 -3 27 5 5 11 25 15 45 7
40 0 46 -99 69 -27 6 -62 21 -78 33 -68 52 -98 80 -98 91 0 7 -11 22 -25 34
-14 12 -25 30 -25 39 0 18 -20 53 -72 131 -15 22 -33 61 -39 87 -6 25 -28 66
-49 91 -22 27 -44 68 -53 102 -20 68 -51 122 -72 122 -10 0 -15 10 -15 28 0
38 -31 66 -64 58 -14 -3 -28 -2 -31 4 -3 5 -26 10 -51 10 -30 0 -57 8 -84 25
-28 18 -48 23 -65 19 -15 -4 -25 -2 -25 5 0 6 -9 11 -19 11 -10 0 -21 6 -24
14 -3 8 -27 21 -54 31 -87 31 -126 49 -143 68 -9 9 -43 27 -76 38 -32 12 -105
43 -161 70 -57 27 -115 52 -130 55 -16 4 -41 17 -56 30 -15 13 -49 30 -76 38
-26 8 -90 35 -142 60 -52 25 -102 46 -110 46 -8 0 -33 9 -54 21 -22 11 -69 32
-105 46 -36 13 -78 32 -95 42 -16 9 -68 30 -115 45 -47 16 -91 33 -98 39 -18
15 -144 77 -155 77 -5 0 -37 13 -71 29 -90 44 -136 61 -161 61 -12 0 -28 7
-35 15 -7 8 -21 15 -32 15 -10 0 -31 9 -46 20 -15 11 -50 24 -78 29 -28 6 -66
17 -85 25 -127 54 -297 104 -368 107 -20 1 -70 13 -111 27 -66 22 -94 25 -245
28 -93 1 -192 8 -220 14 -27 6 -108 11 -180 11 -177 -1 -244 11 -269 46 -36
53 -199 202 -242 223 -24 11 -44 24 -44 28 0 5 -26 19 -57 32 -32 13 -86 40
-119 60 -34 21 -86 43 -115 50 -30 7 -85 25 -124 40 -64 25 -148 48 -200 56
-11 2 -60 12 -109 24 -50 11 -111 20 -137 20 -48 0 -84 20 -76 44 7 22 69 55
115 61 26 4 83 15 127 25 91 22 227 40 298 40 27 0 57 5 69 11 11 6 77 19 146
29 70 10 140 23 155 29 16 6 52 11 82 11 54 0 277 34 295 45 5 3 38 8 73 10
77 5 258 31 347 50 59 12 287 53 430 76 30 4 69 6 85 3 17 -3 44 0 60 6 31 12
162 36 275 50 36 5 81 13 100 19 19 6 64 11 100 11 40 0 77 6 95 16 17 9 55
17 85 19 30 2 78 8 105 13 28 6 95 17 150 26 55 9 121 20 147 25 30 5 51 4 58
-3 7 -7 10 -6 10 2 0 7 6 12 13 12 8 0 22 10 33 23 27 30 74 124 74 148 0 11
14 47 31 81 19 38 28 69 25 83 -3 12 3 46 14 76 17 50 29 169 34 324 0 28 4
55 7 60 7 12 -7 181 -20 245 -5 25 -20 75 -33 111 -18 46 -22 71 -16 83 11 20
-16 111 -41 139 -8 10 -20 33 -26 50 -8 24 -16 31 -30 29 -11 -2 -50 -5 -86
-8 -75 -6 -99 7 -99 55 0 23 -11 37 -52 68 -29 22 -69 46 -88 53 -19 8 -54 28
-76 44 -23 17 -61 43 -85 59 -24 15 -62 41 -84 57 -72 54 -126 90 -166 111
-22 11 -42 26 -46 34 -3 8 -9 15 -14 15 -6 0 -35 19 -66 43 -30 23 -67 50 -81
59 -39 26 -42 39 -19 70 11 15 24 28 28 28 5 0 24 11 43 24 19 13 56 27 81 31
26 3 77 20 115 36 38 16 75 29 83 29 23 0 130 51 154 74 58 55 59 55 94 50 37
-6 85 12 124 46 11 10 37 23 58 30 36 11 60 38 56 63 -1 6 3 25 9 40 7 16 12
56 12 91 0 39 5 69 15 82 18 24 19 116 0 168 -9 26 -11 46 -5 62 7 18 5 26 -7
32 -15 9 -15 11 1 33 20 29 21 87 2 108 -15 18 -36 126 -36 189 0 22 -4 44
-10 47 -5 3 -10 21 -10 39 0 17 -4 36 -9 42 -5 5 -18 45 -29 89 -40 156 -60
218 -75 232 -9 10 -38 16 -76 17 -34 2 -64 6 -68 10 -4 3 -10 34 -14 68 -8 71
-24 88 -81 88 -24 0 -65 13 -107 34 -38 19 -89 37 -112 41 -24 4 -48 11 -54
15 -5 4 -28 11 -50 14 -22 4 -74 19 -115 32 -41 14 -99 29 -129 34 -29 5 -85
25 -125 45 -39 19 -85 35 -101 35 -17 1 -48 8 -70 17 -161 63 -236 78 -262 52
-12 -12 -37 -3 -28 10 8 14 -29 39 -70 46 -22 4 -47 13 -55 20 -8 8 -33 17
-55 21 -22 4 -59 18 -82 31 -23 12 -56 23 -73 23 -16 0 -40 5 -53 12 -48 24
-57 28 -76 28 -11 0 -23 5 -26 10 -3 6 -16 10 -29 10 -13 0 -43 10 -67 23 -53
28 -90 39 -337 102 -29 7 -68 23 -88 34 -19 12 -44 21 -55 21 -11 0 -37 9 -57
19 -64 33 -112 51 -135 51 -13 0 -48 9 -80 20 -31 11 -63 20 -71 20 -15 0 -66
20 -119 46 -16 8 -46 14 -68 14 -22 0 -57 9 -79 20 -22 11 -47 20 -57 20 -10
0 -27 7 -37 15 -11 8 -28 15 -39 15 -10 0 -39 8 -65 19 -26 10 -72 24 -102 31
-30 7 -75 23 -100 36 -25 12 -67 25 -95 29 -105 14 -159 28 -174 46 -10 11
-45 24 -91 34 -88 18 -81 18 -102 -6z m-58 -99 c0 -5 -4 -10 -10 -10 -5 0 -10
5 -10 10 0 6 5 10 10 10 6 0 10 -4 10 -10z m170 -30 c0 -5 -4 -10 -9 -10 -6 0
-13 5 -16 10 -3 6 1 10 9 10 9 0 16 -4 16 -10z m390 -30 c0 -5 -4 -10 -10 -10
-5 0 -10 5 -10 10 0 6 5 10 10 10 6 0 10 -4 10 -10z m-283 -70 c-4 -16 0 -20
18 -20 12 0 28 -7 35 -15 7 -8 23 -15 36 -15 14 0 24 -6 24 -14 0 -9 18 -15
57 -19 33 -3 60 -12 64 -20 5 -8 22 -14 38 -15 16 0 38 -5 48 -10 10 -6 40
-13 67 -17 32 -5 55 -16 69 -31 12 -15 32 -24 48 -24 15 0 30 -4 33 -9 4 -5
25 -12 49 -16 72 -11 181 -47 203 -66 15 -14 36 -19 81 -19 45 0 67 -5 86 -20
16 -12 40 -20 65 -20 23 0 44 -5 47 -10 19 -30 135 -69 216 -72 22 -1 42 -5
45 -10 9 -14 125 -68 145 -68 17 0 36 -7 106 -36 17 -8 40 -14 50 -14 11 0 47
-11 80 -24 34 -13 64 -22 66 -19 6 5 128 -35 143 -48 6 -5 28 -11 50 -13 57
-6 103 -20 152 -45 23 -12 47 -19 53 -16 5 4 24 -3 43 -14 20 -13 50 -21 75
-21 24 0 62 -10 89 -24 31 -16 57 -22 76 -19 15 3 31 2 35 -4 3 -5 23 -19 44
-32 29 -18 37 -29 37 -51 0 -23 -6 -30 -32 -39 -18 -6 -41 -20 -53 -30 -20
-20 -119 -61 -144 -61 -8 0 -35 -14 -61 -30 -26 -17 -85 -44 -131 -61 -46 -17
-108 -43 -136 -60 -29 -16 -58 -29 -65 -29 -7 0 -60 -22 -118 -50 -58 -27
-112 -50 -120 -50 -9 0 -24 -6 -35 -13 -11 -7 -40 -20 -65 -27 -58 -18 -207
-86 -214 -98 -3 -5 -27 -17 -53 -26 -26 -10 -75 -30 -108 -47 -33 -16 -114
-52 -180 -80 -66 -28 -124 -55 -130 -59 -5 -4 -28 -13 -50 -20 -35 -12 -115
-47 -280 -125 -27 -13 -113 -51 -190 -85 -77 -34 -167 -74 -200 -90 -33 -16
-82 -36 -110 -45 -27 -9 -65 -25 -83 -36 -19 -11 -73 -35 -121 -53 -48 -19
-111 -46 -140 -60 -29 -15 -79 -35 -113 -46 -33 -10 -67 -28 -75 -39 -8 -12
-22 -21 -31 -21 -9 0 -26 -7 -36 -15 -11 -8 -26 -15 -33 -15 -11 0 -151 -56
-228 -90 -11 -5 -45 -19 -75 -31 -30 -11 -69 -29 -87 -40 -17 -11 -55 -27 -85
-35 -29 -9 -57 -20 -63 -24 -5 -5 -41 -21 -80 -36 -38 -15 -75 -31 -80 -35 -6
-4 -37 -17 -70 -30 -33 -12 -78 -32 -100 -45 -22 -12 -74 -34 -116 -47 -41
-14 -116 -45 -165 -70 -49 -24 -100 -48 -114 -52 -14 -4 -54 -22 -90 -40 -36
-18 -94 -43 -129 -55 -34 -11 -80 -32 -102 -45 -21 -14 -43 -25 -49 -25 -19 0
-128 -49 -166 -75 -20 -14 -44 -25 -54 -25 -9 0 -43 -13 -76 -29 -32 -16 -77
-37 -99 -46 -22 -9 -51 -27 -65 -39 -41 -39 -69 -48 -115 -42 -23 4 -57 18
-75 31 -17 13 -49 26 -70 30 -21 4 -58 19 -82 33 -59 36 -105 58 -153 72 -22
7 -49 20 -60 30 -11 9 -47 25 -80 34 -74 21 -152 55 -167 73 -6 7 -17 13 -26
13 -22 0 -141 49 -171 70 -14 10 -55 26 -91 34 -37 9 -72 25 -82 36 -9 11 -47
29 -85 41 -37 12 -75 25 -83 30 -40 23 -118 59 -128 59 -6 0 -26 9 -44 20 -18
11 -39 20 -47 20 -7 0 -26 11 -43 25 -18 15 -42 25 -62 25 -17 0 -36 4 -41 9
-6 5 -44 26 -85 46 -41 20 -84 42 -95 48 -47 26 -113 55 -150 67 -36 12 -98
38 -147 62 -10 4 -29 8 -42 8 -35 0 -55 10 -50 24 4 11 -89 43 -109 38 -5 -2
-11 7 -14 18 -3 12 -14 20 -27 20 -11 0 -45 14 -73 30 -45 26 -53 35 -53 60 0
17 4 30 10 30 5 0 23 14 40 30 17 17 36 30 43 30 7 0 18 9 25 20 7 11 23 20
35 20 13 0 32 7 43 15 10 8 28 15 40 15 11 0 24 3 27 6 4 4 23 8 42 10 20 2
57 15 82 29 25 14 54 25 65 25 10 0 21 7 24 15 4 9 19 15 39 15 18 0 38 7 45
15 7 8 31 20 54 26 22 7 58 25 79 41 27 21 45 28 61 24 13 -3 31 1 42 9 10 8
27 15 36 15 10 0 24 14 33 30 9 18 23 30 36 30 40 0 176 51 199 75 19 20 26
22 45 13 20 -9 32 -6 68 15 24 14 59 40 77 57 22 21 39 29 52 24 10 -3 30 1
43 10 13 9 31 16 40 16 9 0 18 7 22 16 4 11 13 13 34 9 21 -5 37 0 61 17 53
37 93 56 134 64 22 3 62 17 90 30 28 13 60 24 71 24 11 0 40 15 64 34 55 41
122 76 148 76 11 0 23 5 27 11 3 6 17 8 33 4 18 -5 41 1 76 19 27 14 71 34 98
45 35 15 47 25 47 41 0 17 4 20 21 15 29 -10 200 43 224 69 11 12 47 30 80 40
87 26 104 36 107 65 3 22 8 26 38 27 88 1 98 4 103 25 4 15 11 20 23 15 30
-11 125 17 152 46 14 14 31 24 38 21 7 -3 23 2 36 11 12 9 29 16 36 16 8 0 31
14 52 30 21 17 46 29 57 28 44 -5 113 15 149 45 23 19 51 32 71 34 18 1 47 8
65 16 108 47 140 62 150 74 6 7 27 13 48 13 37 0 60 9 110 42 14 9 43 19 65
23 67 11 104 25 158 61 28 19 60 34 69 34 10 0 18 4 18 8 0 5 22 14 49 21 28
7 60 22 73 34 32 29 115 61 154 59 20 -1 38 6 49 18 10 11 23 20 30 20 7 0 20
9 31 21 12 13 27 19 41 16 13 -2 28 2 34 9 19 23 93 57 121 55 20 -1 31 6 45
29 20 34 26 36 43 15 11 -13 16 -13 44 2 17 10 38 23 47 30 19 15 64 18 142 8
33 -5 57 -4 56 1 -3 17 1 24 12 24 6 0 9 -9 6 -20z m623 -50 c0 -5 -4 -10 -10
-10 -5 0 -10 5 -10 10 0 6 5 10 10 10 6 0 10 -4 10 -10z m-1379 -53 c-13 -13
-26 -3 -16 12 3 6 11 8 17 5 6 -4 6 -10 -1 -17z m-1195 -448 c10 -17 -13 -36
-27 -22 -12 12 -4 33 11 33 5 0 12 -5 16 -11z m-256 -109 c0 -5 -5 -10 -11
-10 -5 0 -7 5 -4 10 3 6 8 10 11 10 2 0 4 -4 4 -10z m50 -10 c0 -5 -4 -10 -10
-10 -5 0 -10 5 -10 10 0 6 5 10 10 10 6 0 10 -4 10 -10z m-60 -70 c0 -5 -2
-10 -4 -10 -3 0 -8 5 -11 10 -3 6 -1 10 4 10 6 0 11 -4 11 -10z m-400 -104 c0
-3 -4 -8 -10 -11 -5 -3 -10 -1 -10 4 0 6 5 11 10 11 6 0 10 -2 10 -4z m190
-26 c0 -5 -4 -10 -10 -10 -5 0 -10 5 -10 10 0 6 5 10 10 10 6 0 10 -4 10 -10z
m5873 -304 c61 -25 45 -75 -32 -96 -20 -5 -58 -24 -83 -40 -26 -17 -73 -40
-105 -51 -32 -11 -87 -35 -123 -54 -36 -18 -88 -41 -115 -50 -28 -9 -74 -30
-102 -46 -29 -16 -59 -29 -68 -29 -17 0 -119 -45 -155 -69 -14 -9 -52 -28 -85
-41 -33 -13 -81 -36 -106 -51 -25 -15 -57 -30 -70 -34 -13 -4 -60 -24 -104
-44 -44 -21 -109 -50 -145 -66 -36 -16 -76 -37 -90 -46 -14 -9 -48 -24 -76
-33 -28 -9 -69 -30 -90 -46 -22 -15 -53 -32 -69 -36 -17 -3 -52 -17 -80 -29
-27 -12 -72 -30 -100 -40 -27 -10 -135 -59 -240 -110 -104 -51 -208 -98 -230
-105 -22 -7 -61 -23 -87 -36 -26 -13 -69 -31 -95 -40 -64 -22 -235 -99 -418
-190 -82 -41 -155 -74 -162 -74 -6 0 -53 -20 -105 -44 -51 -24 -136 -63 -188
-86 -172 -76 -411 -188 -460 -216 -14 -7 -33 -14 -43 -14 -9 0 -52 -17 -95
-38 -42 -21 -93 -44 -112 -52 -19 -7 -98 -43 -175 -80 -77 -37 -205 -97 -285
-133 -159 -71 -387 -174 -550 -247 -58 -26 -120 -55 -139 -64 -32 -17 -130
-46 -154 -46 -7 0 -25 11 -41 24 -27 21 -29 25 -18 52 15 35 132 109 195 124
23 5 74 25 112 45 39 19 77 35 85 35 8 0 29 9 45 20 17 11 36 20 44 20 8 0 48
21 90 46 42 25 92 48 111 51 40 7 85 28 150 72 25 17 58 31 74 31 17 0 53 17
88 40 33 22 66 40 73 40 12 0 207 85 320 140 33 16 96 43 140 60 44 17 87 37
95 44 8 8 44 23 80 36 36 12 72 28 80 35 8 8 53 28 100 46 46 18 98 42 115 53
17 12 51 28 76 36 24 7 54 22 66 33 12 11 29 17 37 14 9 -4 18 -2 21 4 10 15
102 59 125 59 11 0 20 5 20 10 0 6 7 10 15 10 8 0 23 4 33 9 32 18 107 49 147
62 22 7 47 19 55 25 22 18 162 84 178 84 8 0 26 8 40 19 15 10 47 25 72 34 40
13 87 35 130 59 39 22 103 48 119 48 9 0 33 14 54 31 20 17 41 28 46 25 5 -4
20 -2 33 3 13 5 42 15 65 21 23 7 60 31 83 52 26 25 47 38 57 34 8 -4 27 4 44
18 15 13 48 27 71 31 51 9 223 80 257 106 13 11 30 19 37 19 15 0 151 66 174
84 8 7 42 20 75 30 33 10 92 33 130 51 217 104 282 134 305 140 14 4 39 17 55
29 17 12 64 33 105 46 41 13 77 27 80 30 27 29 112 73 154 80 71 12 123 36
142 66 9 14 23 23 30 20 13 -5 122 30 159 51 24 14 58 10 108 -11z m51 -115
c3 -4 -3 -16 -13 -25 -22 -20 -40 -4 -21 19 14 17 26 19 34 6z m-7324 -116 c0
-8 -4 -15 -10 -15 -5 0 -10 7 -10 15 0 8 5 15 10 15 6 0 10 -7 10 -15z m7515
-7 c16 -7 26 -20 27 -37 0 -14 2 -37 3 -51 1 -14 5 -77 9 -140 3 -63 10 -162
16 -220 5 -58 10 -136 10 -175 0 -38 4 -76 8 -82 10 -16 -19 -166 -37 -187 -7
-9 -37 -29 -66 -46 -61 -35 -111 -33 -125 4 -8 22 -26 253 -21 271 2 6 5 64 7
130 6 165 10 220 17 231 3 6 1 29 -4 52 -7 32 -6 51 6 78 8 20 15 54 15 76 0
49 13 73 48 92 33 19 53 19 87 4z m-296 -180 c6 -17 11 -47 11 -67 0 -21 5
-42 11 -48 10 -10 40 -177 39 -218 -1 -79 3 -136 12 -170 15 -53 18 -72 23
-120 2 -22 7 -65 11 -95 5 -47 3 -59 -16 -82 -25 -32 -104 -74 -175 -93 -44
-11 -175 -68 -257 -111 -57 -30 -96 -3 -84 60 3 17 8 112 11 211 3 99 10 196
17 217 7 23 7 46 2 65 -15 46 7 247 30 272 21 24 49 27 63 9 5 -7 20 -49 32
-93 31 -114 38 -142 49 -210 34 -201 47 -263 54 -259 4 3 8 15 8 27 0 12 2 83
5 157 13 414 21 493 54 538 24 34 57 53 78 45 6 -3 16 -18 22 -35z m-554 -275
c3 -21 13 -53 21 -71 8 -18 12 -43 8 -56 -3 -13 4 -52 16 -87 14 -40 23 -94
25 -144 3 -85 20 -275 31 -338 4 -29 2 -43 -12 -59 -26 -28 -173 -100 -198
-96 -48 7 -54 90 -27 368 9 88 13 254 10 360 -1 31 29 119 49 143 8 9 28 17
43 17 25 0 29 -5 34 -37z m-296 -120 c16 -14 24 -36 31 -93 5 -41 16 -97 24
-125 14 -46 33 -220 29 -255 -1 -8 5 -67 13 -130 14 -104 14 -119 0 -152 -10
-24 -23 -38 -34 -38 -10 0 -22 -4 -28 -9 -18 -16 -125 -51 -158 -51 -23 0 -36
6 -40 17 -12 32 -5 246 10 282 9 22 16 92 19 210 7 262 12 300 46 333 32 32
58 35 88 11z m-8021 -22 c3 -8 -1 -12 -9 -9 -7 2 -15 10 -17 17 -3 8 1 12 9 9
7 -2 15 -10 17 -17z m7766 -97 c30 -12 39 -97 53 -494 8 -242 3 -262 -64 -306
-75 -49 -130 -74 -161 -74 -15 0 -32 -4 -38 -9 -15 -16 -175 -92 -234 -113
-30 -10 -71 -29 -90 -42 -45 -31 -111 -50 -143 -42 -39 10 -43 72 -13 246 13
80 27 174 31 210 14 138 38 306 46 321 13 24 46 29 70 11 27 -23 39 -73 53
-222 16 -175 35 -195 51 -54 3 32 16 115 27 184 11 69 22 135 23 148 7 54 40
124 63 133 40 15 49 10 65 -33 28 -79 33 -147 39 -530 1 -71 5 -128 9 -128 10
0 27 88 33 166 2 34 9 77 14 95 18 59 55 288 67 420 8 95 43 135 99 113z
m-7348 -299 c26 -14 55 -25 65 -25 11 0 40 -11 66 -24 136 -68 246 -117 312
-140 41 -14 82 -33 91 -41 9 -8 24 -15 34 -15 9 0 28 -7 41 -16 16 -10 34 -14
50 -10 14 4 25 3 25 -2 0 -20 86 -65 127 -66 31 -1 50 -9 70 -28 15 -15 51
-34 78 -43 52 -17 113 -44 176 -76 20 -11 43 -19 51 -19 7 0 21 -9 31 -20 9
-11 28 -20 42 -20 14 0 55 -16 92 -35 37 -19 75 -35 84 -35 9 0 27 -8 40 -18
13 -11 53 -31 89 -45 67 -26 183 -79 210 -96 21 -12 157 -67 202 -81 20 -6 41
-17 48 -24 6 -8 27 -17 48 -21 20 -4 44 -12 52 -20 8 -7 33 -18 55 -25 22 -7
49 -18 60 -25 11 -6 43 -20 72 -29 29 -10 68 -28 88 -42 20 -13 56 -29 79 -34
24 -5 75 -28 113 -50 39 -22 76 -40 83 -40 8 0 46 -16 85 -35 47 -24 94 -38
140 -44 61 -7 72 -12 98 -42 30 -35 93 -161 107 -214 5 -16 16 -57 25 -90 13
-46 17 -98 16 -220 0 -184 -14 -303 -42 -360 -10 -22 -26 -60 -34 -85 -27 -78
-69 -109 -112 -86 -40 22 -99 86 -115 126 -17 40 -71 71 -162 95 -30 8 -95 33
-144 55 -49 22 -95 40 -102 40 -6 0 -53 20 -103 44 -51 24 -108 46 -127 50
-19 3 -51 17 -71 31 -20 13 -61 31 -90 40 -30 9 -81 29 -114 45 -33 15 -78 35
-100 43 -22 8 -89 35 -150 60 -60 25 -132 53 -160 62 -27 9 -60 23 -72 31 -12
8 -30 14 -40 14 -10 0 -27 7 -37 15 -11 8 -30 15 -42 15 -11 0 -38 14 -59 30
-21 17 -50 33 -64 36 -42 8 -133 46 -184 76 -26 15 -58 28 -71 28 -13 0 -53
16 -90 35 -37 19 -74 35 -82 35 -8 0 -40 13 -72 29 -31 15 -85 38 -120 50 -34
11 -70 25 -80 30 -9 5 -24 12 -32 15 -8 3 -22 10 -30 15 -49 29 -102 49 -155
61 -33 7 -78 25 -101 39 -44 30 -96 51 -127 51 -11 0 -34 11 -51 23 -17 13
-64 36 -105 50 -119 43 -146 59 -149 88 -2 14 4 31 12 39 9 7 16 27 16 46 0
23 8 41 27 59 15 14 31 25 35 25 5 0 8 17 8 38 0 65 27 145 56 169 l27 21 -30
39 c-28 35 -30 43 -25 97 3 40 13 71 29 95 24 36 24 36 4 39 -12 2 -21 9 -21
16 0 7 -9 21 -21 32 -11 10 -26 32 -33 49 -10 25 -9 35 6 65 31 61 47 74 95
79 7 0 33 -10 59 -24z m6542 -41 c12 -8 27 -24 33 -35 17 -33 29 -183 35 -449
7 -319 12 -307 -137 -364 -36 -15 -81 -26 -101 -26 -23 0 -41 -7 -54 -21 -24
-27 -136 -78 -178 -82 -31 -2 -31 -2 -37 58 l-6 60 -1 -50 c-1 -27 -8 -61 -15
-74 -20 -40 -87 -80 -157 -95 -37 -7 -90 -29 -124 -49 -32 -19 -90 -45 -130
-58 -39 -12 -81 -30 -94 -40 -13 -10 -47 -25 -75 -33 -29 -9 -68 -26 -88 -40
-19 -13 -58 -31 -85 -39 -28 -8 -73 -26 -100 -40 -27 -14 -69 -30 -94 -37 -24
-6 -80 -33 -125 -60 -44 -26 -102 -53 -130 -59 -27 -7 -71 -25 -96 -41 -26
-16 -76 -37 -110 -48 -35 -11 -120 -46 -189 -77 -69 -31 -155 -67 -191 -80
-37 -13 -107 -44 -157 -69 -51 -25 -100 -46 -110 -46 -11 0 -38 -14 -60 -30
-42 -30 -134 -70 -162 -70 -8 0 -31 -9 -50 -20 -81 -47 -164 -80 -201 -80 -24
0 -47 -7 -61 -20 -47 -40 -162 -102 -192 -104 -28 -1 -31 2 -34 33 -2 19 1 44
6 55 26 58 38 116 36 166 -10 185 -20 263 -50 364 -23 80 -19 131 12 155 33
26 50 26 89 3 29 -18 51 -53 74 -119 23 -66 35 -99 49 -132 8 -19 17 -64 19
-100 9 -140 24 -148 42 -23 7 48 17 98 21 112 8 24 13 69 29 257 8 100 20 126
60 121 57 -7 114 -202 112 -383 -2 -135 15 -137 23 -3 4 62 13 189 20 282 11
156 14 170 35 187 13 11 36 19 52 19 47 0 53 -25 63 -285 4 -108 17 -225 25
-225 4 0 12 35 18 78 6 42 18 113 27 157 8 44 17 132 20 195 6 104 9 119 34
155 34 49 71 58 94 23 24 -37 37 -107 42 -215 2 -56 7 -107 11 -114 5 -6 11
-37 14 -68 7 -62 25 -76 28 -21 4 59 25 203 34 235 4 17 10 88 13 159 4 121 6
131 29 154 42 41 107 25 107 -28 0 -9 9 -40 19 -70 11 -31 20 -83 20 -120 0
-36 4 -78 9 -95 5 -16 7 -36 5 -43 -7 -18 17 -152 27 -152 17 0 47 112 55 205
3 33 7 74 10 90 2 17 4 93 5 170 2 138 8 168 39 192 54 42 99 -11 130 -152 13
-55 33 -131 44 -170 12 -38 22 -92 23 -120 0 -27 2 -57 4 -65 6 -33 30 175 39
335 13 238 17 267 42 288 43 35 66 15 90 -77 9 -34 24 -86 32 -116 8 -30 21
-107 27 -170 11 -99 15 -140 19 -159 1 -3 7 1 13 7 14 14 29 215 32 440 3 142
3 143 31 172 16 17 38 30 50 30 26 0 52 -47 64 -120 5 -30 14 -68 19 -85 27
-80 32 -108 33 -191 1 -49 5 -102 8 -119 7 -28 8 -27 15 20 4 28 12 63 17 79
5 16 9 47 9 70 0 23 5 59 10 81 5 22 12 100 15 174 6 150 20 197 63 208 14 3
32 2 40 -3 17 -11 59 -143 73 -227 5 -32 13 -67 19 -77 5 -10 10 -60 10 -111
0 -52 4 -89 9 -83 11 12 36 203 47 359 1 22 7 78 13 125 6 46 11 90 11 96 0
20 51 74 69 74 36 0 56 -38 64 -124 4 -44 7 -107 7 -139 -1 -31 2 -63 7 -70 4
-6 8 -39 9 -72 1 -135 4 -185 13 -185 5 0 15 26 21 58 6 31 15 79 21 105 5 27
9 94 9 150 0 56 5 156 10 222 9 106 13 122 33 137 30 24 70 22 93 -3 15 -17
19 -39 21 -108 3 -102 10 -239 19 -371 7 -102 17 -100 29 6 4 32 17 113 30
179 13 66 26 178 28 249 7 150 15 166 82 166 24 0 47 -6 52 -12 22 -29 36
-188 30 -347 -3 -89 -3 -179 0 -201 6 -39 6 -40 18 -16 7 13 18 66 25 117 20
152 30 231 35 274 23 225 34 277 66 311 27 28 28 29 57 8z m1240 -458 c20 -12
48 -26 62 -31 14 -4 53 -25 87 -46 34 -22 69 -39 76 -39 7 0 26 -13 42 -30 16
-16 34 -30 40 -30 6 0 46 -22 88 -50 42 -27 80 -50 83 -50 3 0 23 -13 43 -28
20 -16 68 -46 108 -66 39 -21 88 -52 110 -70 21 -18 48 -38 61 -45 13 -7 22
-21 22 -36 0 -47 -128 -88 -305 -100 -88 -5 -273 -36 -405 -66 -92 -21 -147
-30 -245 -38 -55 -5 -107 -11 -115 -15 -8 -3 -51 -12 -95 -20 -44 -8 -118 -22
-165 -31 -47 -9 -120 -18 -163 -21 -42 -2 -115 -13 -161 -24 -46 -11 -91 -17
-100 -14 -9 3 -22 2 -29 -3 -20 -16 -128 -36 -207 -39 -85 -2 -225 -26 -289
-49 -24 -8 -58 -15 -76 -15 -18 0 -66 -6 -106 -14 -41 -7 -85 -13 -99 -13 -14
0 -59 -7 -100 -16 -41 -8 -97 -18 -125 -22 -27 -3 -91 -17 -140 -30 -50 -14
-147 -29 -215 -35 -69 -6 -136 -12 -150 -13 -33 -3 -38 28 -8 53 13 11 39 24
58 31 19 6 62 26 95 44 33 18 78 36 100 40 21 4 51 15 65 25 32 22 126 70 139
70 6 0 26 11 46 24 20 14 62 32 93 41 31 9 102 38 157 64 55 27 118 54 140 61
22 7 49 23 61 35 12 13 38 24 66 28 25 3 78 24 119 46 41 22 112 55 159 74 47
19 105 43 130 54 25 12 61 26 80 34 19 7 46 21 59 31 13 10 33 18 44 18 11 0
49 15 86 34 36 18 82 38 101 45 19 6 51 21 70 33 36 23 115 59 185 85 22 8 54
25 70 37 45 34 91 56 118 56 13 0 48 13 78 29 66 36 108 38 157 7z m-7293
-956 c3 -5 16 -10 29 -10 13 0 31 -8 40 -19 9 -10 38 -24 64 -32 26 -7 63 -21
82 -31 19 -10 40 -18 45 -18 16 0 72 -61 83 -90 6 -14 50 -75 100 -137 50 -61
93 -122 97 -135 4 -12 20 -36 35 -53 69 -74 120 -132 120 -137 0 -3 24 -30 53
-59 33 -34 67 -82 89 -129 33 -69 37 -87 48 -220 19 -223 4 -683 -25 -753 -4
-10 -21 -25 -38 -34 l-31 -15 -45 50 c-61 67 -71 79 -71 92 0 10 -23 51 -43
75 -4 6 -23 34 -42 64 -19 30 -40 58 -47 62 -12 8 -29 37 -72 124 -13 28 -38
65 -55 83 -17 19 -41 51 -54 72 -12 21 -37 64 -56 96 -19 33 -46 73 -60 90
-14 18 -39 55 -56 84 -16 28 -40 64 -51 79 -12 14 -28 42 -36 61 -13 30 -116
161 -154 195 -6 6 -19 30 -28 55 -24 61 -66 121 -84 118 -10 -2 -21 15 -33 52
-23 68 -23 75 -3 94 19 19 64 102 64 118 0 6 7 20 17 30 15 16 21 48 22 118 1
18 11 31 39 46 44 26 49 27 57 14z m8271 -68 c18 -12 64 -121 57 -138 -3 -8 2
-23 10 -32 24 -27 48 -196 51 -367 5 -231 -13 -262 -164 -289 -47 -8 -94 -17
-105 -21 -13 -4 -33 3 -57 18 l-36 25 -33 -28 c-40 -32 -85 -48 -154 -54 -27
-3 -62 -8 -77 -11 -15 -4 -39 -4 -53 -1 -39 10 -35 37 31 184 8 18 21 60 28
95 8 34 19 80 25 102 16 55 43 279 41 339 -2 87 38 140 103 138 69 -2 79 -53
84 -432 2 -167 6 -306 9 -309 15 -15 74 123 74 175 0 17 11 57 26 89 30 69 52
262 33 297 -6 11 -8 36 -5 57 4 20 6 57 6 83 -1 35 4 52 20 68 20 20 65 27 86
12z m-649 -74 c36 -41 43 -80 48 -288 3 -113 6 -209 5 -215 -8 -112 -29 -275
-39 -293 -6 -12 -22 -28 -34 -36 -28 -17 -187 -40 -224 -32 -18 4 -41 1 -60
-9 -42 -21 -177 -46 -235 -44 -27 2 -53 -3 -63 -11 -11 -9 -47 -14 -108 -14
l-92 -1 2 39 c2 22 10 58 18 80 24 67 52 322 61 556 4 129 6 136 30 158 14 12
38 22 54 22 35 0 43 -19 46 -110 1 -36 9 -108 18 -160 8 -52 16 -149 17 -215
3 -211 35 -267 59 -103 6 44 16 92 22 107 14 37 29 194 32 341 2 69 4 128 5
132 2 15 64 39 93 36 50 -5 65 -67 95 -383 9 -94 9 -166 0 -249 -7 -62 -6 -68
8 -56 8 7 15 19 15 28 0 8 11 34 24 57 14 22 39 97 56 166 28 113 31 139 32
289 l1 165 30 33 c36 38 56 40 84 10z m-6906 -158 c40 -16 76 -27 81 -24 5 3
24 -6 42 -20 56 -42 127 -76 161 -76 20 0 43 -10 61 -25 16 -14 35 -25 43 -25
8 0 24 -8 35 -18 12 -11 48 -24 81 -31 54 -11 111 -33 198 -77 16 -8 35 -14
42 -14 8 0 21 -10 29 -22 33 -46 -20 -72 -194 -91 -244 -28 -347 -30 -409 -8
-30 10 -59 28 -65 39 -6 11 -32 39 -58 62 -27 23 -48 46 -48 52 0 13 -103 168
-112 168 -9 0 -48 74 -48 91 0 23 33 49 61 49 15 0 60 -13 100 -30z m6009 10
c11 -11 20 -25 20 -32 0 -6 6 -19 13 -27 41 -49 71 -352 48 -496 -40 -266 -36
-258 -171 -286 -52 -11 -104 -17 -115 -15 -12 3 -34 -1 -50 -10 -16 -8 -36
-14 -44 -12 -15 2 -94 -6 -172 -18 -26 -4 -41 -1 -53 11 -18 19 -15 42 19 125
13 30 26 78 30 105 4 28 15 77 25 110 11 33 22 102 25 153 4 52 10 105 16 119
5 13 6 30 2 36 -4 6 -6 45 -5 87 2 69 5 77 32 103 58 52 99 27 113 -68 12 -77
30 -280 33 -375 6 -180 12 -281 17 -286 5 -5 39 77 56 136 17 60 41 206 41
254 0 25 5 48 11 52 8 5 10 37 4 113 -12 175 -13 170 28 208 43 39 50 40 77
13z m-617 -78 c10 -11 20 -51 27 -102 31 -263 41 -405 38 -532 l-3 -139 -41
-39 c-36 -33 -49 -39 -105 -45 -100 -11 -123 -5 -127 29 -2 15 6 56 18 90 67
193 71 211 61 238 -5 13 -5 46 0 76 5 32 4 63 -2 78 -5 14 -6 31 -2 37 5 7 10
75 13 152 l5 140 35 17 c44 23 63 23 83 0z m-298 -44 c23 -20 28 -36 40 -128
14 -113 21 -656 7 -676 -16 -24 -73 -44 -158 -54 -49 -6 -96 -13 -105 -16 -9
-2 -26 4 -38 13 -19 16 -20 20 -6 43 33 58 74 147 80 175 4 17 12 46 20 65 20
55 36 147 42 250 5 77 3 102 -11 127 -20 40 -21 77 -1 93 8 7 15 27 15 45 0
41 34 85 65 85 13 0 36 -10 50 -22z m-315 -54 c46 -45 45 -774 -1 -818 -19
-19 -95 -43 -157 -52 -58 -7 -92 7 -93 39 0 22 -1 22 -10 2 -13 -27 -80 -60
-151 -75 -65 -13 -94 -8 -101 19 -4 16 28 120 62 206 30 73 66 384 61 528 -1
64 16 102 53 116 26 10 65 -5 71 -28 12 -38 18 -170 16 -366 0 -115 -1 -223
-1 -240 1 -16 1 -50 1 -73 -1 -51 13 -49 31 6 7 20 24 64 40 97 50 110 52 121
56 350 2 121 3 229 3 241 0 12 11 33 25 49 21 21 31 26 53 20 15 -3 34 -13 42
-21z m-596 -50 c22 -8 59 -128 52 -168 -3 -17 0 -54 8 -81 27 -94 15 -382 -23
-520 -21 -79 -36 -95 -121 -124 -93 -32 -135 -36 -158 -13 -11 11 -24 16 -29
12 -20 -19 -212 -72 -238 -66 -39 10 -41 29 -11 116 14 42 26 88 26 101 0 12
12 61 27 108 29 95 33 130 21 211 -15 98 -16 124 -6 158 7 24 7 41 -2 62 -10
24 -9 35 6 67 23 46 66 73 91 57 25 -15 52 -73 53 -112 0 -18 5 -43 12 -55 14
-26 28 -196 32 -382 3 -130 11 -195 25 -195 10 0 65 123 85 190 9 30 21 87 27
125 6 39 15 93 19 120 5 28 9 111 9 185 1 74 4 146 8 159 4 18 40 44 70 51 1
0 8 -3 17 -6z m-625 -129 c5 -6 17 -62 25 -125 8 -64 20 -128 25 -144 6 -15
11 -108 12 -209 1 -100 4 -193 8 -207 10 -35 -16 -121 -44 -146 -24 -22 -118
-44 -189 -44 -29 0 -39 4 -43 20 -7 26 -11 25 -34 -4 -23 -29 -79 -41 -124
-26 -50 17 -69 64 -59 149 8 71 7 397 -2 551 l-5 95 31 33 c59 61 109 31 130
-78 7 -36 12 -85 12 -110 -1 -25 3 -58 8 -75 8 -27 32 -302 35 -415 2 -64 4
-72 13 -66 12 7 40 137 53 251 15 131 28 515 17 537 -6 12 -3 18 10 20 33 7
111 3 121 -7z m-585 -138 c33 -33 49 -134 47 -302 0 -77 3 -174 8 -215 11 -99
0 -134 -50 -167 -39 -26 -41 -26 -109 -14 -38 7 -74 19 -81 27 -16 20 2 156
41 314 6 25 12 106 12 180 1 141 11 184 45 193 40 10 65 6 87 -16z m-298 -48
c7 -5 12 -31 12 -57 0 -26 5 -85 11 -132 18 -134 28 -260 27 -325 -1 -58 -2
-61 -36 -79 -39 -21 -91 -17 -125 8 -17 12 -18 28 -15 207 2 107 4 223 4 259
1 56 5 70 30 103 25 32 33 37 55 32 14 -4 31 -11 37 -16z m-250 -83 c27 -43
45 -141 38 -216 -5 -45 -3 -79 5 -98 15 -36 0 -101 -27 -118 -47 -30 -156 -22
-169 11 -8 23 15 266 32 331 16 61 56 114 87 114 9 0 25 -11 34 -24z m-287
-87 c30 -18 33 -23 27 -52 -4 -18 -9 -67 -13 -109 -7 -87 -25 -118 -71 -118
-54 0 -63 21 -66 151 l-3 90 34 29 c40 36 48 36 92 9z m-814 -30 c19 -18 20
-35 23 -272 l4 -253 -25 -30 c-13 -16 -50 -47 -82 -68 -68 -48 -91 -42 -89 20
5 155 18 284 32 317 14 34 14 50 4 121 -17 113 -15 150 6 168 36 32 93 31 127
-3z m-253 -17 c16 -27 24 -105 37 -355 3 -70 3 -136 -1 -145 -4 -9 -7 -42 -7
-72 -2 -114 -32 -166 -126 -221 -52 -30 -71 -34 -93 -21 -18 12 10 159 59 312
20 63 28 152 29 325 2 167 5 182 38 199 32 17 44 13 64 -22z m497 22 c15 -11
21 -23 18 -35 -3 -11 -1 -83 4 -160 9 -135 8 -142 -12 -175 -25 -40 -99 -87
-131 -82 -19 2 -24 11 -30 52 -4 27 -2 60 4 75 5 14 10 80 10 146 0 85 4 128
15 148 23 45 80 60 122 31z m-1126 -5 c38 -20 67 -87 67 -155 0 -22 4 -65 10
-95 7 -43 23 -267 22 -314 -2 -73 -25 -253 -34 -273 -7 -15 -28 -36 -45 -48
-59 -40 -176 -43 -188 -5 -3 10 2 65 11 122 8 57 16 145 17 194 1 50 6 97 12
105 5 8 9 51 10 95 0 44 6 110 13 147 7 37 13 94 14 127 2 67 3 70 38 94 29
20 26 20 53 6z m278 0 c11 -5 25 -22 30 -37 11 -28 35 -166 48 -282 5 -36 13
-83 19 -105 11 -41 8 -281 -4 -363 -9 -55 -31 -70 -120 -83 -37 -5 -77 -12
-89 -15 -37 -9 -49 18 -47 114 0 48 6 112 12 142 6 30 13 74 15 98 2 23 9 58
15 77 6 19 13 83 15 142 1 60 6 124 9 143 3 19 8 54 10 76 5 48 19 79 44 93
21 13 20 13 43 0z m1116 -26 c10 -25 14 -56 11 -92 -4 -47 -10 -59 -41 -88
-24 -22 -47 -33 -66 -33 -28 0 -29 2 -34 58 -4 50 -4 112 1 149 2 15 58 41 90
42 17 1 27 -8 39 -36z m90 -433 c39 -23 186 -65 263 -75 30 -4 89 -16 130 -27
41 -11 93 -21 115 -23 22 -2 60 -11 84 -19 24 -9 60 -16 80 -16 20 0 54 -5 76
-10 55 -12 304 -47 395 -56 41 -3 93 -12 116 -19 22 -7 54 -10 70 -8 35 4 383
-31 439 -45 22 -6 119 -15 216 -21 97 -6 200 -15 230 -20 30 -5 65 -7 79 -4
14 2 68 -3 120 -12 52 -9 120 -20 152 -25 31 -4 61 -11 67 -15 7 -3 42 -11 78
-16 37 -5 71 -14 77 -19 7 -5 34 -16 61 -26 60 -20 184 -82 241 -121 23 -15
59 -40 80 -54 21 -15 48 -36 58 -48 11 -11 25 -21 32 -21 8 0 41 -28 74 -61
63 -65 82 -110 62 -153 -5 -13 -45 -54 -88 -92 -42 -38 -96 -87 -119 -109 -44
-42 -82 -71 -229 -180 -49 -36 -101 -77 -115 -91 -14 -15 -48 -41 -76 -59 -50
-32 -116 -88 -277 -237 -48 -44 -98 -88 -110 -96 -13 -9 -27 -21 -33 -27 -23
-27 -175 -154 -197 -165 -29 -15 -119 -83 -174 -130 -23 -19 -81 -63 -130 -98
-99 -70 -169 -123 -198 -148 -11 -10 -51 -39 -90 -65 -39 -27 -96 -72 -126
-100 -30 -28 -77 -66 -105 -84 -27 -18 -72 -51 -100 -74 -27 -22 -74 -57 -104
-78 -29 -21 -89 -65 -132 -98 -43 -33 -108 -80 -144 -105 -36 -25 -136 -104
-223 -175 -86 -72 -173 -142 -192 -155 -19 -14 -81 -61 -136 -105 -56 -44
-132 -100 -169 -125 -36 -25 -83 -59 -103 -75 -21 -17 -59 -46 -87 -65 -27
-18 -54 -40 -58 -47 -4 -7 -14 -13 -22 -13 -8 0 -52 -28 -99 -62 -178 -131
-227 -163 -244 -161 -9 1 -28 16 -42 33 -75 94 -144 159 -196 184 -30 15 -58
34 -61 42 -3 8 -12 14 -20 14 -9 0 -34 8 -57 19 -23 10 -68 29 -101 41 -33 13
-67 29 -76 36 -8 8 -20 14 -26 14 -6 0 -37 12 -69 26 -67 29 -191 69 -246 78
-21 4 -38 10 -38 15 0 18 -133 61 -188 61 -15 0 -40 9 -57 20 -16 11 -38 20
-48 20 -10 0 -32 8 -50 17 -18 10 -45 19 -62 20 -54 3 -169 30 -230 53 -33 12
-91 28 -130 35 -90 17 -142 30 -180 44 -80 29 -172 51 -216 51 -27 0 -57 4
-67 9 -26 14 -107 37 -212 60 -52 12 -110 26 -128 32 -19 6 -36 9 -38 6 -3 -3
-27 3 -54 13 -27 10 -73 21 -102 25 -29 4 -80 16 -113 27 -32 11 -70 17 -83
15 -29 -6 -149 18 -167 33 -7 6 -28 13 -46 15 -104 12 -169 41 -169 73 1 23
97 122 120 122 10 0 20 6 23 14 3 8 33 33 65 55 33 22 69 52 81 66 11 15 42
37 70 50 27 13 71 44 98 69 60 56 123 106 134 106 4 0 19 10 33 23 38 34 67
55 120 89 27 17 63 46 80 64 17 17 48 39 68 47 21 9 54 32 74 51 21 20 42 36
49 36 7 0 26 12 42 28 17 15 61 50 98 77 37 28 75 58 84 68 9 9 30 33 48 52
18 19 39 35 47 35 9 0 22 13 30 29 9 16 36 41 61 55 44 26 100 71 134 109 8 9
20 17 25 17 9 0 72 51 116 94 34 34 84 66 154 99 32 16 86 54 120 85 77 71
302 242 317 242 4 0 9 9 12 20 3 11 14 20 25 20 11 0 26 7 33 17 26 30 247
201 325 251 28 18 56 43 62 57 6 13 26 32 44 41 31 15 137 90 148 104 3 4 31
20 63 36 33 16 75 45 95 64 33 32 97 80 107 80 3 0 44 30 92 67 401 306 395
303 460 263z m4282 -952 c14 -7 44 -10 66 -9 22 1 67 -5 100 -15 33 -9 89 -20
125 -25 36 -5 86 -18 112 -29 26 -11 56 -20 67 -20 29 0 163 -43 311 -99 30
-12 62 -21 70 -21 8 0 36 -11 62 -25 26 -14 59 -25 74 -25 15 0 35 -6 43 -14
18 -15 149 -64 195 -73 17 -3 50 -19 75 -34 25 -16 52 -29 61 -29 9 0 20 -4
25 -9 6 -5 28 -14 50 -20 35 -11 68 -25 198 -87 16 -8 34 -14 41 -14 7 0 44
-20 82 -45 64 -42 94 -55 166 -70 14 -3 39 -15 55 -28 15 -12 53 -33 83 -46
64 -27 194 -88 301 -143 42 -21 83 -38 90 -38 8 0 25 -6 39 -13 14 -7 45 -19
70 -26 25 -7 57 -18 71 -23 15 -5 39 -11 54 -12 15 -2 39 -12 53 -23 15 -10
53 -25 84 -32 82 -18 168 -88 168 -136 0 -30 -6 -37 -57 -69 -32 -20 -63 -36
-69 -36 -7 0 -31 -17 -53 -37 -57 -53 -127 -103 -146 -103 -8 0 -25 -10 -37
-22 -34 -34 -122 -104 -149 -118 -13 -7 -37 -25 -54 -41 -74 -68 -87 -80 -114
-94 -16 -8 -31 -21 -34 -29 -3 -8 -37 -35 -75 -60 -38 -24 -89 -63 -113 -85
-23 -23 -51 -41 -61 -41 -10 0 -25 -11 -34 -25 -9 -14 -24 -25 -33 -25 -9 0
-41 -23 -71 -51 -30 -27 -67 -56 -81 -64 -15 -8 -48 -38 -74 -67 -25 -28 -55
-57 -65 -62 -47 -28 -140 -113 -140 -128 0 -11 -8 -18 -19 -18 -10 0 -35 -11
-55 -25 -20 -14 -40 -25 -43 -25 -3 0 -32 -25 -64 -55 -32 -30 -64 -55 -72
-55 -8 0 -17 -7 -20 -15 -4 -8 -24 -23 -45 -34 -22 -11 -42 -26 -45 -34 -3 -8
-30 -30 -61 -51 -30 -20 -58 -41 -61 -46 -4 -6 -30 -25 -58 -44 -29 -18 -64
-44 -78 -57 -14 -13 -48 -40 -75 -59 -57 -40 -58 -41 -103 -77 -19 -16 -49
-37 -67 -48 -70 -44 -111 -75 -143 -109 -19 -20 -39 -36 -43 -36 -4 0 -36 -23
-70 -51 -35 -28 -79 -59 -98 -69 -19 -10 -42 -28 -50 -40 -17 -24 -123 -110
-137 -110 -5 0 -38 -27 -73 -60 -36 -33 -81 -67 -100 -76 -19 -9 -46 -30 -58
-46 -13 -16 -46 -40 -72 -53 -60 -31 -106 -62 -148 -102 -18 -17 -57 -45 -87
-62 -30 -17 -55 -35 -55 -40 0 -4 -16 -16 -35 -27 -19 -10 -35 -21 -35 -25 0
-10 -87 -69 -102 -69 -14 0 -82 -46 -162 -109 -21 -17 -45 -31 -54 -31 -16 0
-117 -65 -157 -101 -21 -18 -126 -58 -155 -59 -8 0 -74 29 -146 65 -73 36
-134 65 -137 65 -7 0 -167 74 -219 101 -20 10 -51 19 -68 19 -17 0 -54 14 -83
30 -30 17 -63 30 -75 30 -23 0 -50 11 -187 75 -49 24 -115 51 -145 60 -30 10
-80 26 -110 36 -30 9 -69 20 -87 24 -17 3 -37 13 -44 21 -6 8 -17 14 -23 14
-7 0 -34 11 -62 25 -27 13 -65 26 -85 28 -19 2 -55 13 -80 24 -48 22 -147 53
-170 53 -8 0 -31 8 -51 19 -20 10 -58 21 -85 24 -26 3 -68 16 -93 30 -25 13
-79 30 -120 36 -41 7 -87 19 -102 27 -14 8 -36 14 -48 14 -11 0 -33 6 -48 14
-15 7 -52 17 -82 21 -61 8 -154 30 -172 41 -19 12 -130 33 -174 34 -23 0 -47
6 -53 14 -7 8 -33 16 -59 19 -107 11 -207 27 -264 42 -33 8 -63 13 -67 11 -4
-3 -20 2 -35 10 -16 7 -47 16 -70 18 -77 8 -191 27 -223 37 -62 20 -34 69 91
164 39 30 89 70 110 89 22 20 46 36 53 36 8 0 27 14 43 31 15 18 44 41 63 53
19 11 70 48 114 81 107 82 130 98 193 143 94 65 121 85 204 150 168 132 201
158 250 203 28 26 74 62 102 81 29 18 78 57 110 85 107 95 168 143 179 143 6
0 22 12 36 26 13 14 41 35 62 45 21 11 55 35 75 53 20 18 85 69 144 112 332
247 390 291 404 312 9 13 28 29 42 35 32 14 98 61 191 134 96 76 113 89 141
103 14 7 45 29 70 50 25 20 56 43 70 50 40 21 149 112 236 197 45 44 102 92
128 107 26 15 70 50 99 78 57 56 128 110 284 217 56 38 136 98 179 133 42 35
91 74 110 88 18 14 72 57 120 97 105 86 96 84 409 93 240 7 280 6 324 -12z
m3145 -1254 c25 -4 46 -11 46 -17 0 -5 14 -32 31 -60 18 -29 28 -58 26 -69 -9
-34 27 -118 68 -159 21 -21 42 -39 46 -39 4 0 10 -12 14 -27 3 -15 19 -46 34
-68 15 -23 31 -61 34 -86 5 -37 2 -49 -19 -76 -14 -18 -44 -43 -67 -55 -23
-11 -46 -26 -52 -33 -5 -7 -55 -50 -110 -95 -55 -45 -104 -87 -110 -94 -5 -7
-24 -20 -42 -29 -17 -9 -34 -26 -38 -37 -4 -11 -21 -26 -38 -34 -18 -7 -58
-35 -89 -62 -31 -27 -82 -69 -113 -94 -50 -40 -85 -71 -112 -101 -28 -31 -100
-89 -110 -89 -7 0 -18 -9 -25 -20 -7 -11 -17 -20 -22 -20 -5 0 -31 -18 -57
-40 -26 -22 -52 -40 -58 -40 -6 0 -25 -15 -43 -33 -18 -18 -49 -43 -70 -55
-20 -12 -39 -29 -42 -37 -3 -8 -15 -15 -26 -15 -13 0 -59 -34 -111 -80 -49
-44 -93 -80 -99 -80 -5 0 -19 -8 -29 -17 -35 -32 -50 -43 -58 -43 -5 0 -35
-27 -66 -60 -32 -33 -64 -60 -71 -60 -8 0 -20 -7 -27 -17 -20 -24 -146 -123
-157 -123 -5 0 -34 -25 -63 -56 -30 -30 -73 -68 -96 -83 -53 -36 -104 -76
-153 -123 -22 -21 -44 -38 -50 -38 -5 0 -54 -40 -107 -88 -54 -49 -118 -102
-143 -117 -25 -16 -57 -41 -72 -57 -14 -15 -33 -28 -41 -28 -8 0 -20 -13 -26
-30 -5 -16 -17 -30 -25 -30 -8 0 -27 -10 -43 -23 -15 -12 -46 -31 -67 -42 -22
-11 -66 -46 -98 -77 -32 -32 -60 -58 -62 -58 -8 0 -182 -112 -201 -130 -11
-10 -42 -39 -70 -65 -27 -26 -67 -58 -88 -72 -37 -23 -77 -58 -176 -150 -25
-24 -51 -43 -58 -43 -7 0 -17 -9 -23 -20 -6 -11 -16 -20 -22 -20 -14 0 -119
-81 -166 -127 -18 -18 -37 -33 -42 -33 -6 0 -10 -6 -10 -13 0 -7 -37 -37 -81
-67 -45 -29 -97 -68 -115 -87 -18 -18 -37 -33 -42 -33 -5 0 -17 -9 -27 -20
-10 -11 -24 -20 -32 -20 -7 0 -13 -4 -13 -10 0 -5 -19 -10 -42 -10 -38 0 -47
5 -75 40 -18 21 -33 42 -33 45 0 4 -19 29 -41 57 -36 42 -40 52 -31 71 15 30
136 164 183 202 21 16 38 34 38 39 1 16 44 56 59 56 8 0 46 32 85 71 38 40 87
81 108 93 21 12 74 55 117 97 43 42 92 83 108 92 16 8 40 27 54 42 26 28 -124
-68 -166 -106 -11 -10 -24 -19 -28 -19 -8 0 -76 -53 -110 -85 -42 -42 -113
-95 -125 -95 -7 0 -30 -18 -52 -40 -22 -22 -43 -40 -47 -40 -4 0 -27 -19 -52
-42 -25 -23 -53 -47 -62 -53 -34 -20 -104 -69 -128 -91 -38 -32 -58 -36 -80
-14 -38 38 -36 67 7 118 22 26 60 62 84 80 24 18 77 63 117 100 41 36 84 73
97 82 49 32 142 107 185 147 25 24 50 43 57 43 7 0 45 28 86 63 41 34 100 80
132 102 32 22 84 63 116 90 31 28 78 68 104 89 39 33 44 41 31 48 -17 9 -22 6
-124 -78 -20 -17 -75 -57 -122 -89 -47 -32 -89 -64 -93 -72 -4 -7 -29 -24 -55
-37 -26 -13 -57 -36 -69 -50 -13 -14 -27 -26 -33 -26 -5 0 -10 -7 -10 -15 0
-8 -16 -19 -37 -24 -21 -6 -59 -31 -85 -56 -27 -25 -56 -45 -65 -45 -10 0 -31
-16 -46 -35 -15 -19 -34 -35 -42 -35 -7 0 -22 -11 -33 -25 -11 -14 -23 -25
-26 -25 -4 0 -43 -26 -86 -58 -97 -69 -164 -112 -177 -112 -12 0 -33 44 -33
69 0 22 156 185 186 195 12 3 45 29 75 57 30 27 67 57 83 66 35 18 114 78 172
131 43 38 63 53 194 147 41 29 92 67 112 85 20 17 65 49 100 72 35 22 89 62
120 89 31 27 61 49 67 49 5 0 17 10 25 23 9 12 43 40 75 62 83 57 177 129 239
183 114 100 139 120 192 156 117 79 157 110 209 163 30 31 74 64 98 75 23 10
78 49 121 86 44 37 92 75 108 84 16 10 47 32 69 48 22 17 56 42 75 55 87 62
139 102 191 147 31 26 62 48 68 48 6 0 11 6 11 14 0 7 14 19 31 26 17 7 47 29
68 49 21 20 57 49 82 66 24 16 71 55 104 86 63 60 96 88 216 179 39 30 83 65
98 78 14 13 38 29 52 37 14 8 36 30 50 49 13 20 36 38 50 41 15 4 35 15 45 27
11 11 35 28 54 38 33 17 80 51 145 104 72 59 104 85 175 138 41 31 104 83 139
117 35 34 69 61 75 61 6 0 44 32 84 70 75 73 79 74 156 64z m-11295 -698 c7
-8 31 -18 54 -21 23 -4 47 -11 52 -15 12 -10 147 -59 195 -71 200 -52 348 -84
440 -95 25 -3 54 -9 65 -14 21 -9 43 -13 165 -31 41 -6 84 -15 95 -19 11 -5
41 -11 66 -15 26 -3 64 -15 85 -25 26 -14 67 -22 129 -25 49 -3 104 -12 120
-19 83 -38 151 -58 222 -66 43 -4 126 -24 184 -43 58 -20 130 -39 160 -42 30
-4 77 -15 104 -25 28 -10 100 -30 160 -45 172 -42 205 -51 280 -78 39 -14 93
-32 120 -40 28 -9 88 -36 135 -61 47 -25 99 -52 115 -59 17 -8 36 -21 44 -30
7 -10 19 -17 27 -17 28 0 204 -175 230 -228 19 -40 13 -70 -22 -112 -20 -23
-33 -30 -49 -26 -32 8 -109 53 -140 82 -16 15 -42 31 -59 37 -17 5 -40 17 -51
27 -51 42 -85 54 -85 30 0 -4 25 -23 56 -41 79 -48 114 -78 114 -98 0 -36
-102 -104 -135 -91 -39 16 -53 12 -48 -15 6 -31 -31 -95 -88 -153 -53 -54 -77
-60 -130 -33 -23 12 -47 20 -55 17 -7 -3 -15 1 -17 8 -3 7 -38 23 -79 35 -40
12 -80 26 -89 31 -9 5 -33 12 -52 15 -20 4 -41 13 -47 20 -6 8 -30 16 -53 20
-43 6 -117 32 -198 67 -25 11 -52 18 -60 17 -15 -3 -112 17 -144 31 -11 4 -36
15 -55 23 -19 9 -66 21 -105 27 -38 7 -77 18 -85 26 -8 7 -53 24 -100 38 -90
26 -107 32 -210 65 -36 12 -79 21 -97 21 -17 0 -34 4 -38 9 -3 5 -36 17 -74
25 -84 19 -123 34 -132 48 -7 11 -99 32 -205 47 -29 4 -58 12 -65 18 -20 15
-139 53 -168 53 -14 0 -64 14 -110 30 -46 17 -98 30 -115 30 -17 0 -40 6 -51
13 -11 7 -35 14 -53 15 -19 2 -59 12 -90 23 -32 12 -73 24 -92 29 -75 16 -125
32 -135 45 -5 7 -42 15 -85 18 -65 5 -78 10 -98 33 -35 41 -25 63 53 117 39
26 76 51 83 55 7 5 14 25 16 46 2 21 8 41 13 45 10 6 22 87 29 196 5 86 11
103 42 119 35 19 96 20 111 2z m3338 -1260 c15 -8 43 -20 62 -27 19 -7 54 -30
78 -51 24 -21 48 -38 54 -38 5 0 9 -9 9 -20 0 -10 19 -38 43 -60 l42 -41 3 33
c9 90 118 116 330 79 29 -6 89 -12 133 -16 44 -3 89 -10 99 -15 9 -5 20 -7 23
-4 2 3 31 -2 63 -11 57 -16 159 -32 255 -39 45 -4 204 -50 224 -66 6 -4 39
-11 73 -14 35 -4 78 -13 95 -20 55 -23 130 -48 189 -62 31 -7 79 -27 105 -43
26 -16 67 -32 90 -36 24 -4 45 -11 49 -16 3 -5 11 -9 19 -9 8 0 31 -11 51 -25
20 -14 47 -25 59 -25 26 0 91 -25 99 -39 3 -5 17 -12 30 -15 14 -3 53 -19 88
-35 35 -16 80 -34 100 -39 21 -6 55 -24 75 -41 29 -24 47 -31 80 -31 33 0 46
-5 58 -23 8 -14 33 -28 61 -35 26 -7 58 -21 72 -32 13 -11 33 -20 43 -20 10 0
20 -4 24 -10 3 -5 31 -17 63 -27 31 -9 69 -25 84 -35 15 -10 42 -24 60 -30 18
-6 44 -19 57 -30 13 -10 28 -18 34 -18 5 0 36 -18 68 -40 32 -22 62 -40 66
-40 5 0 28 -14 52 -30 24 -17 51 -30 59 -30 9 0 25 -9 37 -20 12 -11 31 -22
41 -24 11 -2 37 -21 59 -41 22 -21 54 -43 70 -50 17 -7 37 -22 46 -32 23 -27
99 -179 99 -198 0 -9 18 -47 40 -85 22 -38 49 -88 59 -112 10 -24 27 -51 37
-60 49 -45 62 -66 68 -110 5 -35 3 -53 -9 -72 -22 -34 -39 -38 -88 -21 -23 8
-48 15 -55 15 -7 0 -28 11 -46 25 -18 14 -46 25 -62 25 -17 0 -35 5 -40 10
-13 13 -113 50 -136 50 -10 0 -49 16 -87 35 -37 19 -75 35 -84 35 -8 0 -45 16
-81 35 -37 19 -87 40 -113 45 -26 6 -82 27 -125 45 -44 19 -86 35 -94 35 -9 0
-28 6 -42 14 -96 49 -131 66 -143 66 -7 0 -20 6 -28 13 -19 15 -71 33 -124 43
-21 3 -41 13 -44 20 -3 8 -11 14 -18 14 -6 0 -20 9 -30 20 -12 13 -25 17 -44
14 -18 -4 -45 3 -77 19 -98 49 -180 85 -224 97 -25 7 -63 22 -85 35 -22 13
-56 26 -75 29 -19 3 -66 22 -105 41 -38 19 -76 35 -83 35 -7 0 -32 10 -55 23
-23 13 -58 28 -77 34 -19 6 -60 21 -90 32 -30 12 -63 21 -74 21 -10 0 -44 12
-75 26 -83 39 -92 42 -141 54 -25 7 -58 17 -75 24 -77 33 -142 56 -155 56 -20
0 -96 29 -149 57 -24 13 -52 23 -63 23 -19 0 -75 23 -163 66 -34 16 -67 24
-103 24 -29 0 -52 5 -52 10 0 6 -11 15 -25 20 -14 5 -25 15 -25 21 0 7 -11 26
-23 43 -13 17 -27 48 -31 68 -12 67 -38 60 -50 -12 -7 -42 -86 -140 -113 -140
-9 0 -39 -11 -68 -24 -28 -14 -69 -26 -91 -27 -62 -3 -194 21 -257 46 -32 13
-64 22 -71 19 -7 -3 -36 11 -65 30 -28 19 -69 38 -89 42 -20 4 -48 17 -61 30
-13 13 -30 24 -38 24 -20 0 -73 41 -73 57 0 8 -13 21 -29 30 -20 12 -34 33
-46 70 -25 72 -22 106 14 162 17 26 31 53 31 59 0 18 92 86 195 143 67 37 296
53 352 25z"/>
<path d="M8397 8974 c-10 -11 -9 -94 2 -94 12 0 24 81 13 92 -4 4 -11 5 -15 2z"/>
<path d="M8387 8834 c-4 -4 -7 -14 -7 -23 0 -11 3 -12 11 -4 6 6 10 16 7 23
-2 6 -7 8 -11 4z"/>
<path d="M1726 9059 c9 -14 131 -69 154 -69 23 0 76 -24 102 -47 9 -8 22 -13
29 -11 7 2 0 12 -17 24 -57 39 -282 126 -268 103z"/>
<path d="M2050 8936 c0 -2 7 -7 16 -10 8 -3 12 -2 9 4 -6 10 -25 14 -25 6z"/>
<path d="M2150 8890 c0 -13 54 -40 87 -42 15 -1 33 -8 38 -14 12 -14 69 -29
61 -16 -3 5 -24 16 -48 26 -24 10 -62 26 -86 37 -49 22 -52 22 -52 9z"/>
<path d="M2379 8787 c12 -16 148 -72 226 -94 20 -6 20 -6 1 16 -23 25 -55 40
-149 70 -80 25 -94 26 -78 8z"/>
<path d="M1819 8760 c13 -11 35 -20 50 -20 23 1 24 2 8 11 -10 6 -33 15 -50
20 l-32 8 24 -19z"/>
<path d="M2660 8673 c0 -14 223 -123 251 -123 15 0 10 28 -8 45 -11 12 -25 15
-48 11 -22 -4 -36 -2 -44 8 -25 30 -151 79 -151 59z"/>
<path d="M2210 8590 c20 -13 43 -13 35 0 -3 6 -16 10 -28 10 -18 0 -19 -2 -7
-10z"/>
<path d="M2950 8552 c0 -15 38 -44 54 -40 12 2 12 6 3 19 -14 19 -57 35 -57
21z"/>
<path d="M2336 8535 c10 -8 24 -14 29 -14 6 0 1 6 -9 14 -11 8 -24 15 -30 15
-5 0 -1 -7 10 -15z"/>
<path d="M3065 8500 c3 -5 8 -10 11 -10 2 0 4 5 4 10 0 6 -5 10 -11 10 -5 0
-7 -4 -4 -10z"/>
<path d="M3120 8477 c0 -12 187 -97 213 -97 7 0 35 -15 63 -34 29 -18 88 -45
133 -60 93 -30 91 -29 91 -17 0 16 -65 50 -118 62 -29 6 -58 16 -65 23 -6 7
-37 21 -67 31 -30 10 -83 31 -118 46 -35 16 -69 29 -76 29 -8 0 -19 7 -26 15
-15 18 -30 19 -30 2z"/>
<path d="M2530 8460 c8 -5 20 -10 25 -10 6 0 3 5 -5 10 -8 5 -19 10 -25 10 -5
0 -3 -5 5 -10z"/>
<path d="M2600 8431 c0 -14 65 -41 97 -40 l28 1 -30 7 c-16 4 -45 15 -62 25
-18 9 -33 12 -33 7z"/>
<path d="M2828 8324 c23 -16 102 -32 102 -21 0 13 -60 37 -92 37 l-32 0 22
-16z"/>
<path d="M3080 8231 c41 -24 60 -27 40 -7 -8 8 -28 17 -45 21 l-30 6 35 -20z"/>
<path d="M3248 8158 c7 -9 36 -22 65 -28 29 -7 93 -32 143 -56 50 -24 94 -44
98 -44 3 0 34 -13 68 -29 69 -32 132 -51 163 -50 14 0 7 7 -20 20 -22 10 -46
19 -54 19 -7 0 -55 18 -105 39 -147 64 -219 92 -246 98 -14 3 -32 12 -41 19
-8 8 -31 17 -50 21 -30 6 -33 5 -21 -9z"/>
<path d="M3839 7920 c13 -11 31 -20 40 -20 9 0 34 -12 56 -25 42 -26 90 -34
83 -14 -3 9 -178 78 -198 78 -3 0 6 -9 19 -19z"/>
<path d="M4074 7825 c11 -8 24 -15 30 -15 5 0 1 7 -10 15 -10 8 -23 14 -29 14
-5 0 -1 -6 9 -14z"/>
<path d="M4154 7785 c11 -8 31 -15 45 -15 25 1 25 1 7 15 -11 8 -31 15 -45 15
-25 -1 -25 -1 -7 -15z"/>
<path d="M3630 7770 c0 -5 7 -10 16 -10 8 0 12 5 9 10 -3 6 -10 10 -16 10 -5
0 -9 -4 -9 -10z"/>
<path d="M5043 7365 c0 -27 2 -38 4 -22 2 15 2 37 0 50 -2 12 -4 0 -4 -28z"/>
<path d="M4690 6140 c-25 -16 6 -34 95 -55 44 -10 103 -26 130 -36 56 -20 150
-37 270 -49 44 -4 100 -12 125 -18 83 -21 247 -35 332 -30 51 3 92 1 104 -5
10 -6 30 -11 44 -12 125 -9 255 -26 410 -56 30 -6 95 -17 144 -25 49 -8 126
-24 170 -35 45 -10 143 -28 220 -39 76 -11 144 -25 152 -31 7 -5 50 -16 96
-24 46 -7 94 -18 108 -24 14 -6 57 -17 95 -25 110 -22 177 -43 208 -66 39 -30
89 -36 110 -15 9 9 17 20 17 25 0 20 -327 150 -376 150 -8 0 -40 9 -71 20 -32
10 -89 24 -128 30 -38 6 -107 22 -152 36 -46 13 -102 27 -126 29 -24 2 -84 9
-133 15 -49 6 -126 15 -171 20 -46 5 -89 12 -95 17 -21 12 -116 24 -230 28
-60 2 -163 12 -230 24 -68 11 -220 29 -338 41 -235 23 -360 41 -490 70 -236
52 -265 56 -290 40z"/>
<path d="M4422 5948 c-21 -21 -14 -26 61 -42 39 -9 95 -22 122 -30 28 -8 79
-20 115 -26 71 -12 223 -41 340 -65 41 -8 129 -19 196 -25 67 -5 148 -16 180
-25 32 -8 76 -15 99 -15 43 0 259 -35 274 -45 5 -3 70 -7 144 -9 74 -2 168
-11 208 -20 193 -41 268 -56 309 -60 25 -2 65 -14 90 -25 25 -11 63 -21 86
-21 22 0 44 -4 50 -10 5 -5 38 -17 74 -26 36 -9 85 -24 110 -33 25 -10 61 -24
80 -31 162 -58 217 -78 232 -85 20 -8 81 31 75 48 -3 11 -75 40 -182 73 -27 9
-61 22 -75 29 -47 25 -129 55 -148 55 -11 0 -45 11 -76 25 -31 14 -94 32 -139
40 -45 8 -98 19 -117 24 -19 6 -60 17 -90 26 -30 8 -102 19 -160 24 -58 5
-136 17 -174 25 -38 9 -72 14 -75 11 -4 -2 -56 3 -116 11 -170 24 -380 45
-486 49 -53 2 -131 9 -175 16 -43 7 -97 13 -119 14 -22 2 -60 8 -85 14 -25 6
-65 11 -90 11 -25 1 -63 7 -85 15 -22 8 -71 18 -110 21 -68 5 -122 18 -237 55
-67 22 -90 23 -106 7z"/>
<path d="M4182 5778 c-22 -22 -12 -37 31 -49 23 -6 75 -22 115 -35 40 -13 92
-24 116 -24 25 0 48 -4 51 -10 3 -5 15 -10 26 -10 11 0 44 -8 73 -19 30 -10
96 -26 147 -35 108 -19 234 -46 364 -77 50 -12 110 -23 135 -24 87 -4 185 -18
219 -31 18 -8 48 -14 65 -14 17 0 67 -7 111 -15 44 -8 103 -18 130 -21 92 -10
458 -71 500 -84 17 -5 57 -13 90 -19 33 -5 96 -23 140 -40 44 -17 89 -31 100
-31 27 0 101 -21 205 -59 100 -37 168 -41 195 -11 10 11 16 22 14 24 -16 15
-88 46 -106 46 -12 0 -25 5 -28 10 -3 6 -16 10 -27 10 -31 0 -145 38 -198 65
-14 7 -54 18 -89 25 -34 6 -75 16 -89 21 -41 16 -159 45 -237 58 -145 24 -184
31 -320 51 -77 11 -160 25 -185 31 -25 6 -108 15 -185 20 -144 9 -334 37 -440
66 -82 21 -149 31 -218 32 -36 1 -74 9 -99 21 -23 11 -51 17 -64 14 -12 -3
-53 3 -91 14 -37 11 -102 28 -143 36 -86 19 -117 27 -217 56 -84 24 -76 23
-91 8z"/>
<path d="M3920 5581 c0 -17 30 -41 58 -47 15 -3 42 -12 60 -20 18 -8 40 -14
49 -14 17 0 48 -9 148 -43 59 -20 185 -47 315 -68 36 -5 83 -14 105 -20 22 -5
94 -18 160 -29 66 -11 143 -25 170 -31 28 -5 81 -14 119 -19 39 -5 81 -13 95
-19 27 -9 155 -30 181 -29 23 1 266 -42 350 -62 41 -10 109 -23 150 -29 41 -6
100 -16 130 -22 30 -6 83 -15 117 -20 35 -4 71 -13 81 -18 10 -5 56 -17 103
-27 46 -9 95 -25 108 -35 13 -11 32 -19 43 -19 10 0 36 -9 58 -20 22 -11 47
-20 57 -20 10 0 27 -6 38 -14 41 -28 65 -29 91 -5 13 12 24 29 24 36 0 17 -63
45 -83 37 -8 -3 -37 4 -64 15 -48 20 -142 47 -218 62 -22 4 -68 15 -102 23
-140 35 -191 47 -243 56 -61 11 -135 27 -255 58 -44 11 -129 25 -190 32 -60 6
-141 20 -180 30 -38 10 -104 23 -145 30 -41 6 -91 16 -111 21 -20 5 -58 9 -85
9 -55 0 -217 24 -267 38 -60 18 -182 41 -287 53 -58 7 -121 18 -142 25 -20 7
-38 11 -40 8 -2 -2 -29 6 -59 17 -30 11 -63 22 -74 23 -37 5 -130 27 -150 36
-66 28 -115 37 -115 21z"/>
<path d="M3683 5409 c-7 -7 -13 -16 -13 -20 0 -17 216 -91 265 -90 10 0 24 -4
31 -10 20 -16 151 -49 196 -49 24 0 66 -9 93 -19 75 -28 257 -64 585 -116 162
-26 333 -55 380 -65 47 -10 119 -24 160 -30 41 -7 89 -18 105 -25 17 -8 70
-19 118 -25 49 -6 103 -17 120 -25 49 -22 197 -65 222 -65 20 0 48 -10 140
-50 11 -5 36 -11 56 -15 20 -3 54 -19 74 -35 21 -17 46 -30 55 -30 10 0 29 -9
43 -20 45 -36 107 -20 107 28 0 11 -92 62 -111 62 -17 0 -157 68 -164 80 -3 6
-18 10 -33 10 -15 0 -36 7 -46 15 -11 8 -28 15 -38 15 -10 0 -74 16 -141 36
-67 20 -142 37 -167 39 -74 6 -118 14 -163 31 -23 9 -67 20 -97 25 -30 6 -77
15 -105 21 -27 6 -95 14 -150 18 -55 3 -106 10 -113 14 -23 14 -169 39 -387
66 -49 6 -103 16 -120 23 -16 6 -46 12 -65 12 -19 1 -67 9 -107 17 -39 9 -105
20 -145 24 -40 4 -102 16 -138 26 -116 34 -244 69 -281 77 -20 4 -50 18 -67
30 -39 27 -83 36 -99 20z"/>
<path d="M3454 5238 c-12 -20 29 -42 122 -66 49 -13 121 -32 159 -42 125 -35
259 -69 320 -80 33 -7 121 -27 195 -45 74 -19 171 -37 215 -41 44 -3 96 -14
115 -24 44 -23 169 -56 283 -75 49 -8 127 -26 173 -40 47 -14 99 -27 117 -29
57 -6 131 -24 207 -51 41 -14 112 -35 158 -45 46 -11 88 -22 93 -26 29 -18
238 -84 265 -84 33 0 140 -48 183 -81 37 -29 111 -21 111 12 0 3 -26 24 -57
46 -51 34 -115 62 -163 68 -8 1 -26 7 -40 12 -14 6 -54 20 -90 33 -36 12 -74
26 -85 31 -19 8 -87 26 -205 53 -31 7 -69 20 -85 28 -17 9 -77 21 -135 28 -58
7 -112 18 -120 25 -8 7 -51 20 -95 30 -44 9 -91 21 -105 25 -14 4 -61 15 -105
24 -44 9 -109 24 -145 32 -130 31 -246 54 -290 57 -25 1 -54 8 -65 14 -11 6
-38 13 -60 17 -22 4 -51 11 -65 16 -14 5 -79 16 -144 25 -66 8 -133 19 -150
24 -17 5 -49 14 -71 20 -22 6 -89 25 -150 42 -60 16 -130 34 -154 39 -24 6
-57 17 -74 25 -36 18 -53 19 -63 3z"/>
<path d="M3168 5034 c-51 -27 -38 -37 87 -60 44 -9 107 -26 141 -40 33 -13 67
-24 74 -24 23 0 260 -59 360 -90 52 -16 109 -28 125 -28 28 1 143 -27 275 -67
30 -9 89 -22 130 -29 41 -6 89 -19 105 -28 17 -10 69 -22 117 -28 50 -7 92
-18 99 -26 7 -9 31 -14 64 -14 28 0 65 -4 81 -9 16 -5 74 -19 129 -31 55 -12
118 -31 140 -40 22 -10 79 -23 126 -29 47 -5 103 -17 125 -25 21 -8 84 -27
139 -41 133 -36 198 -56 210 -66 6 -4 33 -10 60 -14 28 -3 64 -14 82 -23 24
-12 39 -14 59 -7 36 13 36 27 -1 38 -33 10 -139 46 -195 67 -19 7 -57 18 -85
26 -27 8 -59 18 -70 23 -50 23 -134 51 -180 61 -55 12 -250 75 -277 90 -10 6
-38 10 -64 10 -25 0 -55 5 -67 12 -30 16 -171 55 -287 78 -52 11 -114 24 -138
30 -23 5 -67 10 -97 10 -31 0 -71 6 -89 14 -18 7 -57 17 -87 21 -30 3 -67 11
-84 16 -16 5 -55 11 -85 13 -94 8 -188 23 -238 39 -26 9 -67 20 -92 25 -128
28 -260 65 -260 73 0 5 -17 9 -37 9 -32 0 -69 10 -213 59 -14 5 -32 11 -40 14
-8 4 -27 0 -42 -9z"/>
<path d="M2885 4830 c-21 -24 -12 -40 23 -40 35 0 147 -26 247 -57 44 -14 111
-29 150 -34 76 -10 167 -30 175 -39 9 -11 183 -50 235 -53 28 -2 60 -9 72 -15
12 -7 39 -12 60 -12 21 -1 49 -7 63 -15 14 -8 40 -14 58 -15 18 0 46 -7 63
-15 27 -15 200 -51 279 -59 20 -2 47 -9 60 -17 14 -7 34 -14 45 -15 42 -3 159
-25 174 -33 9 -5 39 -11 68 -15 29 -4 82 -18 119 -32 37 -13 87 -25 113 -26
26 0 102 -20 176 -45 71 -24 170 -55 220 -69 49 -14 103 -31 119 -39 16 -8 35
-15 41 -15 14 0 112 -44 137 -62 13 -9 20 -9 32 2 15 12 15 15 -5 37 -13 13
-48 31 -78 40 -31 10 -67 25 -81 34 -14 9 -63 26 -110 39 -47 12 -103 30 -125
41 -54 25 -175 59 -213 59 -17 0 -66 12 -109 26 -78 25 -129 38 -213 54 -53 9
-159 33 -250 56 -73 18 -108 24 -265 48 -60 9 -139 26 -175 36 -80 23 -211 52
-265 57 -56 6 -206 40 -298 69 -43 13 -111 29 -150 34 -40 6 -85 17 -102 24
-30 14 -198 68 -246 80 -19 4 -31 0 -44 -14z"/>
<path d="M2637 4624 c-16 -15 -25 -30 -20 -33 4 -4 51 -17 103 -28 100 -23
209 -48 273 -64 22 -5 53 -7 71 -4 21 4 48 -1 81 -15 28 -12 79 -26 115 -32
36 -6 79 -12 95 -15 17 -3 50 -6 75 -6 25 -1 50 -5 56 -9 6 -4 33 -10 60 -12
27 -3 79 -14 114 -25 36 -11 94 -23 130 -27 36 -4 73 -11 83 -16 10 -5 59 -15
110 -23 51 -8 113 -21 138 -29 24 -8 67 -17 94 -21 28 -4 70 -13 95 -20 25 -7
66 -16 91 -20 25 -3 77 -17 115 -30 38 -14 85 -25 104 -25 35 0 128 -28 185
-55 17 -8 62 -22 100 -31 39 -9 91 -27 117 -39 25 -12 59 -26 74 -29 43 -11
185 -83 207 -105 18 -18 55 -13 78 10 29 29 16 39 -91 75 -47 15 -107 38 -135
49 -123 54 -153 64 -198 69 -27 3 -77 19 -111 35 -34 17 -91 35 -127 40 -66
11 -126 28 -144 41 -5 4 -23 10 -40 13 -30 6 -143 29 -225 46 -25 5 -94 21
-155 36 -60 14 -135 30 -165 35 -260 44 -321 55 -385 70 -67 15 -152 27 -255
36 -47 4 -89 10 -95 14 -5 4 -28 13 -50 20 -22 7 -44 16 -50 20 -10 7 -141 22
-217 24 -20 1 -45 10 -57 20 -11 10 -34 21 -53 26 -28 7 -92 30 -148 54 -9 4
-26 -4 -43 -20z"/>
<path d="M2393 4433 c-29 -11 -9 -29 55 -50 37 -12 94 -25 127 -29 33 -3 83
-15 110 -25 28 -11 62 -19 77 -19 15 0 39 -5 55 -11 15 -6 73 -20 128 -30 91
-17 227 -46 330 -70 22 -5 71 -14 108 -19 38 -5 87 -15 110 -21 23 -7 69 -17
102 -24 33 -7 94 -22 135 -34 41 -12 100 -26 130 -32 30 -5 78 -18 105 -28 28
-11 68 -22 90 -25 134 -18 191 -30 285 -61 58 -19 123 -39 145 -44 22 -6 65
-17 95 -26 30 -9 73 -21 95 -26 22 -6 44 -14 49 -20 6 -5 20 -9 32 -9 13 0 78
-23 146 -50 130 -54 210 -71 223 -50 11 18 -22 44 -85 65 -30 10 -61 22 -68
28 -7 5 -33 14 -59 18 -26 5 -78 25 -116 44 -50 26 -85 36 -127 38 -33 2 -65
8 -72 14 -27 21 -78 43 -101 43 -14 0 -37 7 -53 15 -15 7 -53 17 -83 21 -31 3
-60 9 -65 12 -34 20 -221 76 -321 97 -66 14 -138 31 -160 39 -22 8 -85 19
-140 26 -55 6 -129 22 -165 34 -65 23 -232 58 -260 54 -16 -2 -86 10 -110 19
-17 7 -44 11 -113 17 -27 2 -53 8 -59 14 -6 6 -16 8 -23 5 -7 -2 -27 3 -44 11
-16 9 -51 16 -78 16 -26 0 -65 6 -88 14 -61 21 -132 36 -168 36 -17 0 -57 7
-87 15 -58 16 -67 16 -87 8z"/>
<path d="M2160 4262 c0 -11 77 -42 105 -42 11 -1 38 -9 60 -20 22 -11 52 -19
67 -20 15 0 39 -5 55 -11 15 -6 48 -14 73 -19 25 -4 86 -20 135 -34 50 -14
108 -26 130 -26 22 0 52 -6 66 -14 14 -7 48 -17 75 -21 27 -4 55 -12 63 -18 7
-6 36 -15 65 -19 82 -12 184 -33 293 -62 56 -14 112 -26 124 -26 12 0 36 -4
53 -10 17 -5 65 -16 106 -25 77 -16 253 -62 280 -72 8 -4 19 -5 23 -4 9 2 101
-24 157 -44 19 -7 62 -18 95 -25 33 -6 79 -16 103 -21 24 -5 55 -18 69 -29 14
-11 36 -20 48 -20 12 0 39 -7 58 -15 20 -8 48 -15 62 -15 14 0 49 -15 78 -33
29 -18 75 -41 102 -52 28 -10 60 -25 72 -32 31 -20 77 -13 81 12 3 22 -42 55
-76 55 -23 0 -109 35 -132 54 -8 6 -37 18 -65 25 -27 7 -68 20 -90 30 -71 33
-150 61 -170 61 -11 1 -36 7 -55 14 -19 8 -60 23 -90 35 -30 11 -77 24 -105
27 -27 4 -70 16 -95 26 -25 11 -65 24 -90 28 -25 5 -63 14 -85 20 -22 6 -54
13 -72 15 -35 4 -67 12 -98 25 -29 12 -138 35 -149 32 -6 -2 -19 1 -30 7 -12
5 -34 12 -51 15 -16 2 -61 12 -100 22 -38 9 -86 18 -105 19 -19 2 -71 13 -115
24 -44 12 -109 24 -145 27 -36 3 -74 9 -85 14 -27 12 -93 22 -131 21 -17 -1
-43 3 -58 8 -58 23 -218 61 -253 61 -34 0 -50 4 -148 36 -63 20 -105 27 -105
16z"/>
<path d="M1942 4093 c-20 -8 -3 -23 26 -23 15 0 41 -9 58 -19 38 -23 132 -51
174 -51 17 0 44 -7 59 -14 34 -18 238 -72 306 -81 66 -9 161 -32 205 -50 19
-8 64 -19 100 -24 36 -5 97 -17 135 -26 144 -33 292 -66 355 -80 62 -13 132
-30 250 -62 30 -8 78 -19 105 -23 28 -4 64 -13 80 -20 17 -6 55 -16 85 -22 30
-5 67 -16 82 -24 15 -8 36 -14 47 -14 29 0 153 -41 172 -57 8 -7 22 -13 30
-13 8 0 27 -7 42 -15 15 -8 45 -17 65 -21 20 -3 57 -19 81 -35 25 -16 50 -29
56 -29 6 0 38 -16 70 -35 l59 -36 25 19 c42 31 38 54 -11 76 -60 26 -190 73
-270 96 -36 11 -88 31 -114 45 -27 14 -69 28 -94 30 -25 2 -63 12 -85 23 -22
11 -78 27 -125 37 -47 9 -132 32 -190 50 -120 38 -261 71 -338 80 -29 3 -65
11 -80 17 -32 14 -110 31 -242 53 -52 9 -129 24 -170 33 -41 9 -79 17 -85 17
-5 1 -26 6 -45 13 -19 6 -73 16 -118 22 -46 6 -95 15 -109 21 -35 13 -163 39
-195 39 -14 0 -46 8 -70 18 -24 11 -68 22 -98 26 -63 8 -143 31 -182 52 -14 8
-28 14 -30 13 -1 0 -9 -3 -16 -6z"/>
<path d="M1870 3850 c-11 -7 -6 -10 20 -10 26 0 31 3 20 10 -8 5 -17 10 -20
10 -3 0 -12 -5 -20 -10z"/>
<path d="M2048 3793 c6 -2 18 -2 25 0 6 3 1 5 -13 5 -14 0 -19 -2 -12 -5z"/>
<path d="M2135 3780 c-3 -5 7 -12 22 -16 15 -3 41 -10 57 -15 34 -11 113 -12
102 -2 -8 8 -134 42 -158 43 -9 0 -20 -4 -23 -10z"/>
<path d="M1430 3725 c-13 -14 -22 -26 -19 -28 7 -5 169 -39 224 -47 28 -4 97
-24 155 -45 105 -37 145 -47 275 -65 38 -6 102 -19 142 -30 40 -11 86 -20 101
-20 16 0 58 -9 93 -19 93 -28 189 -49 318 -72 63 -10 122 -25 130 -33 9 -8 36
-17 61 -21 25 -4 74 -18 110 -31 36 -13 75 -21 88 -18 12 4 41 -2 64 -11 41
-17 78 -28 248 -74 41 -12 96 -32 121 -46 26 -14 54 -25 63 -25 9 0 34 -9 56
-20 21 -11 60 -24 87 -30 26 -6 87 -33 134 -60 48 -28 93 -50 102 -50 8 0 17
-6 20 -13 3 -7 24 -19 48 -26 34 -10 47 -10 66 0 12 7 23 16 23 20 0 12 -103
75 -155 94 -27 10 -55 22 -60 26 -22 16 -364 150 -406 158 -45 9 -121 38 -194
72 -22 11 -83 28 -135 38 -52 10 -109 25 -127 34 -18 10 -40 17 -51 17 -10 0
-27 7 -38 15 -10 8 -36 15 -56 15 -21 0 -57 7 -80 15 -24 7 -65 14 -93 13 -56
-1 -103 9 -124 26 -17 13 -101 33 -192 45 -37 5 -73 12 -80 17 -8 5 -39 12
-69 15 -30 4 -84 14 -120 24 -36 9 -82 14 -102 12 -21 -3 -44 1 -55 8 -18 12
-93 30 -268 64 -49 10 -99 22 -110 28 -25 13 -146 53 -161 53 -6 0 -21 -11
-34 -25z"/>
<path d="M2450 3721 c0 -12 26 -21 63 -21 23 0 28 3 18 9 -8 5 -20 7 -27 4 -7
-2 -22 0 -33 7 -12 6 -21 7 -21 1z"/>
<path d="M2570 3691 c8 -6 24 -11 35 -11 11 0 33 -7 49 -15 15 -8 41 -15 56
-15 28 0 171 -33 187 -43 5 -3 41 -11 79 -17 82 -13 191 -38 219 -50 11 -5 40
-13 65 -19 91 -20 177 -43 234 -62 33 -10 70 -19 82 -19 13 0 44 -11 70 -25
26 -14 54 -25 63 -25 9 0 25 -6 36 -13 11 -7 40 -19 65 -26 25 -7 66 -24 92
-37 26 -13 58 -24 71 -24 14 0 35 -8 48 -18 43 -33 113 -69 167 -86 28 -10 52
-21 52 -26 0 -4 6 -10 13 -13 6 -3 28 -12 49 -21 34 -15 37 -14 62 5 27 21 34
39 16 39 -6 0 -34 16 -63 35 -28 19 -60 35 -70 35 -9 0 -41 13 -70 29 -28 16
-77 34 -107 41 -71 15 -107 29 -149 57 -18 12 -49 25 -70 29 -20 3 -46 12 -58
20 -12 8 -38 14 -57 14 -19 0 -47 6 -63 14 -68 35 -135 56 -224 69 -52 7 -111
21 -129 31 -19 9 -88 25 -154 36 -67 11 -129 25 -138 30 -10 5 -58 16 -107 24
-49 8 -107 20 -129 26 -22 5 -71 15 -109 20 -37 5 -81 12 -98 16 -23 4 -26 3
-15 -5z"/>
<path d="M8401 5223 c-29 -23 -31 -27 -16 -36 22 -12 203 -34 388 -47 77 -5
162 -16 190 -24 29 -8 79 -20 112 -26 33 -7 73 -17 89 -23 16 -6 50 -12 75
-13 65 -4 180 -29 194 -43 6 -6 20 -11 31 -11 11 0 33 -4 50 -9 187 -57 241
-76 301 -103 23 -10 63 -21 90 -24 28 -4 59 -15 70 -24 46 -41 143 -90 178
-90 13 0 38 -11 57 -25 19 -14 40 -25 48 -25 7 0 37 -11 66 -25 29 -14 67 -28
84 -31 17 -4 37 -13 43 -20 6 -8 17 -14 24 -14 6 0 20 -9 30 -20 10 -11 28
-20 39 -20 12 0 39 -11 61 -24 66 -40 155 -86 166 -86 6 0 43 -16 83 -35 40
-19 81 -35 91 -35 10 0 26 -6 34 -14 28 -23 131 -73 211 -101 38 -13 42 -13
61 6 12 12 17 24 12 28 -4 4 -56 29 -116 56 -59 27 -112 54 -118 62 -6 7 -19
13 -29 13 -9 0 -34 11 -54 25 -20 14 -39 25 -42 25 -3 0 -72 33 -152 74 -81
40 -172 86 -202 101 -30 15 -68 35 -85 43 -16 8 -50 26 -75 39 -25 14 -83 38
-130 55 -47 17 -106 41 -131 54 -26 13 -68 28 -95 35 -27 7 -57 20 -67 30 -10
11 -26 19 -36 19 -9 0 -51 11 -91 25 -40 14 -81 25 -91 25 -10 0 -39 10 -66
21 -26 12 -64 25 -83 30 -19 4 -71 17 -115 29 -44 13 -105 26 -135 31 -30 4
-95 19 -145 32 -49 14 -119 28 -155 32 -36 4 -87 13 -115 20 -27 7 -97 18
-155 24 -58 6 -134 15 -170 20 -36 6 -77 7 -91 4 -15 -3 -30 0 -33 6 -12 19
-50 12 -85 -16z"/>
<path d="M8117 5008 c-37 -18 -53 -43 -36 -54 6 -3 45 -5 87 -4 42 1 82 2 87
2 51 1 213 -17 222 -24 11 -9 104 -25 268 -48 39 -5 102 -16 140 -25 39 -9 93
-20 120 -25 28 -5 70 -16 94 -25 24 -9 74 -20 111 -24 42 -6 81 -18 106 -33
21 -14 61 -30 88 -37 27 -7 62 -19 77 -27 15 -7 38 -14 50 -14 12 0 48 -13 81
-30 32 -16 66 -30 75 -30 8 0 30 -9 47 -19 17 -11 52 -22 78 -26 26 -4 62 -18
79 -31 18 -13 40 -24 48 -24 9 0 30 -8 46 -18 17 -11 48 -22 70 -26 22 -4 49
-13 60 -20 11 -7 43 -20 70 -30 61 -22 95 -36 115 -47 19 -12 25 -14 80 -30
25 -7 54 -19 65 -26 11 -7 25 -13 32 -13 7 0 54 -20 105 -45 51 -25 100 -45
109 -45 10 0 57 -20 107 -45 49 -25 98 -45 108 -45 11 0 28 -7 38 -15 25 -19
47 -19 72 -1 17 13 17 16 4 28 -8 8 -53 31 -100 52 -47 22 -130 60 -185 86
-55 26 -115 51 -132 55 -18 3 -35 10 -38 15 -7 11 -82 46 -125 58 -49 14 -166
70 -181 88 -6 8 -20 14 -30 14 -24 0 -131 36 -184 62 -22 11 -71 31 -110 45
-38 14 -89 34 -112 44 -23 11 -49 19 -57 19 -9 0 -33 9 -55 21 -22 11 -45 18
-51 14 -5 -3 -22 3 -36 14 -15 12 -34 21 -43 21 -21 0 -103 29 -118 41 -6 6
-42 15 -80 20 -37 5 -90 20 -118 33 -27 14 -70 27 -94 31 -25 3 -66 13 -93 22
-26 8 -55 13 -63 9 -8 -3 -28 0 -43 6 -39 15 -220 55 -287 63 -16 2 -61 9
-100 15 -38 7 -110 14 -160 16 -49 2 -101 8 -115 13 -49 19 -156 18 -193 -1z"/>
<path d="M7833 4762 c-14 -13 -23 -26 -20 -29 7 -7 301 -45 367 -48 82 -4 164
-16 225 -35 33 -10 85 -21 115 -25 30 -3 81 -15 114 -26 33 -11 70 -19 82 -16
25 4 160 -23 279 -57 104 -30 162 -45 220 -56 33 -6 69 -17 80 -23 31 -16 137
-47 165 -47 14 0 34 -7 44 -15 11 -8 33 -15 50 -15 16 0 50 -12 75 -27 25 -15
64 -30 86 -34 22 -4 78 -22 125 -39 47 -18 108 -36 135 -42 28 -5 70 -21 95
-36 52 -31 93 -47 170 -69 30 -8 61 -20 68 -25 16 -14 111 -58 124 -58 5 0 74
-30 154 -66 155 -70 183 -74 220 -33 21 23 17 28 -36 40 -23 5 -61 19 -84 30
-60 30 -138 59 -158 59 -9 0 -38 11 -65 25 -79 40 -147 68 -160 66 -7 -1 -23
5 -35 13 -31 20 -244 106 -264 106 -9 0 -28 6 -42 14 -50 26 -197 86 -210 86
-7 0 -34 8 -60 19 -26 10 -76 24 -112 31 -36 6 -74 20 -85 30 -23 20 -130 60
-163 60 -12 0 -50 12 -85 26 -34 14 -73 28 -87 29 -25 4 -144 35 -245 65 -33
10 -78 21 -100 25 -22 4 -60 13 -85 21 -25 8 -87 16 -138 19 -52 3 -102 10
-112 15 -10 6 -52 10 -92 10 -41 0 -79 5 -85 11 -15 15 -212 37 -371 42 -65 2
-77 0 -99 -21z"/>
<path d="M7586 4561 c-9 -10 -16 -20 -16 -23 0 -3 35 -8 78 -11 42 -3 109 -12
147 -21 39 -9 122 -20 185 -25 63 -5 135 -16 160 -24 25 -9 65 -19 90 -23 25
-3 67 -12 93 -20 27 -7 61 -11 77 -8 16 4 53 -1 82 -10 53 -16 95 -26 312 -72
65 -13 127 -29 137 -34 9 -6 25 -7 33 -4 9 3 32 -3 52 -15 19 -12 72 -28 117
-35 45 -8 100 -22 122 -32 74 -31 197 -64 220 -58 13 3 26 -1 34 -9 14 -18
193 -107 213 -107 19 0 140 -48 152 -60 6 -6 18 -10 28 -10 10 0 42 -13 71
-30 29 -16 71 -36 93 -44 50 -17 150 -62 184 -82 14 -8 43 -22 65 -31 22 -9
68 -32 103 -50 34 -18 69 -33 76 -33 15 0 56 46 56 61 0 5 -6 9 -14 9 -7 0
-19 7 -26 15 -7 8 -21 15 -32 15 -11 0 -50 16 -87 35 -36 19 -86 44 -111 55
-25 11 -52 24 -60 29 -38 23 -121 60 -151 66 -19 4 -40 12 -46 17 -20 16 -125
64 -158 72 -16 4 -43 13 -60 20 -44 18 -217 77 -235 80 -8 1 -28 8 -43 14 -16
7 -34 12 -40 12 -7 0 -55 15 -107 34 -52 18 -121 36 -153 40 -32 3 -94 20
-137 36 -43 17 -120 39 -171 49 -52 11 -130 29 -174 40 -44 11 -125 25 -180
31 -55 5 -122 16 -150 23 -27 8 -86 22 -130 31 -44 10 -96 21 -115 26 -19 5
-104 16 -188 25 -85 9 -179 22 -210 30 -100 24 -168 26 -186 6z"/>
<path d="M7340 4378 c-64 -44 -44 -57 78 -49 24 1 73 -5 108 -14 35 -9 83 -16
106 -15 24 0 77 -6 118 -15 100 -22 158 -31 260 -44 47 -6 146 -27 220 -45 74
-19 159 -37 188 -41 29 -4 76 -14 105 -22 125 -34 284 -73 304 -73 12 0 25 -4
28 -10 3 -5 18 -10 32 -10 14 0 61 -16 106 -35 44 -19 88 -35 96 -35 9 -1 54
-14 101 -31 47 -17 117 -39 155 -51 39 -11 77 -26 85 -33 21 -18 105 -55 125
-55 9 0 44 -13 78 -28 34 -16 78 -35 97 -42 19 -7 41 -18 48 -23 7 -5 15 -7
19 -3 3 3 16 0 27 -7 12 -7 50 -24 86 -37 36 -13 72 -29 81 -37 8 -7 25 -13
37 -13 13 0 39 -11 60 -24 46 -29 119 -63 152 -70 18 -4 34 1 54 18 l30 25
-40 17 c-21 9 -47 20 -56 25 -10 5 -23 9 -29 9 -6 0 -59 23 -117 51 -59 28
-134 60 -167 71 -68 22 -103 37 -125 54 -8 7 -46 21 -85 32 -38 11 -95 34
-125 52 -30 19 -75 37 -100 41 -25 4 -88 23 -140 42 -52 19 -122 42 -155 52
-33 10 -99 33 -147 51 -49 19 -99 34 -113 34 -31 0 -162 36 -229 62 -26 11
-78 23 -115 28 -85 11 -156 27 -180 40 -28 15 -176 47 -253 55 -37 3 -70 11
-73 16 -4 5 -19 9 -35 9 -16 0 -40 4 -53 9 -14 5 -55 12 -93 16 -93 8 -250 31
-299 44 -60 15 -157 31 -192 31 -16 0 -45 -10 -63 -22z"/>
<path d="M7083 4180 c-40 -17 -25 -25 50 -27 116 -4 189 -11 227 -22 19 -5 73
-15 120 -21 46 -6 102 -18 125 -27 22 -8 73 -17 113 -19 41 -2 106 -11 145
-20 40 -8 97 -19 128 -24 31 -4 70 -15 87 -24 17 -9 48 -16 69 -16 42 0 174
-30 243 -55 80 -29 144 -43 173 -38 17 3 34 0 45 -10 15 -14 57 -28 216 -72
27 -8 72 -23 100 -33 28 -11 116 -41 196 -67 80 -26 150 -51 155 -55 14 -10
110 -40 128 -40 7 0 34 -13 58 -29 24 -17 67 -35 94 -42 44 -10 78 -25 210
-92 17 -8 56 -28 87 -44 32 -15 73 -36 92 -46 68 -35 148 -30 117 7 -8 9 -23
16 -35 16 -12 0 -50 18 -84 40 -33 22 -67 40 -74 40 -7 0 -29 8 -48 18 -19 11
-48 22 -65 26 -16 4 -50 20 -75 35 -25 16 -63 34 -85 42 -22 7 -44 17 -49 21
-6 4 -16 8 -24 8 -7 0 -32 9 -55 19 -23 11 -78 33 -122 51 -44 17 -94 37 -111
45 -16 8 -55 18 -85 24 -85 15 -127 28 -155 46 -25 16 -112 43 -234 71 -36 8
-83 21 -105 28 -22 8 -67 20 -100 27 -33 6 -69 17 -80 24 -11 7 -33 15 -50 18
-16 3 -50 11 -75 17 -25 7 -63 14 -85 15 -50 4 -150 23 -190 37 -53 19 -247
58 -355 73 -125 16 -207 32 -277 51 -40 11 -57 12 -77 3 -21 -10 -29 -9 -44 4
-22 20 -204 33 -239 17z"/>
<path d="M6877 4027 c-17 -5 -27 -16 -27 -28 0 -16 7 -20 38 -19 43 2 233 -24
289 -39 100 -26 242 -51 293 -51 32 0 74 -7 93 -15 20 -8 47 -15 60 -15 14 0
60 -12 103 -26 44 -14 111 -29 150 -33 39 -5 82 -15 95 -23 13 -9 57 -21 97
-27 41 -6 91 -20 113 -31 21 -11 51 -19 66 -18 29 2 144 -30 227 -63 27 -10
61 -19 76 -19 27 0 86 -20 124 -41 22 -13 103 -34 166 -43 24 -4 51 -13 60
-21 19 -17 138 -65 161 -65 10 0 50 -18 91 -39 40 -22 93 -44 118 -51 25 -6
54 -15 65 -19 32 -14 319 -152 335 -162 93 -56 136 -69 158 -47 21 21 13 32
-36 55 -26 12 -78 41 -117 63 -126 72 -298 160 -313 160 -5 0 -36 14 -70 30
-34 17 -68 30 -75 30 -12 0 -188 65 -219 81 -10 5 -26 9 -37 9 -10 0 -38 9
-62 20 -24 11 -56 20 -71 20 -15 0 -30 5 -33 11 -4 6 -14 8 -22 4 -9 -3 -23 1
-32 8 -9 8 -36 17 -60 21 -25 4 -72 17 -105 30 -62 23 -180 56 -226 63 -61 8
-96 16 -105 23 -5 4 -37 13 -70 20 -33 7 -87 21 -120 32 -56 18 -116 29 -245
48 -30 4 -73 15 -95 24 -46 20 -126 38 -170 38 -16 0 -81 13 -143 29 -62 16
-117 27 -121 24 -5 -2 -31 2 -57 10 -27 8 -66 15 -86 15 -43 0 -171 18 -208
29 -14 4 -38 3 -53 -2z"/>
<path d="M6640 3847 c-49 -25 -33 -34 68 -39 54 -3 123 -13 153 -21 83 -24
261 -59 394 -77 33 -5 88 -16 122 -25 35 -9 82 -17 105 -19 24 -1 54 -8 68
-16 13 -7 65 -17 114 -21 48 -5 94 -13 100 -18 7 -6 26 -12 42 -15 17 -3 47
-12 66 -21 20 -8 60 -19 89 -24 119 -20 207 -41 258 -61 30 -12 60 -19 67 -16
7 3 18 -2 24 -10 7 -8 27 -14 45 -14 20 0 42 -9 59 -25 15 -14 37 -25 49 -25
12 0 42 -9 66 -20 24 -11 51 -20 60 -20 9 0 34 -9 56 -20 22 -11 47 -20 56
-20 9 0 37 -11 62 -24 25 -14 60 -29 79 -35 64 -19 107 -37 125 -52 20 -16 92
-52 108 -53 6 -1 33 -13 60 -28 28 -14 87 -40 132 -58 46 -17 85 -36 89 -41 8
-14 112 -59 135 -59 11 0 19 -4 19 -10 0 -5 17 -10 38 -10 l37 1 -30 24 c-16
14 -47 28 -67 31 -21 4 -43 13 -49 20 -6 8 -16 14 -21 14 -6 0 -23 9 -40 21
-42 31 -158 86 -231 110 -34 11 -87 38 -118 59 -53 37 -128 70 -194 85 -16 3
-67 24 -112 45 -45 22 -112 47 -150 56 -37 9 -92 25 -121 35 -30 11 -64 19
-77 19 -13 0 -26 4 -29 9 -3 5 -22 12 -41 15 -49 10 -188 56 -195 65 -3 4 -36
12 -75 18 -38 6 -83 15 -100 21 -63 23 -183 51 -241 56 -34 3 -75 11 -90 17
-16 6 -38 15 -49 19 -11 5 -56 16 -100 25 -44 9 -93 21 -109 26 -16 5 -46 9
-67 9 -39 0 -51 2 -214 41 -49 12 -108 25 -130 29 -22 4 -53 12 -70 18 -48 17
-198 23 -225 9z"/>
<path d="M6451 3669 c-25 -5 -52 -15 -60 -24 -14 -13 -6 -15 69 -15 47 -1 126
-8 175 -16 50 -8 119 -20 154 -25 36 -6 73 -15 82 -20 10 -5 32 -9 50 -9 38 0
127 -15 214 -37 33 -8 114 -25 180 -38 66 -12 134 -30 150 -38 17 -9 58 -20
92 -26 34 -5 72 -16 85 -24 26 -17 72 -28 132 -32 23 -2 76 -19 118 -39 42
-20 88 -36 101 -36 24 0 97 -27 149 -56 15 -8 53 -19 85 -25 32 -6 65 -16 73
-23 8 -7 35 -18 60 -26 25 -7 74 -24 109 -37 36 -14 107 -40 158 -58 51 -19
100 -40 108 -48 8 -9 33 -18 56 -22 23 -4 56 -16 73 -26 17 -10 41 -19 53 -19
12 0 34 -11 50 -24 15 -13 57 -36 93 -51 36 -15 74 -34 85 -41 11 -8 26 -14
34 -14 7 0 36 -13 63 -30 52 -33 89 -38 107 -16 10 11 3 20 -32 43 -24 17 -57
33 -73 37 -16 4 -49 20 -74 36 -25 15 -63 31 -85 35 -22 3 -55 15 -73 26 -18
10 -39 19 -47 19 -8 0 -18 6 -22 14 -4 7 -39 25 -78 39 -93 33 -124 47 -158
70 -15 10 -35 16 -44 13 -9 -4 -43 9 -80 29 -36 20 -90 42 -121 50 -58 15
-253 88 -286 107 -11 5 -47 14 -82 18 -36 5 -74 16 -90 28 -32 23 -193 69
-394 111 -19 4 -49 15 -67 24 -18 9 -51 17 -74 17 -39 0 -80 9 -134 31 -11 4
-44 10 -73 13 -29 3 -90 14 -135 25 -45 11 -122 25 -172 31 -49 6 -100 16
-113 21 -13 5 -35 9 -50 9 -15 0 -58 6 -97 14 -38 8 -92 19 -120 24 -27 5 -57
11 -65 14 -8 3 -35 2 -59 -3z"/>
<path d="M6201 3514 c-19 -8 -31 -17 -28 -20 15 -15 152 -28 173 -16 14 8 7
13 -37 26 -30 10 -58 19 -64 21 -5 2 -25 -2 -44 -11z"/>
<path d="M6391 3491 c-21 -14 -22 -14 224 -61 61 -12 139 -27 175 -35 36 -8
72 -12 80 -10 9 3 33 -4 55 -15 22 -11 45 -20 53 -20 8 0 28 -6 45 -14 18 -7
57 -19 87 -26 30 -7 60 -16 65 -20 6 -4 42 -10 80 -14 39 -4 93 -18 121 -30
29 -13 67 -27 85 -31 19 -4 58 -18 88 -31 29 -13 68 -24 86 -24 18 0 44 -9 58
-20 14 -11 34 -20 45 -20 12 0 33 -5 49 -11 15 -6 60 -20 98 -31 39 -10 84
-27 101 -37 17 -11 56 -22 85 -26 30 -4 70 -16 89 -26 56 -30 172 -76 210 -84
19 -4 49 -16 66 -26 17 -10 40 -19 50 -19 11 0 33 -9 49 -20 17 -11 39 -20 50
-20 11 0 58 -18 105 -39 47 -22 97 -42 111 -45 14 -3 42 -16 61 -30 20 -13 51
-27 68 -31 18 -4 62 -27 98 -51 64 -44 94 -50 105 -20 4 10 -11 21 -43 35 -27
12 -54 21 -60 21 -6 0 -29 12 -52 28 -59 39 -101 61 -118 62 -8 0 -51 18 -95
40 -44 22 -84 40 -88 40 -4 0 -40 15 -80 34 -40 19 -85 38 -102 42 -16 3 -71
26 -121 49 -49 24 -129 55 -176 69 -47 15 -112 39 -144 55 -32 15 -90 34 -128
40 -38 7 -79 19 -90 27 -11 8 -27 14 -36 14 -8 0 -33 10 -55 21 -22 12 -65 25
-95 29 -49 7 -140 35 -195 61 -20 9 -225 58 -275 65 -79 12 -101 17 -106 25
-3 5 -18 9 -33 9 -16 0 -49 9 -75 21 -25 11 -51 17 -56 14 -10 -6 -125 13
-265 46 -49 11 -117 25 -150 30 -33 5 -67 11 -75 14 -8 2 -21 1 -29 -4z"/>
<path d="M5953 3309 c-18 -11 -33 -24 -33 -29 0 -4 39 -10 88 -13 48 -3 114
-13 147 -21 32 -9 76 -16 96 -16 20 0 65 -9 99 -20 38 -12 90 -20 133 -20 72
0 137 -14 172 -37 11 -7 31 -13 46 -13 14 0 52 -9 85 -20 32 -11 72 -20 87
-20 16 0 38 -5 50 -12 12 -7 36 -13 52 -15 51 -4 110 -19 141 -36 45 -24 93
-37 139 -37 24 0 48 -6 54 -14 7 -8 28 -17 49 -20 50 -8 200 -54 235 -72 16
-8 40 -14 54 -14 14 0 39 -7 56 -14 38 -18 264 -86 283 -86 8 0 19 -9 26 -20
9 -14 24 -20 48 -20 20 0 44 -6 55 -13 11 -7 56 -26 100 -42 44 -15 85 -31 90
-35 6 -4 28 -13 50 -20 22 -7 49 -19 60 -26 11 -7 52 -25 90 -39 39 -15 90
-37 115 -49 199 -101 233 -115 254 -104 22 12 26 7 -48 63 -11 8 -35 20 -53
26 -19 6 -56 26 -84 45 -28 19 -58 34 -66 34 -8 0 -32 9 -52 19 -44 23 -130
63 -225 103 -64 27 -109 42 -201 68 -16 5 -57 22 -89 39 -32 17 -69 31 -82 31
-12 0 -29 7 -38 15 -8 8 -27 15 -43 15 -34 0 -170 40 -338 99 -107 37 -198 63
-250 71 -34 5 -85 18 -115 29 -30 11 -82 25 -115 31 -33 6 -76 16 -95 20 -211
55 -369 89 -468 100 -46 6 -87 12 -92 15 -4 3 -54 14 -110 25 -56 11 -107 23
-113 27 -6 4 -48 13 -92 19 -44 7 -89 16 -100 19 -12 3 -34 -4 -52 -16z"/>
<path d="M5730 3130 c-25 -16 -3 -23 108 -36 59 -7 134 -18 167 -24 33 -6 76
-13 95 -15 19 -1 52 -10 72 -19 21 -9 60 -16 88 -16 46 0 176 -28 225 -49 71
-30 194 -44 180 -21 -3 5 -18 9 -33 9 -15 -1 -72 15 -127 35 -73 27 -122 38
-180 41 -44 2 -122 16 -173 30 -52 13 -151 34 -220 45 -70 11 -140 22 -157 25
-16 3 -37 0 -45 -5z"/>
<path d="M5506 2955 c-11 -9 15 -14 116 -24 72 -6 140 -17 151 -22 23 -13 206
-41 223 -35 6 2 16 0 22 -6 6 -6 49 -13 94 -15 l83 -3 -75 20 c-41 10 -91 19
-110 20 -19 0 -69 7 -110 16 -41 8 -88 16 -105 18 -16 1 -40 8 -53 15 -12 6
-32 9 -44 5 -11 -3 -23 -1 -27 4 -9 15 -146 21 -165 7z"/>
<path d="M6700 2942 c0 -4 17 -13 38 -19 20 -6 68 -22 107 -37 38 -14 84 -26
102 -26 18 0 42 -4 55 -9 13 -5 70 -23 128 -41 58 -17 125 -38 150 -47 25 -8
68 -21 95 -28 28 -8 75 -23 105 -35 30 -12 64 -23 75 -25 32 -5 137 -44 175
-64 19 -11 53 -22 75 -26 22 -4 63 -18 90 -32 62 -31 124 -53 149 -53 17 0 45
-11 171 -71 22 -11 49 -19 60 -19 11 0 34 -9 50 -20 17 -11 38 -20 47 -20 9 0
21 -6 25 -13 9 -15 92 -57 113 -57 7 0 38 -12 67 -26 84 -39 114 -15 33 26
-21 11 -40 24 -42 31 -2 6 -17 12 -34 13 -17 1 -44 11 -60 21 -31 21 -80 42
-129 54 -17 4 -68 27 -114 49 -46 23 -97 42 -114 42 -16 0 -42 9 -57 20 -43
30 -137 70 -166 70 -27 0 -88 23 -190 71 -34 16 -73 29 -88 29 -15 0 -43 7
-64 16 -53 22 -146 51 -222 68 -62 13 -81 19 -160 46 -19 7 -55 14 -79 17 -25
2 -58 10 -75 17 -17 8 -42 16 -56 19 -14 2 -45 12 -70 20 -41 14 -170 47 -184
47 -3 0 -6 -4 -6 -8z"/>
<path d="M5325 2813 c18 -18 98 -36 175 -40 63 -3 72 -1 55 9 -11 7 -56 15
-100 19 -44 3 -93 10 -110 14 -20 5 -27 4 -20 -2z"/>
<path d="M6305 2805 c17 -7 53 -15 80 -19 l50 -6 -40 19 c-22 11 -58 19 -80
19 l-40 0 30 -13z"/>
<path d="M6452 2769 c7 -4 31 -9 53 -12 53 -8 208 -52 267 -77 26 -11 65 -20
87 -20 36 0 73 -12 157 -52 12 -5 34 -11 50 -13 41 -4 151 -33 171 -45 29 -15
112 -40 137 -40 13 0 34 -9 48 -19 13 -11 44 -24 68 -31 25 -7 52 -18 60 -25
19 -16 76 -35 105 -35 12 0 33 -8 46 -19 13 -10 71 -33 129 -51 58 -18 115
-40 128 -50 12 -10 41 -22 64 -25 23 -4 96 -34 161 -66 66 -33 126 -59 134
-59 9 0 32 -14 53 -30 32 -26 42 -29 64 -20 14 5 26 16 26 25 0 20 -60 56 -81
50 -9 -3 -27 3 -40 13 -38 28 -130 71 -176 81 -23 5 -61 22 -86 39 -41 27
-108 54 -167 65 -14 3 -97 35 -185 71 -88 36 -165 66 -172 66 -6 0 -27 9 -46
20 -18 11 -56 24 -83 30 -114 22 -181 39 -216 54 -21 9 -46 16 -56 16 -25 0
-131 34 -171 54 -16 9 -36 13 -45 10 -8 -3 -23 -1 -34 5 -10 5 -50 15 -88 21
-38 6 -82 18 -98 26 -16 8 -39 14 -50 14 -12 0 -44 8 -73 19 -47 17 -170 26
-141 10z"/>
<path d="M5620 2761 c0 -5 15 -12 33 -16 17 -4 57 -15 88 -26 61 -21 98 -17
78 7 -7 8 -31 14 -58 14 -25 1 -64 7 -86 15 -47 17 -55 18 -55 6z"/>
<path d="M5862 2699 c18 -10 199 -41 205 -36 2 3 -17 12 -44 20 -50 16 -184
29 -161 16z"/>
<path d="M5083 2635 c-25 -18 -4 -25 91 -30 46 -2 101 -8 123 -14 21 -6 65
-12 98 -13 39 -2 74 -10 100 -24 38 -21 135 -32 135 -16 0 16 -158 65 -235 74
-44 5 -107 14 -140 20 -87 15 -153 16 -172 3z"/>
<path d="M6125 2640 c3 -5 13 -10 21 -10 8 0 12 5 9 10 -3 6 -13 10 -21 10 -8
0 -12 -4 -9 -10z"/>
<path d="M6210 2615 c14 -8 39 -14 56 -15 17 0 88 -18 157 -40 68 -22 137 -40
151 -40 28 0 148 -34 178 -51 10 -5 27 -9 38 -9 12 0 38 -9 60 -20 71 -36 230
-74 216 -51 -17 27 -208 93 -223 77 -3 -3 -17 0 -32 6 -14 6 -48 19 -76 30
-27 11 -75 26 -105 34 -30 7 -91 22 -135 34 -118 31 -154 39 -220 50 -81 13
-95 12 -65 -5z"/>
<path d="M5660 2537 c0 -7 133 -47 156 -47 17 0 17 1 -1 19 -14 13 -42 22 -87
26 -38 4 -68 5 -68 2z"/>
<path d="M5842 2491 c2 -7 7 -12 11 -12 12 1 9 15 -3 20 -7 2 -11 -2 -8 -8z"/>
<path d="M5890 2480 c0 -12 173 -60 216 -60 16 0 43 -9 60 -19 17 -10 55 -24
84 -30 30 -6 62 -19 72 -28 9 -8 39 -17 65 -18 58 -3 143 -27 174 -49 13 -9
31 -16 40 -16 9 0 30 -7 45 -15 16 -8 43 -15 60 -15 17 0 47 -11 66 -24 19
-13 48 -26 64 -29 70 -13 120 -29 136 -44 9 -8 38 -19 64 -24 26 -5 52 -15 58
-23 6 -8 34 -21 62 -29 28 -8 66 -23 84 -32 41 -21 147 -55 173 -55 19 0 19 1
2 20 -9 10 -34 24 -54 31 -20 6 -43 17 -51 24 -8 6 -42 20 -75 29 -33 9 -82
28 -110 41 -94 44 -170 73 -220 86 -27 6 -60 18 -72 25 -12 8 -28 14 -34 14
-7 0 -20 7 -29 15 -9 9 -41 15 -80 17 -52 2 -79 10 -149 45 -68 35 -96 43
-138 43 -30 0 -64 6 -76 14 -12 8 -38 17 -57 21 -19 4 -58 15 -86 25 -107 39
-294 77 -294 60z"/>
<path d="M4850 2465 c-11 -13 -8 -15 18 -15 17 0 43 -5 58 -10 15 -6 67 -13
117 -15 50 -3 95 -9 101 -15 5 -5 22 -10 36 -10 15 0 42 -7 59 -16 18 -9 58
-18 89 -19 32 -2 93 -13 136 -24 44 -12 93 -21 109 -21 17 0 38 -7 47 -15 10
-9 41 -18 69 -22 29 -3 67 -16 84 -27 24 -17 40 -20 64 -15 21 4 39 2 51 -7
10 -7 28 -13 38 -12 10 0 48 -11 84 -24 36 -14 89 -28 118 -32 58 -7 92 -20
136 -49 15 -11 58 -28 95 -38 71 -19 186 -60 220 -78 11 -6 24 -11 28 -10 4 1
31 -8 58 -20 77 -34 89 -39 110 -45 47 -12 116 -41 207 -87 54 -27 106 -49
116 -49 9 0 33 -10 52 -23 19 -13 80 -40 134 -61 54 -22 108 -48 120 -60 13
-13 34 -21 58 -21 24 -1 46 -9 61 -23 13 -12 31 -22 40 -22 9 0 26 -9 37 -20
11 -11 32 -20 46 -20 34 0 22 17 -27 37 -22 8 -44 24 -50 34 -5 11 -16 19 -24
19 -8 0 -31 11 -51 25 -20 14 -46 25 -56 25 -11 0 -33 11 -50 25 -16 13 -46
29 -66 35 -20 5 -57 23 -82 40 -24 16 -65 32 -90 36 -25 3 -54 14 -65 24 -31
28 -156 82 -177 77 -10 -3 -43 7 -73 23 -30 15 -78 36 -107 45 -56 19 -65 22
-138 52 -25 11 -65 25 -90 32 -104 31 -248 81 -285 100 -21 12 -56 21 -77 21
-21 0 -46 4 -56 10 -37 20 -90 41 -98 38 -5 -1 -29 5 -54 14 -25 8 -74 23
-110 32 -36 9 -90 24 -120 32 -54 16 -121 30 -270 60 -41 9 -95 23 -120 32
-38 13 -169 39 -220 43 -8 1 -42 8 -75 15 -81 18 -149 18 -165 -1z"/>
<path d="M7090 2369 c0 -12 53 -35 112 -48 48 -11 101 -35 137 -63 13 -10 39
-18 57 -18 34 0 76 -15 155 -56 26 -13 56 -24 67 -24 10 0 30 -8 43 -18 39
-30 363 -182 388 -182 7 0 57 -36 98 -70 7 -5 16 -10 21 -10 11 0 47 39 41 44
-20 17 -92 56 -105 56 -9 0 -30 10 -47 22 -43 30 -154 88 -170 88 -7 0 -35 14
-61 31 -27 16 -51 28 -53 25 -3 -3 -22 4 -41 15 -20 10 -42 19 -49 19 -7 0
-30 9 -50 20 -21 11 -48 20 -60 20 -12 0 -25 5 -28 10 -3 6 -14 10 -24 10 -10
0 -28 9 -41 20 -13 11 -31 20 -41 20 -28 0 -100 31 -121 52 -11 11 -34 19 -60
20 -75 2 -92 4 -130 16 -24 6 -38 7 -38 1z"/>
<path d="M7500 1933 c0 -13 60 -43 83 -43 12 0 37 -9 55 -20 35 -21 62 -26 62
-10 0 13 -147 80 -176 80 -13 0 -24 -3 -24 -7z"/>
<path d="M7750 1815 c14 -16 40 -20 40 -6 0 9 -24 21 -42 21 -6 0 -6 -6 2 -15z"/>
<path d="M7880 1766 c0 -2 7 -9 15 -16 9 -7 15 -8 15 -2 0 5 -7 12 -15 16 -8
3 -15 4 -15 2z"/>
<path d="M10019 2463 c-13 -16 -12 -17 4 -4 16 13 21 21 13 21 -2 0 -10 -8
-17 -17z"/>
<path d="M9925 2390 c-3 -6 1 -7 9 -4 18 7 21 14 7 14 -6 0 -13 -4 -16 -10z"/>
<path d="M9802 2310 c-43 -31 -53 -50 -27 -50 8 0 25 14 37 31 13 17 32 35 43
39 15 7 16 9 4 9 -9 1 -35 -13 -57 -29z"/>
<path d="M9645 2183 c-34 -28 -52 -49 -44 -52 7 -2 25 10 39 28 15 17 31 31
37 31 5 0 18 9 28 20 33 36 -2 21 -60 -27z"/>
<path d="M9490 2058 c-49 -35 -64 -47 -111 -89 -16 -15 -43 -32 -59 -39 -16
-7 -32 -21 -35 -31 -4 -10 -15 -19 -26 -19 -11 0 -22 -7 -25 -15 -8 -20 -96
-82 -144 -101 -27 -11 -42 -24 -46 -41 -10 -37 3 -39 44 -6 20 16 48 36 62 43
14 7 48 34 75 59 71 65 211 177 269 214 46 29 69 57 49 57 -4 0 -29 -15 -53
-32z"/>
<path d="M9010 1445 c-7 -8 -8 -15 -2 -15 5 0 15 7 22 15 7 8 8 15 2 15 -5 0
-15 -7 -22 -15z"/>
<path d="M904 3262 c8 -14 92 -52 114 -52 9 0 25 -9 37 -20 24 -23 98 -45 195
-60 36 -6 72 -13 80 -16 12 -5 139 -34 147 -34 2 0 3 4 3 9 0 14 -115 51 -223
71 -53 10 -103 22 -110 28 -16 13 -134 58 -172 66 -16 3 -41 9 -54 12 -17 5
-22 4 -17 -4z"/>
<path d="M1720 3041 c-24 -7 -24 -8 11 -19 30 -10 204 -31 259 -31 34 0 -16
16 -69 23 -30 4 -62 11 -70 15 -25 13 -103 20 -131 12z"/>
<path d="M2043 2973 c9 -2 25 -2 35 0 9 3 1 5 -18 5 -19 0 -27 -2 -17 -5z"/>
<path d="M2290 2940 c20 -13 43 -13 35 0 -3 6 -16 10 -28 10 -18 0 -19 -2 -7
-10z"/>
<path d="M2535 2893 c6 -6 37 -18 70 -28 33 -9 87 -26 120 -37 67 -22 156 -36
140 -21 -5 5 -37 18 -70 28 -33 9 -70 21 -83 26 -12 5 -51 13 -87 19 -35 6
-72 13 -82 17 -12 4 -15 3 -8 -4z"/>
<path d="M1860 2799 c0 -13 29 -18 57 -9 30 9 27 11 -25 13 -17 1 -32 -1 -32
-4z"/>
<path d="M2020 2771 c24 -20 40 -26 40 -16 0 2 -15 12 -32 20 l-33 16 25 -20z"/>
<path d="M2080 2750 c8 -5 24 -10 35 -10 17 0 17 2 5 10 -8 5 -24 10 -35 10
-17 0 -17 -2 -5 -10z"/>
<path d="M3050 2740 c0 -14 35 -30 67 -30 l28 1 -35 19 c-39 21 -60 25 -60 10z"/>
<path d="M2214 2723 c10 -11 77 -34 121 -42 38 -7 93 -23 143 -42 30 -12 55
-11 48 0 -3 5 -35 17 -71 26 -36 10 -68 22 -71 27 -3 4 -20 8 -37 8 -18 1 -43
7 -57 15 -25 14 -89 21 -76 8z"/>
<path d="M3170 2695 c7 -8 17 -15 22 -15 6 0 5 7 -2 15 -7 8 -17 15 -22 15 -6
0 -5 -7 2 -15z"/>
<path d="M3220 2680 c0 -5 4 -10 9 -10 5 0 18 -3 28 -6 16 -5 16 -4 -1 10 -23
18 -36 20 -36 6z"/>
<path d="M2581 2631 c-18 -12 5 -24 79 -42 30 -7 57 -16 60 -19 9 -12 45 -23
95 -31 28 -4 64 -10 80 -14 28 -6 29 -5 12 8 -10 8 -35 18 -55 21 -20 4 -53
13 -72 20 -19 8 -57 23 -85 34 -69 27 -98 33 -114 23z"/>
<path d="M3325 2630 c3 -5 8 -10 11 -10 2 0 4 5 4 10 0 6 -5 10 -11 10 -5 0
-7 -4 -4 -10z"/>
<path d="M3360 2618 c0 -11 178 -98 201 -98 32 0 10 27 -34 40 -23 8 -55 20
-72 29 -49 25 -95 39 -95 29z"/>
<path d="M2970 2500 c0 -5 11 -10 24 -10 14 0 28 -4 31 -10 3 -5 29 -17 58
-26 29 -8 64 -19 80 -24 15 -5 27 -7 27 -4 0 11 -83 54 -104 54 -13 0 -37 7
-52 15 -33 17 -64 20 -64 5z"/>
<path d="M3220 2410 c20 -13 40 -13 40 0 0 6 -12 10 -27 10 -22 0 -25 -2 -13
-10z"/>
<path d="M3352 2364 c10 -10 23 -14 34 -10 16 6 16 8 4 16 -8 6 -24 10 -35 10
-18 0 -18 -1 -3 -16z"/>
<path d="M3545 2290 c3 -5 8 -10 11 -10 2 0 4 5 4 10 0 6 -5 10 -11 10 -5 0
-7 -4 -4 -10z"/>
<path d="M3880 2125 c-105 -30 -154 -64 -165 -116 -12 -54 58 -154 114 -165
17 -4 33 -15 36 -25 4 -11 11 -19 17 -19 5 0 32 -11 59 -25 47 -23 91 -35 147
-39 15 -2 47 -8 72 -15 25 -8 76 -13 115 -13 62 0 72 3 91 26 21 24 22 28 8
72 -18 61 -46 104 -94 148 -22 20 -40 43 -40 51 0 8 -7 15 -16 15 -10 0 -38
20 -64 44 -39 37 -54 44 -103 50 -31 4 -59 12 -62 17 -8 12 -61 10 -115 -6z"/>
<path d="M4460 2000 c0 -4 10 -20 22 -36 12 -16 23 -31 24 -33 2 -2 16 6 32
17 15 11 40 24 55 27 61 16 14 35 -80 33 -29 0 -53 -4 -53 -8z"/>
<path d="M5352 1868 c4 -12 49 -27 93 -31 11 -2 30 -8 42 -15 25 -14 43 -16
43 -3 0 7 -153 61 -174 61 -4 0 -6 -6 -4 -12z"/>
<path d="M5708 1743 c6 -2 18 -2 25 0 6 3 1 5 -13 5 -14 0 -19 -2 -12 -5z"/>
<path d="M5985 1650 c3 -5 11 -10 16 -10 6 0 7 5 4 10 -3 6 -11 10 -16 10 -6
0 -7 -4 -4 -10z"/>
<path d="M6580 1252 c0 -8 58 -32 76 -32 8 1 -64 40 -73 40 -2 0 -3 -4 -3 -8z"/>
<path d="M6765 1180 c3 -5 10 -10 16 -10 5 0 9 5 9 10 0 6 -7 10 -16 10 -8 0
-12 -4 -9 -10z"/>
<path d="M6850 1140 c0 -13 28 -25 38 -16 3 4 0 11 -8 16 -20 13 -30 12 -30 0z"/>
<path d="M7028 1068 c12 -15 92 -48 115 -48 22 0 -16 28 -54 39 -23 7 -48 15
-58 19 -14 5 -14 3 -3 -10z"/>
<path d="M7259 966 c21 -16 39 -22 54 -18 19 5 17 7 -15 16 -20 6 -40 14 -44
19 -4 4 -12 7 -18 7 -5 0 5 -11 23 -24z"/>
<path d="M7385 920 c10 -11 31 -22 49 -26 17 -3 39 -13 49 -22 26 -23 86 -42
93 -30 10 15 -10 29 -57 39 -24 6 -51 17 -61 25 -9 9 -33 19 -53 24 -35 8 -36
8 -20 -10z"/>
</g>
</svg>
