<svg xmlns="http://www.w3.org/2000/svg" width="600" height="577.999" viewBox="0 0 600 577.999"><path d="M204.917 236.524c-6.74-1.923-8.842-11.895-9.616-17.843-.773-5.947 2.3-42.783 7.871-48.354 5.551-5.571 13.878-12.867 18.933-10.944 5.036 1.923 2.935 11.519 1.587 12.292-1.349.753-19.568 22.066-20.143 34.536-.575 12.47 6.324 18.022 11.122 17.268 4.798-.773 10.369-3.846 11.717-9.02 1.328-5.195-1.725-17.09-8.07-15.544-6.324 1.527-8.524 9.14-.574 13.244 0 0-3.073 2.101-5.373 1.526-2.3-.575-5.174-7.87-2.3-14.591 2.875-6.701 21.115-26.666 22.641-29.54 1.527-2.875 11.32-23.394 11.122-26.09 0 0-11.578 1.803-22.878 5.372-8.525 2.696-16.852 6.423-19.905 11.122-7.098 10.944-14.255 36.836-15.662 50.278-1.408 13.422-.635 36.439 9.337 41.435 9.973 4.996 17.645.813 21.095-3.707 3.47-4.54 9.595-22.958 9.595-22.958s-13.739 13.422-20.5 11.518zm-53.35-39.73s-1.17 3.271 1.149 4.62c1.328.773-1.269 17.366-3.707 31.324-.397 2.14-.754 4.222-1.11 6.185.416 3.113-.377 7.633-1.329 10.25-1.546 4.223-.198 14.592-.198 14.592s9.972-7.098 14.393-6.345c4.421.774 15.543-5.372 15.742-6.899.178-1.526-10.17-11.32-10.369-13.342 0 0-2.875 10.904-4.6 10.785-1.724-.12-6.145-3.767-5.372-7.812.753-4.024 5.55-26.467 5.947-20.142.377 6.344 3.589 9.218 5.155 7.097 1.546-2.101 4.243-20.143 3.291-21.867-.971-1.725-5.194-.575-5.194 1.15 0 1.724-1.15 7.295-3.252 6.145-2.12-1.15-1.348-16.494 8.446-16.891 5.492-.218 7.236-.178 7.712-.119.436-1.705 5.512-21.193 5.333-25.971 0 0-26.685 19.19-32.038 27.24zm229.182-4.223c-.555-2.18-2.121-4.758-4.837-5.472-1.546-.396-2.538-.158-2.954.714-.595 1.23.119 3.41.872 3.985.853.634 1.07 1.844.496 2.775-.615 1.031-2.26 1.805-4.838.575-.495-.257-.872-.713-1.07-1.407-1.626-5.254 5.868-24.227 8.525-28.827 2.498-4.341 5.928-17.109 6.7-20.023-1.09-.04-3.568-.14-6.879-.258-.178 0-.337-.02-.515-.02-.139 0-.258 0-.396-.02-5.83-.178-13.204-.376-20.163-.476-2.38-.04-4.699-.059-6.9-.059-8.187 0-11.915.238-13.48.516-.358.059-.615.118-.774.178-.04.02-.08.02-.099.04-.198.237-.357.436-.456.574l-.159.179c-1.03 2.458 1.309 9.338 2.36 11.975 2.061 1.328 3.073.257 4.718-1.487.436-.456.892-.952 1.408-1.408 2.716-2.518 5.987-.932 6.126-.853l.277.12v.297c.02.396.932 39.85 0 49.009-.257 2.498-1.308 4.46-3.073 5.828-3.172 2.459-7.751 2.28-9.357 2.141v5.314c17.268 1.249 25.416 17.644 28.568 26.526-1.844-15.226-6.8-55.511-8.505-65.483-2.121-12.61 5.512-24.108 11.697-25.714 1.25-.337 2.26-.1 2.994.654 2.3 2.399 1.368 10.527-2.776 24.148-4.361 14.353-1.447 20.519.674 22.918.892 1.03 2.122 1.606 3.648 1.665 2.34.139 5.175-1.01 7.137-2.855 1.23-1.17 1.646-3.43 1.031-5.769zm31.285 19.013c8.07-6.027 12.034.634 13.442 3.45 1.407 2.815-6.027 5.749-6.523 3.072-.515-2.696 2.934-4.46 2.934-4.46s0-1.309-2.438-2.716c-2.419-1.408-7.534 7.176-3.826 11.38 3.707 4.222 11.122-.635 13.56-5.116 2.419-4.46-3.212-10.606-10.11-12.272-6.9-1.665-12.67 7.554-14.077 10.488-1.408 2.934 9.734 19.191 11.003 25.317 1.289 6.146-10.745 5.512-16.118.516-5.373-4.976-1.487-42.804 2.24-44.25 3.747-1.448 10.468 6.998 10.468 6.998l-6.146-22.145s-1.05 1.15-1.447 2.735c-.396 1.606-3.569 4.422-6.642 3.906-3.072-.515-5.57-17.526-1.923-20.341 3.648-2.815 12.154 9.338 16.832 11.201 4.66 1.844 8.505-3.33 8.942-6.66.456-3.332-7.613-6.008-10.032-2.677-2.439 3.31-24.405-23.89-24.405-23.89-.734 99.663-8.09 109.397-8.09 109.397s6.147 2.478 10.171 0c4.025-2.498 17.843-5.194 22.245-3.47 4.42 1.745 21.887 0 21.887 0l-17.665-20.519s-12.331-13.937-4.282-19.944zm58.525 26.982c2.994-.515 4.917-6.146 4.401-9.476-.495-3.311-3.826-9.715-9.714-2.816-5.888 6.92-.516 12.808 3.846 18.418 4.342 5.63-14.334 6.146-18.676 6.146-4.361 0 2.3-20.46 0-25.575-2.3-5.115-7.672-32.494-11.003-38.877-3.33-6.404-15.86-8.942-15.86-8.942 10.23 19.469 13.045 75.773 13.045 75.773 2.577 1.13 55.273 18.18 56.522 18.577-.733-.932-25.535-32.712-22.561-33.228zm-151.903-68.299a62.647 62.647 0 0 1 3.707-4.738c.159.456 9.358-16 4.243-19.31-5.135-3.33-18.418-1.308-22.522-4.104-4.084-2.815-13.818 1.804-16.634 5.115-2.815 3.33 1.29 22.522 21.491 33.267l.654.357c-1.07 1.765-2.002 3.192-2.636 4.045-3.073 4.222-3.073 16.058 3.45 16.475 6.522.416 13.302-1.606 7.493-10.33-5.808-8.723-9.793 4.144-6.919 5.135 0 0 1.547-4.183 3.073-3.41 1.547.774 2.28 6.027-3.251 4.421-3.311-.951-2.657-7.275.892-15.087 16.931 10.528 11.677 23.731 8.505 24.227-3.33.515-19.805-2.22-20.262-7.633-.455-5.412 1.071-20.004-1.744-20.242-2.815-.257-9.457 2.796-9.457 7.157 0 4.342 3.33 6.265 6.146 5.63 2.795-.653-6.285 13.542-6.285 13.542s5.512-.238 7.812 3.073c2.3 3.33 20.598 7.038 25.832 5.372 5.254-1.645 15.345-13.422 14.71-18.16-.614-4.62-14.492-22.502-18.298-24.802zm-2.082-1.05c-6.304-3.212-23.315-12.391-22.343-15.9 1.09-3.966 4.361-9.596 9.338-6.146 4.044 2.795 12.926 8.287 17.129 14.948 0 0-1.804 3.133-4.124 7.098zm-176.526 62.311c-5.274 1.448-1.924 18.716-2.598 21.69-.674 2.973-7.295 7.95-9.873 6.522-2.597-1.447-1.447-6.523-1.447-6.523s21.213-39.63 21.967-42.605c.773-2.973-2.617-9.595-2.617-9.595s-32.296 55.828-31.92 72.343c0 0 28.41-9.02 28.212-14.393-.198-5.373-.06-23.593 3.708-23.414.04 0 .099 0 .139.02.237-1.626.079-3.153-.179-4.362-1.586-.277-3.47-.218-5.392.317zm135.051-80.75c1.388-1.922 1.844-4.837 1.011-6.62-.456-.952-1.21-1.488-2.26-1.547-1.368-.1-5.65.257-12.728 1.07-.297.04-.595.06-.892.1-.297.04-.595.059-.892.099-2.835.337-5.591.674-7.772.951-2.062.238-3.628.456-4.282.535-.872 5.076-10.706 62.233-12.213 71.016-.475 2.716-1.467 7.454-2.636 12.946-2.578 12.331-6.047 28.866-6.583 36.439 12.173-17.942 33.724-49.802 34.318-50.952.14-.317.556-.872 1.19-1.724 1.963-2.617 6.027-8.07 4.996-10.746-.297-.753-1.03-1.249-2.24-1.467-4.48-.853-7.137.595-8.109 2.24-.852 1.408-.614 3.172.615 4.68 3.548 4.36-10.825 16.474-12.47 17.842l-.853.714.04-1.11c.06-1.468 1.645-35.766 14.571-36.559 8.05-.476 13.184 3.252 15.286 6.88 1.487 2.577 1.645 5.333.416 7.196-2.18 3.311-1.824 11.578.08 13.521.455.476.931.496 1.546.12 3.628-2.32 9.397-11.043 10.19-12.253-.377-5.947-1.348-17.526-2.498-19.865-1.447-2.835-10.329-30.095-7.83-33.505zm-22.82 30.87s4.799-21.69 8.248-26.488c1.051-1.447 2.003-2.002 2.816-2.002 1.903 0 3.033 2.954 2.676 4.699-.496 2.498.852 20.34 2.756 23.79H252.28z" fill="#8883b8"/><path d="M493.517 271.497c-8.01-10.171-22.66-29.858-22.72-32.475 3.271-.733 5.174-6.602 4.659-10.012-.317-2.061-1.705-5.432-4.282-6.165-1.943-.555-4.065.495-6.305 3.112-5.789 6.8-1.11 12.748 3.014 18.002l.812 1.03c.793 1.032.516 1.607.437 1.805-1.388 2.815-12.847 3.549-18.716 3.549a.61.61 0 0 1-.495-.218c-1.09-1.27-.278-6.78.436-11.638.793-5.393 1.625-10.964.515-13.422-.991-2.18-2.597-8.743-4.302-15.662-2.26-9.18-4.817-19.588-6.72-23.255-3.39-6.523-15.683-9.08-16.198-9.2l-1.031-.198.496.932c10.051 19.152 12.965 75 12.985 75.555l.02.317.278.12c2.636 1.15 56.046 18.437 56.562 18.596l1.546.476-.991-1.25zm-56.443-18.617c-.238-4.52-3.212-55.353-12.61-74.722 3.034.773 11.876 3.39 14.513 8.465 1.844 3.55 4.401 13.878 6.642 23.018 1.784 7.276 3.33 13.56 4.341 15.82.992 2.201.159 7.871-.575 12.887-.852 5.81-1.606 10.805-.198 12.43.317.358.734.556 1.23.556 2.933 0 17.664-.198 19.587-4.104.436-.872.258-1.824-.516-2.835l-.812-1.05c-4.084-5.195-8.307-10.568-3.054-16.753 1.963-2.3 3.728-3.232 5.274-2.796 2.121.615 3.311 3.609 3.569 5.373.515 3.31-1.467 8.465-3.985 8.902a.8.8 0 0 0-.595.495c-1.031 2.677 17.268 26.388 21.848 32.257-8.763-2.816-50.278-16.277-54.66-17.943zm-20.38-21.689c-.08-.08-7.495-8.545-6.86-14.869.198-1.784 1.03-3.251 2.497-4.342 2.617-1.943 4.996-2.696 7.098-2.2 2.161.515 4.044 2.359 5.61 5.471.219.476.12.972-.297 1.507-.991 1.23-3.39 2.161-4.659 1.844-.495-.119-.614-.397-.634-.595-.456-2.28 2.637-3.905 2.656-3.925l.278-.139v-.297c0-.159-.08-1.646-2.676-3.153-.972-.555-2.28-.02-3.47 1.448-2.042 2.458-3.747 7.573-.991 10.705 1.19 1.349 2.855 1.943 4.798 1.745 3.866-.436 7.89-3.886 9.575-6.959.833-1.546.833-3.35.02-5.214-1.566-3.529-5.77-6.641-10.448-7.771-2.022-.496-3.965-.1-5.73.812l-6.78-24.405-.595.654c-.06.06-1.15 1.27-1.566 2.954-.337 1.309-3.212 4.005-6.086 3.53-.595-.1-1.547-1.567-2.3-4.62-1.427-5.69-1.467-13.243.595-14.83 1.883-1.467 5.908 2.38 9.457 5.77 2.557 2.438 4.976 4.738 6.899 5.491 1.725.694 3.529.536 5.174-.436 2.538-1.506 4.164-4.46 4.441-6.621.218-1.567-1.11-3.133-3.43-4.065-2.517-1.01-5.927-1.13-7.494 1.031-.02.04-.06.08-.198.08h-.02c-2.954 0-15.602-14.334-23.414-23.99l-.852-1.07-.02 1.388c-.377 50.833-2.498 77.736-4.223 91.336-1.903 14.968-3.687 17.665-3.767 17.764l-.396.515.614.238c.159.08 2.875 1.15 5.908 1.15 1.586 0 3.272-.297 4.7-1.19 3.806-2.359 17.426-5.134 21.807-3.43 4.48 1.765 21.392.1 22.106.04l.951-.099-18.279-21.253zm-4.422 20.4c-4.699-1.843-18.636.992-22.68 3.51-3.113 1.903-7.673.654-9.2.139 1.428-3.073 7.157-20.778 7.851-107.732 4.164 5.075 19.31 23.275 23.335 23.275h.02c.416 0 .753-.179.971-.476 1.21-1.665 4.084-1.606 6.325-.714 1.863.754 2.973 1.943 2.815 3.034-.238 1.863-1.705 4.56-3.945 5.888-1.408.813-2.855.951-4.322.377-1.745-.694-4.184-3.034-6.563-5.294-4.024-3.846-8.188-7.831-10.745-5.849-2.696 2.082-2.3 10.548-.971 15.86.574 2.3 1.586 5.116 3.112 5.374 3.41.555 6.76-2.479 7.197-4.283.178-.694.495-1.288.773-1.744l5.274 19.012c-2.28-2.498-6.582-6.601-9.576-5.432-.436.159-1.765.674-3.232 8.426-2.022 10.646-3.529 32.613.833 36.638 3.866 3.608 11.519 5.194 15.127 3.152 1.546-.872 2.18-2.34 1.804-4.124-.575-2.835-3.192-7.732-5.73-12.45-2.656-4.976-5.967-11.162-5.293-12.55 1.606-3.37 7.197-11.756 13.501-10.23 4.322 1.05 8.347 4.025 9.774 7.217.694 1.586.714 3.073.02 4.341-1.527 2.796-5.333 6.047-8.822 6.444-1.626.178-2.954-.298-3.926-1.428-2.28-2.577-.892-7.117.992-9.397.852-1.03 1.724-1.507 2.2-1.21 1.507.853 1.983 1.646 2.121 2.023-.912.575-3.33 2.3-2.854 4.817.138.675.614 1.17 1.368 1.368 1.665.397 4.46-.674 5.69-2.18.673-.853.812-1.765.396-2.578-1.685-3.39-3.807-5.412-6.265-5.987-2.399-.575-5.055.218-7.91 2.36-1.705 1.268-2.657 2.953-2.875 5.035-.694 6.74 6.76 15.266 7.078 15.622l17.03 19.806c-3.688.317-17.03 1.388-20.698-.06zm-7.732-36.399c-.813 1.725 1.467 6.225 5.333 13.442 2.498 4.679 5.075 9.496 5.65 12.192.278 1.368-.178 2.4-1.348 3.073-2.934 1.646-10.091.575-13.957-3.013-3.628-3.35-2.835-23.672-.535-35.745 1.328-6.999 2.498-7.633 2.617-7.693.238-.08.495-.119.773-.119 2.894 0 7.474 4.897 9.12 6.979l.912 1.13c-4.164 2.3-7.375 7.296-8.565 9.754zm-67.09-20.182c-.317-2.42-3.766-7.831-7.672-13.046-3.906-5.194-8.267-10.21-10.428-11.796a57.477 57.477 0 0 1 3.39-4.322l-.02-.02c1.19-1.209 4.104-7.474 5.194-11.36 1.25-4.48.912-7.414-1.03-8.663-2.796-1.804-7.713-2.082-12.47-2.36-4.224-.257-8.209-.475-10.052-1.744-4.362-2.994-14.275 1.645-17.288 5.214-.972 1.15-1.19 3.628-.575 6.82 1.606 8.287 8.267 19.786 22.204 27.2l.199.1c-.932 1.546-1.765 2.795-2.34 3.568-2.081 2.855-2.954 9.477-.971 13.72 1.03 2.18 2.696 3.41 4.778 3.548.495.04 1.03.06 1.625.06 2.855 0 6.602-.536 8.05-3.034 1.13-1.962.555-4.698-1.725-8.128-2.141-3.192-3.985-3.47-5.155-3.113-2.16.615-3.569 3.708-3.628 6.226-.04 1.467.436 2.478 1.289 2.775l.456.159.158-.456c.397-1.07 1.309-2.855 2.062-3.152a.492.492 0 0 1 .337 0c.555.277 1.11 1.685.694 2.755-.377.972-1.526 1.27-3.251.853-.12-.04-.218-.06-.337-.1-.04-.02-.08-.02-.12-.059-.574-.178-.97-.575-1.268-1.19-1.031-2.24-.139-6.938 2.36-12.628 12.033 7.732 11.399 16.237 10.903 18.675-.515 2.498-1.804 4.184-2.696 4.322-2.459.397-13.66-1.249-18.041-4.698-1.031-.813-1.586-1.646-1.646-2.478-.139-1.646-.099-4.184-.04-6.88.16-8.228.08-13.62-2.16-13.818-1.864-.159-5.334.99-7.693 3.152-1.507 1.368-2.3 2.914-2.3 4.5 0 2.141.774 3.926 2.201 5.056 1.23.991 2.875 1.388 4.5 1.07.02 1.329-3.41 7.534-6.76 12.788l-.516.793.952-.04c.06 0 5.274-.198 7.375 2.855 1.963 2.835 15.008 6.007 22.562 6.007 1.566 0 2.894-.139 3.826-.436 5.373-1.685 15.741-13.7 15.067-18.695zm-40.622 12.569c-1.883-2.696-5.59-3.192-7.336-3.271 2.954-4.679 7.217-11.876 6.245-13.244-.099-.138-.376-.436-.951-.297-1.309.277-2.696-.04-3.727-.872-1.17-.932-1.824-2.459-1.824-4.283 0-1.625 1.07-2.954 1.962-3.766 2.102-1.924 5.294-3.034 6.96-2.895 1.486.119 1.328 8.069 1.248 12.827-.06 2.696-.099 5.274.04 6.959.099 1.13.773 2.2 2.022 3.172 4.54 3.569 15.92 5.353 18.814 4.917 1.468-.238 2.954-2.38 3.51-5.115.515-2.617 1.249-11.697-11.46-19.786.258-.575.556-1.15.833-1.725.159-.297.297-.615.456-.912a68.506 68.506 0 0 1 3.37-5.73c.199-.297.417-.594.615-.892a32.85 32.85 0 0 1 1.19-1.705c4.361 3.172 17.109 19.945 17.664 24.168.02.138.02.277.02.416 0 4.817-9.556 15.702-14.393 17.208-5.155 1.646-23.097-2.042-25.258-5.174zm14.254-25.278c-2.716 6.087-3.608 11.023-2.418 13.58.416.933 1.09 1.528 2.002 1.785 3.45 1.011 4.5-.614 4.798-1.348.555-1.408-.04-3.43-1.19-3.985a1.403 1.403 0 0 0-1.13-.06c-1.07.417-1.943 2.122-2.359 3.094-.178-.318-.277-.833-.258-1.468.06-2.12 1.27-4.817 2.915-5.293 1.546-.456 3.053 1.23 4.044 2.716 2.062 3.073 2.617 5.452 1.705 7.078-1.09 1.863-4.282 2.756-8.743 2.478-1.745-.119-3.073-1.11-3.965-2.994-1.804-3.866-1.011-10.11.872-12.688.654-.872 1.606-2.32 2.657-4.084l.02-.02c1.705-2.716 3.965-6.503 6.74-11.221l.238-.397c2.32-3.965 4.124-7.097 4.124-7.097l.139-.278-.159-.238c-3.767-5.987-11.221-11.023-15.682-14.016-.575-.397-1.11-.754-1.586-1.09-1.645-1.13-3.271-1.428-4.798-.893-2.696.991-4.5 4.421-5.293 7.316-1.07 3.846 14.75 12.47 22.125 16.237a428.055 428.055 0 0 1-6.463 10.785l-.238-.139c-13.64-7.256-20.143-18.457-21.709-26.526-.634-3.35-.198-5.314.357-5.988 2.121-2.498 8.466-5.809 12.926-5.809 1.19 0 2.24.238 3.053.793 2.082 1.408 6.186 1.646 10.548 1.904 4.639.257 9.417.535 11.974 2.2.734.456 1.15 1.25 1.289 2.419.575 4.976-4.183 14.037-5.333 15.82l-.298.338a65.908 65.908 0 0 0-3.469 4.401l-.258.357a71.457 71.457 0 0 0-2.042 2.954 87.498 87.498 0 0 0-2.101 3.41 67.802 67.802 0 0 0-2.875 5.57l-.178.397h.02zm9.04-20.162c-.455.793-1.922 3.31-3.746 6.423-13.343-6.84-22.244-13.025-21.67-15.107.694-2.537 2.34-5.809 4.68-6.641a2.99 2.99 0 0 1 1.17-.218c.871 0 1.783.337 2.735.99.456.318.991.675 1.586 1.072 4.322 2.914 11.538 7.771 15.246 13.48zm-54.103-4.282c.357-1.745-.773-4.7-2.676-4.7-.813 0-1.765.556-2.816 2.003-3.45 4.798-8.247 26.487-8.247 26.487h16.495c-1.904-3.45-3.252-21.292-2.756-23.79zm-4.679-2.122c.218-.297.416-.555.635-.773.079-.1.178-.178.257-.258.08-.06.14-.119.179-.158.08-.06.158-.12.238-.159.06-.04.099-.06.138-.08.12-.059.199-.098.298-.118.099-.02.178-.04.258-.04.079 0 .158.02.238.04.079.02.158.06.218.099.079.04.138.08.218.159.079.059.158.138.238.238.118.158.237.336.356.535.1.198.179.396.258.614.198.635.278 1.309.179 1.824-.437 2.24.535 17.308 2.28 22.998h-13.8c1.052-4.6 4.977-20.975 7.812-24.92zm4.679 2.122c.357-1.745-.773-4.7-2.676-4.7-.813 0-1.765.556-2.816 2.003-3.45 4.798-8.247 26.487-8.247 26.487h16.495c-1.904-3.45-3.252-21.292-2.756-23.79zm-4.679-2.122c.218-.297.416-.555.635-.773.079-.1.178-.178.257-.258.08-.06.14-.119.179-.158.08-.06.158-.12.238-.159.06-.04.099-.06.138-.08.12-.059.199-.098.298-.118.099-.02.178-.04.258-.04.079 0 .158.02.238.04.079.02.158.06.218.099.079.04.138.08.218.159.079.059.158.138.238.238.118.158.237.336.356.535.1.198.179.396.258.614.198.635.278 1.309.179 1.824-.437 2.24.535 17.308 2.28 22.998h-13.8c1.052-4.6 4.977-20.975 7.812-24.92zm123.414-11.201l.159-.595-.615-.02s-2.716-.099-6.9-.257l.16-.14c-.298-.356-1.844-2.14-3.232-2.378-.773-.238-5.512-3.212-9.635-5.988l-.298-.138c-.079-.02-2.081-.556-5.115-1.428h-.02c1.13-.535 2.38-1.447 3.807-2.875 3.985-3.984 9.239-11.954 8.347-14.79-.496-1.605-1.924-3.112-3.906-4.103-1.844-.952-5.75-2.24-11.182-.377-2.18.753-3.35 1.864-3.489 3.291-.297 2.954 4.163 5.67 5.056 6.186l.872.495.496-.872c.535-.991.911-1.546 1.189-1.883.06.515.1 1.368.02 2.676-.06.912-.377 1.546-.912 1.864-.635.376-2.28.773-6.126-.972-3.747-1.705-4.045-23.136-4.203-34.655-.08-5.214-.139-9.734-.417-12.133-.99-9.001-12.39-23.493-18.18-26.487-4.064-2.102-16.574-1.903-23.89-1.566.199-3.747.1-14.017-6.443-19.628 6.94-2.339 15.94-6.185 16.04-13.917.078-6.225-2.955-11.717-7.376-13.382-2.994-1.13-6.086-.159-8.446 2.617-1.685 2.002-2.042 3.588-1.903 4.758-.06 0-.119-.02-.178-.02-3.034 0-5.512 2.478-5.512 5.511 0 3.034 2.478 5.492 5.512 5.492a5.491 5.491 0 0 0 5.491-5.492c0-.634-.119-1.209-.317-1.764a4.565 4.565 0 0 0 1.428-.278c1.17-.495 1.764-1.506 1.586-2.716l-1.943.298c.02.198.02.416-.397.575-.555.218-1.368.158-2.101-.12a6.719 6.719 0 0 0-1.309-.911c-.892-1.27.337-3.073 1.15-4.045 1.824-2.14 4.045-2.874 6.245-2.042 3.073 1.15 6.166 5.472 6.087 11.5-.1 6.879-9.517 10.388-16.04 12.509-1.486-.892-3.25-1.566-5.293-1.963-5.452-1.03-8.782-3.727-9.893-7.99-1.209-4.58.655-9.694 1.765-10.626 1.19-.991 6.384-1.784 9.12-1.11.773.178 1.01.436 1.03.476 0 .04-.02.238-.356.654-2.2 2.656-4.243 3.39-4.6 3.29-.02-.039-.04-.257.1-.673l-1.884-.635c-.654 1.943.297 2.736.753 2.974 1.626.912 4.64-.634 7.157-3.687 1.507-1.824.536-3.053.199-3.37-2.201-2.201-10.686-1.19-12.788.574-1.665 1.388-3.826 7.237-2.419 12.63.912 3.489 3.628 7.95 11.44 9.436 1.09.198 2.042.535 2.934.892-1.05.357-1.903.655-2.538.952-4.024 1.883-6.106 14.79-6.7 19.092-7.257-.198-16.694-.06-20.124 1.705-5.789 2.994-17.188 17.486-18.18 26.487-.277 2.399-.337 6.919-.396 12.133-.179 11.519-.476 32.95-4.203 34.655-3.866 1.725-5.512 1.348-6.126.972-.555-.318-.853-.952-.932-1.864-.08-1.308-.04-2.161.02-2.676.277.337.654.892 1.209 1.883l.476.872.872-.495c.892-.516 5.353-3.232 5.056-6.186-.14-1.427-1.309-2.538-3.49-3.291-5.432-1.864-9.337-.575-11.161.377-2.003.991-3.43 2.498-3.926 4.104-.892 2.835 4.382 10.805 8.347 14.79a19.854 19.854 0 0 0 2.636 2.22c-2.735.654-5.273 1.09-7.156 1.09-7.435 0-9.12 13.164-9.279 14.612-5.095 1.645-9.298 3.41-12.53 5.253-3.231 1.864-5.511 3.787-6.82 5.79-6.899 10.646-14.254 36.34-15.741 50.495-1.269 12.213-.912 36.658 9.615 41.931 3.272 1.646 6.344 2.34 9.1 2.34 5.67 0 10.091-2.875 12.61-6.186 3.469-4.54 9.416-22.343 9.674-23.097l.635-1.943-1.448 1.428c-.138.139-13.62 13.184-20.024 11.4-4.758-1.349-7.95-7.376-9.258-17.427-.793-6.146 2.34-42.546 7.732-47.938 8.545-8.585 14.73-12.233 18.398-10.845 2.102.813 2.696 3.093 2.835 4.857.258 3.153-.813 6.265-1.308 6.543-1.408.793-19.806 22.145-20.4 34.952-.417 9.1 3.013 13.6 5.094 15.464 2.023 1.804 4.421 2.657 6.602 2.32 5.016-.813 10.726-4.025 12.114-9.398 1.01-3.905-.397-11.28-3.629-14.552-1.467-1.486-3.211-2.042-5.035-1.586-3.311.793-5.67 3.212-6.027 6.146-.357 2.935 1.308 5.65 4.58 7.594-.992.555-2.835 1.387-4.263 1.03-.436-.118-1.15-.713-1.824-2.081-1.388-2.796-1.982-7.554-.139-11.836 1.804-4.223 9.933-13.937 15.86-21.035 3.45-4.124 6.186-7.395 6.761-8.465 1.09-2.062 11.36-23.295 11.182-26.349l.496-.02c-.04-1.347.218-5.253 2.081-7.037.773-.734 1.745-1.051 2.994-.932.396.04.773.099 1.15.198l-.516 8.307c-2.28.277-3.747.476-3.747.476l-.376.06-.06.356s-10.686 62.173-12.272 71.372c-.456 2.676-1.447 7.415-2.617 12.906-2.795 13.402-6.661 31.76-6.661 38.343v1.606l.912-1.329c1.407-2.081 34.556-50.951 35.329-52.498.119-.237.575-.852 1.11-1.566 2.22-2.974 6.364-8.525 5.115-11.697-.416-1.09-1.427-1.804-2.954-2.101-4.996-.932-8.01.793-9.16 2.716-1.07 1.804-.812 3.965.714 5.829 2.082 2.577-5.61 10.685-11.479 15.701.397-6.007 2.796-33.802 13.6-34.456 7.574-.456 12.411 2.993 14.354 6.383 1.289 2.26 1.467 4.6.437 6.146-2.3 3.51-2.181 12.352.198 14.77.793.813 1.784.892 2.775.258 4.084-2.577 10.33-12.272 10.587-12.669l.08-.138v-.179a256.82 256.82 0 0 0-.734-9.278c-.456-4.64-1.09-9.556-1.883-11.122-1.884-3.727-9.874-29.798-7.91-32.474 1.605-2.201 2.08-5.552 1.11-7.633-.615-1.289-1.666-2.022-3.074-2.122-1.387-.099-5.313.219-11.994.972 3.232-4.223 9.853-11.915 13.957-12.847-.357 1.645-.555 3.45-.198 4.936.337 1.487 1.725 2.36 3.806 2.36 2.657 0 6.92-1.487 7.395-3.53.199-.852-.138-1.843-.931-2.735-1.309-1.507-4.005-2.895-7.415-3.113.198-.614.396-1.11.555-1.467l-1.824-.773c-.04.1-.416.991-.833 2.26-.079 0-.178.02-.277.02-5.314.515-13.065 10.052-15.84 13.72-1.448-2.539-4.937-7.495-10.27-7.95-1.805-.16-3.331.336-4.52 1.486-2.479 2.36-2.697 6.78-2.697 8.148v.02c-2.795.476-11.776 2.122-20.797 4.857.297-2.022.971-5.015 2.121-7.494 1.17-2.498 2.816-4.48 5.096-4.48 2.795 0 6.8-.853 10.804-2.022.06-.02.12-.02.179-.04l.515-.159c.317-.099.674-.198 1.051-.317 5.69-1.725 11.102-3.886 12.867-4.877 2.835-1.586 26.645-7.553 39.433-7.553 11.836 0 23.87.257 29.659 3.35 5.63 3.014 37.133 11.737 39.948 12.51 2.776 1.864 9.02 5.967 10.21 6.186.199.04.516.218.853.495a910.663 910.663 0 0 0-18.16-.436c-.456-2.399-2.36-6.463-6.84-7.216v-1.29h-1.983v1.17c-.475.02-.951.08-1.467.16-6.304 1.05-10.825 5.293-12.946 7.75-2.458-2.874-10.15-11.537-15.603-14.154.04-.793.02-1.686-.04-2.657l-1.982.119c.04.694.06 1.308.06 1.903a4.142 4.142 0 0 0-1.289-.08c-3.687.397-6.443 1.904-7.355 4.085-.595 1.407-.337 2.914.733 4.243 1.09 1.367 2.875 1.883 4.68 1.328 2.517-.753 4.301-3.271 4.956-6.84 5.987 3.251 15.007 14.136 15.087 14.255l.099-.08c-.793 3.866 2.458 11.836 2.597 12.193l.06.139.118.099c2.836 1.903 4.422.218 6.127-1.566.416-.436.852-.912 1.348-1.368 1.824-1.685 4.005-1.09 4.738-.793.1 3.786.892 39.889 0 48.533-.238 2.22-1.13 3.965-2.676 5.154-3.49 2.697-9.12 1.903-9.18 1.884l-.575-.08v7.376l.476.02c22.919 1.288 29.52 30.154 29.798 31.383l.971-.158c-.337-2.855-7.156-59.24-9.199-71.293-2.042-12.094 5.115-23.077 10.944-24.604.892-.238 1.566-.099 2.042.397 1.13 1.19 2.28 5.789-3.013 23.176-4.5 14.81-1.388 21.312.872 23.85 1.07 1.23 2.577 1.923 4.362 2.003.138 0 .277.02.396.02 2.558 0 5.413-1.23 7.455-3.153 1.506-1.427 2.022-4.005 1.328-6.72-.635-2.46-2.419-5.374-5.571-6.186-2.696-.694-3.708.475-4.084 1.229-.793 1.645 0 4.322 1.17 5.214.455.337.555.971.257 1.487-.416.654-1.586 1.11-3.568.158-.258-.099-.437-.376-.575-.793-1.448-4.698 5.809-23.453 8.465-28.053 2.875-4.996 6.78-20.202 6.94-20.856zM301.071 11.029c.535.614.872 1.407.872 2.3a3.529 3.529 0 0 1-3.51 3.509c-1.942 0-3.528-1.587-3.528-3.51a3.537 3.537 0 0 1 3.529-3.529c.436 0 .852.1 1.229.238a4.65 4.65 0 0 0 1.408.992zm-23.097 118.596c3.053.08 5.452 1.249 6.503 2.439.396.456.515.832.475.99-.238.615-3.35 2.162-5.848 1.983-.872-.06-1.388-.337-1.487-.812-.297-1.27-.04-3.014.357-4.6zm-16.852 14.056c7.078-.813 11.36-1.17 12.728-1.07 1.05.06 1.804.595 2.26 1.546.833 1.784.377 4.699-1.01 6.622-2.499 3.41 6.383 30.67 7.83 33.505 1.15 2.34 2.121 13.918 2.498 19.865-.793 1.21-6.562 9.933-10.19 12.252-.615.377-1.09.357-1.547-.119-1.903-1.943-2.26-10.21-.079-13.52 1.23-1.864 1.07-4.62-.416-7.197-2.102-3.628-7.236-7.356-15.286-6.88-12.926.793-14.512 35.091-14.571 36.559l-.04 1.11.853-.714c1.645-1.368 16.018-13.481 12.47-17.843-1.23-1.507-1.467-3.271-.615-4.679.972-1.645 3.628-3.093 8.109-2.24 1.21.218 1.943.714 2.24 1.467 1.031 2.677-3.033 8.129-4.996 10.746-.634.852-1.05 1.407-1.19 1.724-.594 1.15-22.145 33.01-34.318 50.952.536-7.573 4.005-24.108 6.583-36.44 1.17-5.491 2.16-10.23 2.636-12.945 1.507-8.783 11.34-65.94 12.213-71.016.654-.079 2.22-.297 4.282-.535 2.181-.277 4.937-.614 7.772-.951.297-.04.595-.06.892-.1.297-.04.595-.06.892-.099zm-8.148-7.256h.02c3.033 1.666 5.075 4.996 5.888 6.503-2.28.258-4.46.535-6.344.773l.436-7.276zm-27.34 41.198c-5.967 7.157-14.155 16.93-16.019 21.272-.912 2.102-1.249 4.223-1.249 6.186 0 2.597.615 4.917 1.408 6.503.714 1.447 1.606 2.36 2.478 2.577 2.478.615 5.63-1.507 5.77-1.586l.693-.476-.753-.376c-3.37-1.745-5.135-4.303-4.798-7.019.297-2.517 2.38-4.6 5.274-5.313 1.487-.357 2.874.08 4.104 1.328 2.934 2.974 4.302 9.973 3.37 13.62-1.289 4.917-6.622 7.891-11.32 8.644-1.864.298-3.985-.456-5.79-2.061-3.31-2.994-5.055-8.327-4.758-14.691.575-12.351 18.498-33.267 19.885-34.12 1.13-.654 2.062-4.5 1.824-7.494-.238-2.954-1.427-4.917-3.47-5.69-4.123-1.566-10.487 2.042-19.468 11.043-5.71 5.73-8.822 42.427-8.01 48.77 1.389 10.627 4.74 16.773 9.973 18.26 5.71 1.606 15.761-6.86 19.528-10.27-1.645 4.778-6.146 17.368-8.882 20.936-3.509 4.62-11.003 8.307-20.48 3.569-10.031-5.036-10.309-28.985-9.06-40.94 1.467-14.076 8.743-39.532 15.583-50.06 2.518-3.885 9.318-7.652 19.647-10.923 9.635-3.053 19.608-4.818 22.165-5.254-.773 4.044-9.338 22.125-11.003 25.258-.535.991-3.37 4.381-6.642 8.307zm68.26-147.68c.753-.338 2.081-.774 3.628-1.27.158-.059.317-.099.476-.158 7.117 4.897 7.018 15.523 6.78 18.973-1.884.099-3.132.178-3.41.198h-5.888c-.436-.02-3.311-.238-7.137-.377.951-6.899 3.191-16.256 5.55-17.367zm6.522 19.726v1.665h-3.965v-1.665h3.965zm-59.199 81.899a5.57 5.57 0 0 1-.614.198c-.14.04-.278.08-.397.12l-.377.118-.178.06h-.08c-.673.138-2.14-.516-4.38-2.756-4.481-4.48-8.288-11.44-7.871-12.788.337-1.09 1.447-2.18 2.934-2.934.971-.495 2.617-1.11 4.877-1.11 1.368 0 2.954.238 4.738.852.793.258 2.102.813 2.181 1.606.1 1.051-1.665 2.657-3.232 3.728-1.01-1.666-1.962-2.637-3.073-2.32-1.15.337-1.546 1.863-1.328 5.115.119 2.002 1.09 2.974 1.864 3.45 1.725 1.03 4.401.733 7.97-.873 4.52-2.042 5.095-17.05 5.372-36.439.06-5.155.12-9.615.377-11.935.932-8.307 11.796-22.185 17.13-24.94 4.163-2.162 20.34-1.587 27.339-1.11v1.823c-2.201.159-8.664.516-20.46-.099-3.55-.178-6.76 1.328-9.556 4.46-8.248 9.26-10.31 30.056-9.814 32.97.654 3.986 11.915 19.767 19.588 22.265 3.786 1.229 7.771.02 10.626-3.232 1.527-1.725 2.736-4.203 1.963-5.809-.852-1.804-3.866-2.16-6.384-1.606-2.637.595-4.203 2.003-4.203 3.747 0 1.15.377 1.844 1.09 2.062.278.08 1.012.298 2.24-1.09.14 1.01-.019 2.22-1.308 2.974-.773.456-1.19.277-1.447.099-1.15-.773-1.844-3.589-1.467-6.007.119-.873 1.07-1.487 1.864-1.844 3.092-1.408 8.445-1.21 11.003.416 1.11.714 1.705 2.459 1.665 4.818-.099 4.203-2.141 8.862-4.44 10.19-3.708 2.121-20.223-4.124-23.99-6.503-4.104-2.597-8.346-.119-8.525-.02l-.515.318.04.614c1.308 16.356-6.543 19.925-11.222 21.412zm41.099-64.909l-.754-.456-.158.417c-3.073-.337-5.492-2.935-5.492-6.107 0-3.39 2.776-6.165 6.166-6.165 3.41 0 6.185 2.775 6.185 6.165 0 3.33-2.656 6.027-5.947 6.146zm3.727 13.263c0 1.25.02 2.32.178 3.173.357 1.784 1.348 3.33 2.24 4.44H275c2.379-4.222 6.086-14.214 7.573-18.298 3.39 2.775 3.43 7.315 3.47 10.685zm-5.254 22.602l-.08-.16c.04-.019.1-.039.16-.039 2.16-.495 3.905-.02 4.163.496.178.396-.12 1.923-1.666 3.668a9.783 9.783 0 0 1-2.775 2.16c1.606-1.982.932-4.738.198-6.125zm43.914 20.103c-6.186-3.291-18.498-3.569-30.591-3.569-12.748 0-36.915 5.849-40.405 7.811-.713.397-2.062 1.011-3.826 1.725h-.02c2.657-2.934 4.719-7.553 4.719-15.028 0-.931-.04-1.883-.1-2.894 1.051-.476 3.53-1.25 5.909.238 3.45 2.18 21.094 9.377 26.03 6.562 3.232-1.864 5.334-7.613 5.433-11.876.06-3.092-.853-5.412-2.578-6.522-3.152-2.002-9.179-2.26-12.906-.555-2.22 1.01-2.855 2.379-2.994 3.35-.376 2.459.08 5.61 1.586 7.296-.04 0-.079-.02-.119-.02-6.76-2.2-17.664-17.208-18.259-20.717-.436-2.657 1.646-22.68 9.338-31.305 2.379-2.676 5.095-3.945 7.99-3.806 1.447.079 2.795.138 4.103.178-2.438 1.427-4.084 4.025-4.084 7.018 0 4.025 2.954 7.375 6.8 8.01-2.656 7.276-6.879 18.06-8.247 19.27l-1.982 1.725h23.037l-2.122-1.765c-.02-.02-2.676-2.22-3.25-5.055-.12-.654-.14-1.646-.14-2.795-.04-3.39-.099-8.287-3.548-11.638 3.31-1.011 5.769-4.084 5.769-7.752 0-2.875-1.527-5.392-3.787-6.84 5.849-.02 8.644-.297 9.06-.356h5.83c.297.04 1.902.198 5.094.297-2.32 1.447-3.866 3.985-3.866 6.9 0 4.123 3.073 7.493 7.038 8.048-3.192 3.331-3.251 8.05-3.29 11.34 0 1.15-.02 2.142-.14 2.796-.574 2.815-3.231 5.036-3.25 5.075l-2.102 1.745h23.017l-1.983-1.725c-1.387-1.229-5.749-12.37-8.366-19.627 3.133-1.15 5.393-4.124 5.393-7.653 0-2.914-1.567-5.452-3.866-6.899 2.3-.06 4.936-.139 7.91-.297 2.934-.14 5.61 1.13 7.99 3.806 7.692 8.624 9.774 28.648 9.338 31.305-.595 3.509-11.5 18.517-18.26 20.717-.04 0-.079.02-.119.02 1.507-1.685 1.963-4.837 1.606-7.296-.158-.971-.793-2.34-3.013-3.35-3.727-1.705-9.754-1.447-12.907.555-1.724 1.11-2.636 3.43-2.557 6.522.099 4.263 2.2 10.012 5.412 11.876 4.937 2.815 22.581-4.381 26.031-6.562 2.38-1.487 4.857-.714 5.928-.238-.773 11.618 2.994 17.208 7.038 20.103-9.913-2.895-21.63-6.483-24.722-8.148zm-11.915-56.424l-.357.218a6.12 6.12 0 0 1-1.705.258 6.172 6.172 0 0 1-6.166-6.166c0-3.39 2.775-6.165 6.166-6.165 3.41 0 6.185 2.775 6.185 6.165 0 2.677-1.725 4.917-4.084 5.79l-.04-.1zm6.562 21.332h-13.462c.892-1.11 1.884-2.656 2.24-4.44.159-.853.179-1.924.179-3.173.04-3.37.08-7.91 3.47-10.685 1.486 4.084 5.194 14.076 7.573 18.298zm37.847 44.529l-.536-.179c-4.44-1.328-13.66-4.104-12.252-21.729l.04-.614-.516-.317c-.119-.06-2.002-1.17-4.44-1.17a7.497 7.497 0 0 0-4.085 1.19c-3.767 2.378-20.281 8.623-23.988 6.502-2.3-1.328-4.342-5.987-4.422-10.19-.06-2.36.536-4.104 1.646-4.818 2.557-1.626 7.91-1.824 11.003-.416.793.357 1.745.971 1.883 1.844.357 2.418-.336 5.234-1.467 6.007-.257.178-.693.357-1.467-.1-1.288-.753-1.447-1.962-1.308-2.973 1.229 1.388 1.963 1.17 2.24 1.09.714-.218 1.09-.912 1.09-2.062 0-1.744-1.566-3.152-4.203-3.747-2.517-.555-5.53-.198-6.383 1.606-.754 1.606.436 4.064 1.962 5.81 2.855 3.25 6.84 4.46 10.627 3.23 7.672-2.497 18.933-18.278 19.607-22.263.476-2.915-1.586-23.712-9.833-32.97-2.795-3.133-5.987-4.64-9.556-4.461-11.776.595-18.24.258-20.44.1v-1.825c6.998-.476 23.156-1.05 27.32 1.11 5.333 2.756 16.197 16.634 17.129 24.941.257 2.32.317 6.78.396 11.935.258 19.39.833 34.397 5.353 36.44 3.569 1.605 6.245 1.902 7.97.872.773-.476 1.745-1.448 1.883-3.45.199-3.252-.198-4.778-1.348-5.115-1.09-.317-2.042.654-3.073 2.32-1.566-1.071-3.33-2.677-3.231-3.728.08-.793 1.407-1.348 2.18-1.606 4.739-1.625 8.05-.535 9.616.258 1.507.754 2.597 1.844 2.934 2.934.416 1.348-3.39 8.307-7.87 12.788-2.32 2.34-3.827 2.934-4.461 2.756zm-40.94-23.414a9.783 9.783 0 0 1-2.776-2.161c-1.546-1.745-1.843-3.272-1.665-3.668.178-.357 1.09-.694 2.379-.694.535 0 1.15.06 1.784.198.06 0 .12.02.159.04l-.08.159c-.733 1.387-1.407 4.143.199 6.126zm-4.243 27.973c-1.01.298-1.982.04-2.557-.674-.595-.773-.754-1.526-.456-2.26.614-1.427 2.855-2.557 5.73-2.855.059-.02.118-.02.198-.02.218 0 .456.04.713.1-.495 3.529-2.18 5.253-3.628 5.71zm37.768 1.329c3.271.733 4.44 3.786 4.778 5.154-1.646-.02-3.232-.04-4.778-.04v-5.114zm-3.133-.04c.397-.06.774-.099 1.15-.119v5.274c-6.066.02-9.456.178-11.4.376 2.241-2.18 5.75-4.778 10.25-5.53zm-12.906 6.166l-.02.02-.02.02c-.06-.08-.099-.14-.178-.238l.218.198zm34.675 49.663c.198.694.575 1.15 1.07 1.407 2.578 1.23 4.223.456 4.838-.575.575-.931.357-2.14-.496-2.775-.753-.575-1.467-2.756-.872-3.985.416-.872 1.408-1.11 2.954-.714 2.716.714 4.282 3.291 4.837 5.472.615 2.34.199 4.6-1.03 5.77-1.963 1.843-4.798 2.993-7.138 2.854-1.526-.06-2.756-.634-3.648-1.665-2.12-2.4-5.035-8.565-.674-22.918 4.144-13.62 5.076-21.75 2.776-24.148-.734-.753-1.745-.991-2.994-.654-6.185 1.606-13.818 13.104-11.697 25.714 1.705 9.972 6.661 50.257 8.505 65.483-3.152-8.882-11.3-25.277-28.568-26.526v-5.314c1.606.14 6.185.318 9.357-2.14 1.765-1.369 2.816-3.331 3.073-5.83.932-9.159.02-48.612 0-49.008v-.298l-.277-.119c-.139-.079-3.41-1.665-6.126.853-.516.456-.972.952-1.408 1.408-1.645 1.744-2.657 2.815-4.718 1.487-1.051-2.637-3.39-9.517-2.36-11.975l.159-.179c.1-.138.258-.337.456-.574.02-.02.06-.02.099-.04.159-.06.416-.12.773-.178 1.566-.278 5.294-.516 13.482-.516 2.2 0 4.52.02 6.899.06 6.959.099 14.334.297 20.163.475.138.02.257.02.396.02.178 0 .337.02.515.02 3.311.119 5.79.218 6.88.258-.773 2.914-4.203 15.682-6.701 20.023-2.657 4.6-10.15 23.573-8.525 28.827zm-99.643-12.094c-1.904-3.45-3.252-21.292-2.756-23.79.357-1.745-.773-4.7-2.676-4.7-.813 0-1.765.556-2.816 2.003-3.45 4.798-8.247 26.487-8.247 26.487h16.495zm-7.435-25.912c.218-.297.416-.555.635-.773.079-.1.178-.178.257-.258.08-.06.14-.119.179-.158.08-.06.158-.12.238-.159.06-.04.099-.06.138-.08.12-.059.199-.098.298-.118.099-.02.178-.04.258-.04.079 0 .158.02.238.04.079.02.158.06.218.099.079.04.138.08.218.159.079.059.158.138.238.238.118.158.237.336.356.535.1.198.179.396.258.614.198.635.278 1.309.179 1.824-.437 2.24.535 17.308 2.28 22.998h-13.8c1.052-4.6 4.977-20.975 7.812-24.92zm-77.24 13.799l-.04-.912-.753.535c-1.09.773-26.804 19.33-32.217 27.478-.436 1.25-.733 3.985 1.309 5.155.377.535.714 4.58-3.886 30.849a465.348 465.348 0 0 1-.654 3.727l-.456 2.537v.08c.396 2.954-.357 7.414-1.309 10.012-1.566 4.302-.277 14.413-.218 14.829l.12.833.673-.496c.08-.06 9.854-6.959 14.017-6.245 3.767.674 11.677-3.291 14.69-5.511 1.349-1.012 1.587-1.507 1.626-1.824.1-.893-1.387-2.657-5.095-6.78-2.18-2.459-5.194-5.81-5.273-6.662l-.278-2.756-.694 2.677c-1.447 5.471-3.33 10.23-4.084 10.408-.694-.04-2.32-.971-3.568-2.617-.813-1.05-1.725-2.716-1.349-4.6.932-5.035 3.668-17.208 4.957-20.261v.04c.297 4.916 2.2 7.692 3.846 8.168.833.257 1.645-.04 2.2-.793 1.686-2.28 4.382-20.5 3.331-22.403-.694-1.21-2.379-1.27-3.608-.932-1.15.297-2.518 1.09-2.518 2.32 0 1.526-.833 5.075-1.903 5.71a.574.574 0 0 1-.615 0c-.594-.318-1.13-3.39-.238-7.277.595-2.537 2.598-8.445 8.466-8.683 4.124-.159 6.027-.179 6.919-.159l-.178.357 1.01-.198c.08-.02.14-.06.219-.08l.099.02.02-.08a.509.509 0 0 0 .257-.455c-.02-.06-.04-.159-.079-.238 1.646-6.404 5.413-21.57 5.254-25.773zm-22.938 35.071c-.813 3.41-.694 7.593.714 8.367.535.297 1.09.277 1.586-.02 1.665-.972 2.398-5.135 2.398-6.562 0-.516.774-1.11 1.785-1.368.931-.238 2.101-.199 2.478.456.694 1.268-1.665 19.19-3.252 21.332-.317.436-.693.575-1.13.456-1.328-.397-2.874-3.093-3.132-7.296-.04-.575-.1-1.527-.793-1.566-1.011 0-2.538 5.353-3.806 10.745a267.244 267.244 0 0 0-2.34 10.904c-.317 1.765.218 3.688 1.546 5.413 1.25 1.625 3.093 2.914 4.283 2.993 1.705.06 3.588-5.65 4.778-9.873.852 1.309 2.557 3.252 4.897 5.868 2.022 2.26 4.778 5.353 4.837 5.988-.337 1.15-10.745 7.256-15.166 6.483-3.926-.654-11.717 4.361-14.077 5.967-.277-2.518-.971-10.17.258-13.54.972-2.677 1.784-7.217 1.368-10.409l.436-2.399c.218-1.21.436-2.458.674-3.727 5.353-30.73 4.084-31.483 3.47-31.84-1.943-1.11-.992-3.905-.992-3.905 4.719-7.098 26.606-23.256 31.107-26.527-.317 5.075-3.668 18.497-5.195 24.465-.892-.04-2.894-.04-7.355.138-6.562.258-8.743 6.701-9.377 9.457zm-12.59 6.126c.813-3.112-2.517-9.655-2.656-9.932l-.416-.813-.456.773c-1.309 2.3-32.356 56.146-31.979 72.621l.02.654.634-.198c.06-.02 7.197-2.3 14.215-5.194 14.473-5.988 14.374-8.783 14.334-9.695-.218-6.067.119-20.182 2.577-22.621.199-.198.397-.297.556-.317l.614.317.1-.674c.197-1.447.138-2.974-.2-4.54l-.059-.337-.337-.06c-1.784-.317-3.727-.198-5.61.338-4.144 1.13-3.53 10.19-3.073 16.792.158 2.399.317 4.48.139 5.253-.417 1.765-3.39 4.6-6.126 5.83-1.329.594-2.4.733-3.034.376-2.101-1.17-1.328-5.353-1.21-5.908 1.25-2.36 21.214-39.69 21.968-42.665zm-17.327 49.108c2.756-1.23 6.166-4.203 6.681-6.503.218-.931.08-2.973-.099-5.55-.377-5.552-1.011-14.85 2.36-15.782 1.625-.456 3.29-.575 4.837-.357.218 1.17.277 2.32.158 3.43-.376.06-.713.238-1.03.555-3.51 3.45-2.875 23.156-2.875 23.355.139 3.568-16.356 10.19-27.22 13.7.435-15.842 27.478-63.78 31.383-70.62 1.05 2.24 2.696 6.424 2.181 8.426-.595 2.3-14.592 28.807-21.927 42.487l-.04.118c-.06.238-1.21 5.472 1.685 7.078.912.516 2.28.397 3.906-.337zm160.904 14.255v15.8h15.801v-15.8H292.15zm13.818 13.818h-11.835v-11.836h11.835v11.836zm28.073 173.632v-117.05h-67.585v117.05h-15.127v1.983h95.738v-1.983H334.04zm-1.982 0h-63.62V346.477h63.62v115.067zm-12.59-135.666l-.852-5.67h-32.018l-13.957 17.327.456.615c1.11 1.507 14.076 1.923 28.648 1.923 9.516 0 19.686-.178 27.696-.377l2.121-.04-12.093-13.778zm-43.953 11.26l12.034-14.948h29.362l.694 4.56 9.655 11.023c-18.537.397-45.995.536-51.745-.634zm16.634-63.044v15.8h15.801v-15.8H292.15zm13.818 13.818h-11.835v-11.836h11.835v11.836zm-5.908-31.483c-14.095 0-25.555 11.48-25.555 25.555 0 14.096 11.46 25.555 25.555 25.555 14.077 0 25.556-11.459 25.556-25.555 0-14.076-11.48-25.555-25.556-25.555zm0 49.128c-13.005 0-23.572-10.567-23.572-23.573 0-12.986 10.567-23.572 23.572-23.572 12.986 0 23.573 10.586 23.573 23.572 0 13.006-10.587 23.573-23.573 23.573zm-7.91-15.662h15.801v-15.801H292.15v15.8zm1.983-13.819h11.835v11.836h-11.835v-11.836zm39.908 185.468v-117.05h-67.585v117.05h-15.127v1.983h95.738v-1.983H334.04zm-1.982 0h-63.62V346.477h63.62v115.067zm-30.313-121.47c9.516 0 19.686-.18 27.696-.378l2.121-.04-12.093-13.778-.853-5.67h-32.018l-13.957 17.327.456.615c1.11 1.507 14.076 1.923 28.648 1.923zm-14.196-17.884h29.362l.694 4.56 9.655 11.023c-18.537.397-45.995.536-51.745-.634l12.034-14.949zm12.51-65.76c-14.095 0-25.555 11.478-25.555 25.554 0 14.096 11.46 25.555 25.555 25.555 14.077 0 25.556-11.459 25.556-25.555 0-14.076-11.48-25.555-25.556-25.555zm0 49.127c-13.005 0-23.572-10.567-23.572-23.573 0-12.986 10.567-23.572 23.572-23.572 12.986 0 23.573 10.586 23.573 23.572 0 13.006-10.587 23.573-23.573 23.573zm-7.91-15.662h15.801v-15.801H292.15v15.8zm1.983-13.819h11.835v11.836h-11.835v-11.836zm152.676 278.648v-78.49h-70.182c-2.459-7.216-3.807-12.985-4.005-13.818V299.153h6.265v-13.739h-6.325c-.713-8.148-8.088-66.316-72.502-66.376v-.02h-.119v.02c-64.413.06-71.788 58.228-72.502 66.376h-6.324v13.74h6.265v163.262c-.198.833-1.546 6.602-4.005 13.819h-70.182v78.49h31.205v9.258h-8.188v14.016h252.935v-13.62h-10.607v-9.655h28.271zm-69.905-267.327v9.774h-22.958v-9.774h22.958zM336.4 337.972c-.536-3.173-.555-6.701.297-7.296 5.036-1.606 11.876-2.36 15.84-2.697a9.4 9.4 0 0 0 1.091 1.09l2.32 4.779-3.133 3.866c-1.744-2.776-3.053-4.045-4.262-4.144l-.159 1.983c.08 0 .952.258 3.093 3.806l-7.078 8.704.317.594c.179.318 1.21 2.181 2.677 3.708h-2.597v9.02h-4.64c-.277-2.696-1.07-11.32-1.07-22.422v-.991H336.4zm-6.741-37.352a29.937 29.937 0 0 0 1.527-2.676h6.621c1.368 3.608 7.99 20.658 13.283 28.172-3.866.357-9.456 1.09-13.996 2.379-.635-2.518-2.32-10.31-2.32-21.947v-.396l-5.115-5.532zm-77.26 51.745c1.467-1.527 2.498-3.39 2.676-3.708l.318-.594-7.078-8.704c2.18-3.628 3.053-3.806 3.093-3.806l-.159-1.983c-1.23.1-2.518 1.368-4.262 4.144l-3.133-3.866 2.32-4.778a9.39 9.39 0 0 0 1.09-1.09c3.906.337 10.646 1.09 15.662 2.636l.1.14h.198c.733.832.694 4.182.158 7.216h-2.696v.99c0 11.103-.773 19.727-1.05 22.424h-4.64v-9.021h-2.597zm-3.41.02l-7.098 1.645v-19.449l11.122 13.7c-.99 1.625-2.696 3.806-4.024 4.104zm13.7-23.89c-4.54-1.289-10.112-2.022-13.978-2.38 5.294-7.533 11.916-24.563 13.283-28.171h6.92c.436.852.931 1.685 1.427 2.478l-5.313 5.73v.396c0 11.618-1.705 19.43-2.34 21.947zm4.321-46.51c0-18.22 14.83-33.03 33.05-33.03s33.029 14.81 33.029 33.03-14.81 33.048-33.03 33.048-33.049-14.829-33.049-33.049zm79.778 66.296l11.32-13.938v19.727l-7.295-1.685c-1.329-.298-3.034-2.479-4.025-4.104zm8.406-20.52l-.198-.158c-.357-.258-.793-.694-1.289-1.289-5.69-6.8-14.195-29.48-14.274-29.699l-.238-.654h-7.038c1.864-4.282 2.914-9 2.914-13.977 0-19.31-15.701-35.012-35.012-35.012-19.31 0-35.031 15.702-35.031 35.012 0 4.976 1.07 9.695 2.934 13.977h-7.355l-.238.654c-.08.219-8.585 22.899-14.294 29.719-.476.575-.912 1.011-1.27 1.269l-.198.158-2.716 5.591v-34.199h6.146v-13.739h-6.086c.258-3.35 1.526-14.69 7.732-25.971 9.853-17.843 26.784-26.904 50.317-26.923 23.493.02 40.404 9.06 50.278 26.863 6.245 11.28 7.513 22.66 7.771 26.031h-6.086v13.74h6.146v34.595l-2.915-5.988zm-115.94-74.068c12.154-21.67 32.594-32.672 60.746-32.692 62.43.04 69.825 56.146 70.559 64.413h-10.527c-.555-7.316-6.245-54.798-59.973-54.877h-.119c-26.883.04-41.732 11.935-49.94 24.722-8.188 12.788-9.754 26.507-10.032 30.155h-10.547c.337-3.806 2.022-17.823 9.834-31.72zm-16.157 43.478v-9.774h22.958v9.774h-22.958zm-67.923 255.57v-74.524h67.506c-3.37 9.497-8.564 21.075-15.483 27.637l.158-1.11c.02-.159.476-3.747-2.32-6.067-2.933-2.418-8.187-2.379-15.622.14-18.537 6.264-22.502 40.304-22.66 41.752l-.12 1.09h24.921v11.083h-36.38zm50.536-45.598c-.496.416-1.011.793-1.527 1.15-.872.396-3.41 1.19-4.837.257-.813-.555-1.21-1.665-1.19-3.35.04-2.3 1.527-4.223 3.589-4.6.238-.04.475-.079.694-.079.495 0 .912.139 1.288.397.813.594 1.388 1.903 1.646 3.826l.337 2.399zm-19.925-4.282c-10.29 14.472.734 31.522 4.699 36.816h-21.61c.753-5.333 4.718-28.47 16.911-36.816zm241.376 63.5v9.656h-248.97v-10.052h7.198v.397h134.298v-1.983H186.38v-9.655h131.007v-1.982H212.47v-11.083h98.513v-1.982h-90.067v-8.248h88.025v-1.982h-79.58v-8.248h76.29v-1.982h-67.844v-10.29h65.762v-1.982H244.19v-10.052h54.005v-1.983h-47.344v-9.773h40.068v-1.983h-31.9v-10.428h28.688v-1.983h-30.67v12.41h-8.168v11.757h-6.661v12.035h-6.384v12.272h-8.446v10.23h-8.446v10.23h-8.445v13.065h-2.102v-14.87c0-4.639-3.786-8.425-8.426-8.425-4.62 0-8.366 3.747-8.406 8.366-1.744-2.399-4.42-6.523-6.205-11.46-3.707-10.21-2.042-18.853 4.936-25.733 4.66-1.566 7.871-1.903 10.052-1.685-2.419.932-4.124 3.39-4.163 6.225-.04 2.4.654 4.104 2.081 5.036 2.617 1.725 6.563-.02 6.88-.178.297-.199.595-.397.892-.615l.337 2.439.416-3.034c8.347-6.74 14.314-20.043 18.002-30.59h4.857v-1.983h-4.163c2.537-7.574 3.846-13.422 3.866-13.481l.02-163.6h10.547v165.542c0 19.41-13.779 36.955-19.707 43.597-4.778 5.353-11.34 8.604-17.208 8.485-2.994-.06-5.433-1.07-6.86-2.815-4.124-5.036.06-12.63.1-12.708l-1.726-.972c-.218.357-4.877 8.842.08 14.929 1.824 2.22 4.778 3.47 8.366 3.549h.357c6.304 0 13.323-3.47 18.378-9.14 6.067-6.82 20.202-24.822 20.202-44.925V354.348h11.122v9.02h8.406l.1-.872c0-.1 1.09-9.536 1.15-22.542h2.359l.158-.793c.377-1.883 1.388-7.85-.654-9.873.615-2.3 2.439-10.15 2.478-22.343l4.441-4.818c6.364 8.981 16.792 14.889 28.608 14.889 11.717 0 22.106-5.829 28.47-14.71l4.262 4.639c.04 12.212 1.864 20.083 2.459 22.343-2.042 2.042-1.011 7.99-.635 9.873l.159.793h2.34c.059 13.006 1.17 22.443 1.17 22.542l.118.872h8.386v-9.02h11.32v110.348c0 20.103 14.136 38.105 20.203 44.925 5.055 5.67 12.054 9.14 18.378 9.14h.357c3.569-.08 6.542-1.329 8.346-3.55 4.977-6.086.298-14.57.1-14.928l-1.725.972c.04.079 4.223 7.652.099 12.708-1.447 1.744-3.886 2.756-6.86 2.815-5.908.119-12.43-3.132-17.208-8.485-5.928-6.642-19.707-24.187-19.707-43.597V299.153h10.547v163.382l.02.219c.02.059 1.329 5.907 3.866 13.48h-4.163v1.983h4.857c3.668 10.488 9.615 23.732 18.002 30.551l.416 3.034.337-2.439c.357.258.694.516 1.05.754.16.06 4.105 1.804 6.722.079 1.427-.932 2.121-2.637 2.081-5.036-.04-2.835-1.744-5.313-4.163-6.225 2.18-.218 5.392.119 10.051 1.685 6.98 6.88 8.644 15.524 4.937 25.734-1.784 4.936-4.46 9.06-6.205 11.459-.04-4.62-3.787-8.366-8.406-8.366-4.64 0-8.426 3.786-8.426 8.425v3.212h-11.142v-11.637h-6.325v-10.23H365.9v-12.272h-7.87V496.06h-6.325v-12.906h-5.948v-12.41h-29.4v1.982h27.418v10.428h-21.273v1.983h27.22v10.923h-21.074v1.983h27.399v8.902h-19.152v1.982h27.023v10.29H342.07v1.982h30.095v8.248h-23.573v1.982h29.897v9.655h-22.8v1.983h35.925v9.675h-24.326v1.982h49.266v9.655h-39.056v1.983h49.663zm-233.624-13.62v-14.869c0-3.548 2.875-6.443 6.423-6.443 3.55 0 6.444 2.895 6.444 6.443v14.87h-12.867zm200.753-45.618l.337-2.379c.258-1.923.833-3.232 1.646-3.826.535-.377 1.17-.476 2.002-.318 2.042.377 3.53 2.3 3.569 4.6.02 1.685-.377 2.795-1.19 3.35-1.407.932-3.965.14-4.679-.158a24.94 24.94 0 0 1-1.685-1.269zm19.925-4.282c12.193 8.366 16.158 31.503 16.911 36.836h-21.61c3.965-5.294 14.988-22.344 4.699-36.836zm-7.752 35.031v14.87h-12.867v-14.87c0-3.548 2.895-6.443 6.444-6.443 3.548 0 6.423 2.895 6.423 6.443zm1.983 14.87v-11.083h24.92l-.119-1.09c-.158-1.448-4.123-35.488-22.66-41.753-7.435-2.518-12.689-2.557-15.642-.139-2.776 2.32-2.32 5.908-2.3 6.067l.158 1.05c-6.958-6.621-12.133-18.12-15.483-27.577h67.506v74.525h-36.38zm-61.38-91.198H334.04v-117.05h-67.585v117.05h-15.127v1.983h95.738v-1.983zm-15.008 0h-63.62V346.477h63.62v115.067zm-30.313-121.47c9.516 0 19.686-.18 27.696-.378l2.121-.04-12.093-13.778-.853-5.67h-32.018l-13.957 17.327.456.615c1.11 1.507 14.076 1.923 28.648 1.923zm-14.196-17.884h29.362l.694 4.56 9.655 11.023c-18.537.397-45.995.536-51.745-.634l12.034-14.949zm12.51-14.65c14.077 0 25.556-11.46 25.556-25.556 0-14.076-11.48-25.555-25.556-25.555-14.095 0-25.555 11.48-25.555 25.555 0 14.096 11.46 25.555 25.555 25.555zm0-49.128c12.986 0 23.573 10.586 23.573 23.572 0 13.006-10.587 23.573-23.573 23.573-13.005 0-23.572-10.567-23.572-23.573 0-12.986 10.567-23.572 23.572-23.572zm7.891 15.682H292.15v15.8h15.801v-15.8zm-1.983 13.818h-11.835v-11.836h11.835v11.836zm95.361 93.458v80.75h25.139v-80.75h-25.139zm23.156 78.767h-21.173v-76.785h21.173v76.785zm-30.412-176.27v29.858h39.651v-29.857h-39.65zm37.669 27.875h-35.686V285.85h35.686v25.892zm-37.669-27.874v29.857h39.651v-29.857h-39.65zm37.669 27.874h-35.686V285.85h35.686v25.892zM401.328 462.12h25.139v-80.75h-25.139v80.75zm1.983-78.767h21.173v76.785h-21.173v-76.785zm-20.896-116.871v203.568h64.393V266.481h-64.393zm62.41 201.586h-60.428V268.463h60.429v199.604zm-11.102-184.2h-39.65v29.858h39.65v-29.857zm-1.982 27.875h-35.686V285.85h35.686v25.892zM401.328 462.12h25.139v-80.75h-25.139v80.75zm1.983-78.767h21.173v76.785h-21.173v-76.785zm96.312 87.411c-.257.08-25.634 6.126-45.995 6.126h-.991v76.923l30.313-8.485 17.902-19.865v-54.977l-1.229.278zm-.753 53.925l-17.01 18.894-27.24 7.613v-72.323c17.822-.179 38.996-4.699 44.25-5.889v51.705zm-19.548-237.41c-5.472 0-9.754 8.881-9.754 20.241s4.282 20.242 9.754 20.242c5.472 0 9.754-8.881 9.754-20.242 0-11.36-4.282-20.241-9.754-20.241zm0 38.5c-3.747 0-7.772-7.335-7.772-18.259 0-10.923 4.025-18.259 7.772-18.259s7.772 7.336 7.772 18.26c0 10.923-4.025 18.259-7.772 18.259zm0-38.5c-5.472 0-9.754 8.881-9.754 20.241s4.282 20.242 9.754 20.242c5.472 0 9.754-8.881 9.754-20.242 0-11.36-4.282-20.241-9.754-20.241zm0 38.5c-3.747 0-7.772-7.335-7.772-18.259 0-10.923 4.025-18.259 7.772-18.259s7.772 7.336 7.772 18.26c0 10.923-4.025 18.259-7.772 18.259zm-25.793-57.176V470.11l1.05-.08a274.333 274.333 0 0 0 24.525-2.676 286.099 286.099 0 0 0 19.885-3.866l.773-.178V285.71l-46.233-17.109zm44.25 193.14a281.383 281.383 0 0 1-18.992 3.648 276.57 276.57 0 0 1-23.275 2.597v-196.53l42.268 15.642v174.643zm-18.457-133.98c5.472 0 9.754-8.882 9.754-20.243 0-11.36-4.282-20.241-9.754-20.241-5.472 0-9.754 8.881-9.754 20.241s4.282 20.242 9.754 20.242zm0-38.502c3.747 0 7.772 7.336 7.772 18.26 0 10.923-4.025 18.259-7.772 18.259s-7.772-7.336-7.772-18.26c0-10.923 4.025-18.259 7.772-18.259zm50.238-82.137h-5.353l-4.897-18.002-5.67 18.002h-42.744l32.99 75.159h87.292l-61.618-75.159zM519.17 196.16l2.994 10.964h-6.443l3.45-10.964zm-45.222 12.947h54.66l58.366 71.193h-81.8l-31.226-71.193zm114.572 63.66l-1.586 1.189 9.12 12.212h-94.191v13.284h1.982V288.15H600l-11.48-15.385zm-39.314 24.405c-8.743 0-15.86 9.437-15.86 21.034 0 11.598 7.117 21.035 15.86 21.035 8.743 0 15.86-9.437 15.86-21.035 0-11.597-7.117-21.034-15.86-21.034zm0 40.087c-7.653 0-13.878-8.545-13.878-19.053s6.225-19.052 13.878-19.052c7.653 0 13.878 8.545 13.878 19.052s-6.225 19.053-13.878 19.053zm-1.665 33.327c-8.743 0-15.86 7.117-15.86 15.88v63.62h32.295V387.02c0-9.06-7.375-16.435-16.435-16.435zm14.452 77.517h-28.33v-61.637c0-7.653 6.225-13.898 13.878-13.898 7.97 0 14.452 6.503 14.452 14.453v61.082zm-14.452-77.517c-8.743 0-15.86 7.117-15.86 15.88v63.62h32.295V387.02c0-9.06-7.375-16.435-16.435-16.435zm14.452 77.517h-28.33v-61.637c0-7.653 6.225-13.898 13.878-13.898 7.97 0 14.452 6.503 14.452 14.453v61.082zM549.207 339.24c8.743 0 15.86-9.437 15.86-21.035 0-11.597-7.117-21.034-15.86-21.034-8.743 0-15.86 9.437-15.86 21.034 0 11.598 7.117 21.035 15.86 21.035zm0-40.087c7.653 0 13.878 8.545 13.878 19.052s-6.225 19.053-13.878 19.053c-7.653 0-13.878-8.545-13.878-19.053s6.225-19.052 13.878-19.052zm-42.466-8.763v173.137h85.626V290.39h-85.626zm83.644 171.154h-81.662V292.373h81.662v169.171zm-26.408-74.524c0-9.06-7.375-16.435-16.435-16.435-8.743 0-15.86 7.117-15.86 15.88v63.62h32.295V387.02zm-1.983 61.082h-28.33v-61.637c0-7.653 6.225-13.898 13.878-13.898 7.97 0 14.452 6.503 14.452 14.453v61.082zM549.207 339.24c8.743 0 15.86-9.437 15.86-21.035 0-11.597-7.117-21.034-15.86-21.034-8.743 0-15.86 9.437-15.86 21.034 0 11.598 7.117 21.035 15.86 21.035zm0-40.087c7.653 0 13.878 8.545 13.878 19.052s-6.225 19.053-13.878 19.053c-7.653 0-13.878-8.545-13.878-19.053s6.225-19.052 13.878-19.052zm-42.466 168.914v57.99h20.777v-18.081c0-12.253 9.952-22.205 22.185-22.205h.337c11.875 0 21.55 9.675 21.55 21.55v18.735h20.777v-57.99h-85.626zm83.644 56.007h-16.812V507.32c0-12.985-10.568-23.533-23.533-23.533h-.337c-13.323 0-24.168 10.845-24.168 24.188v16.098h-16.812v-54.025h81.662v54.025zM173.513 381.37v80.75h25.159v-80.75h-25.159zm23.176 78.767h-21.193v-76.785h21.193v76.785zm-30.412-176.27v29.858h39.631v-29.857h-39.631zm37.648 27.875H168.26V285.85h35.666v25.892zm-37.648-27.874v29.857h39.631v-29.857h-39.631zm37.648 27.874H168.26V285.85h35.666v25.892zM173.513 462.12h25.159v-80.75h-25.159v80.75zm1.983-78.767h21.193v76.785h-21.193v-76.785zm-22.304-116.871v203.568h64.393V266.481h-64.393zm62.41 201.586h-60.428V268.463h60.429v199.604zm-9.694-184.2h-39.631v29.858h39.631v-29.857zm-1.983 27.875H168.26V285.85h35.666v25.892zM173.513 462.12h25.159v-80.75h-25.159v80.75zm1.983-78.767h21.193v76.785h-21.193v-76.785zm-29.124 93.537c-20.36 0-45.757-6.047-45.995-6.126l-1.23-.278v54.977l17.903 19.865 30.313 8.485V476.89h-.991zm-.991 74.306l-27.24-7.613-17.01-18.894v-51.705c5.253 1.19 26.427 5.71 44.25 5.889v72.323zm-24.703-263.917c-5.472 0-9.754 8.881-9.754 20.241s4.282 20.242 9.754 20.242c5.472 0 9.754-8.881 9.754-20.242 0-11.36-4.282-20.241-9.754-20.241zm0 38.5c-3.747 0-7.772-7.335-7.772-18.259 0-10.923 4.025-18.259 7.772-18.259s7.772 7.336 7.772 18.26c0 10.923-4.025 18.259-7.772 18.259zm0-38.5c-5.472 0-9.754 8.881-9.754 20.241s4.282 20.242 9.754 20.242c5.472 0 9.754-8.881 9.754-20.242 0-11.36-4.282-20.241-9.754-20.241zm0 38.5c-3.747 0-7.772-7.335-7.772-18.259 0-10.923 4.025-18.259 7.772-18.259s7.772 7.336 7.772 18.26c0 10.923-4.025 18.259-7.772 18.259zm-20.44-40.067V463.31l.773.178a283.86 283.86 0 0 0 19.885 3.866 274.337 274.337 0 0 0 24.524 2.676l1.051.08V268.602l-46.233 17.11zm44.25 182.276a277.961 277.961 0 0 1-23.294-2.597 283.198 283.198 0 0 1-18.974-3.648V287.1l42.269-15.642v196.53zm-23.81-140.226c5.472 0 9.754-8.881 9.754-20.242 0-11.36-4.282-20.241-9.754-20.241-5.472 0-9.754 8.881-9.754 20.241s4.282 20.242 9.754 20.242zm0-38.5c3.747 0 7.772 7.335 7.772 18.258 0 10.924-4.025 18.26-7.772 18.26s-7.772-7.336-7.772-18.26c0-10.923 4.025-18.259 7.772-18.259zM86.34 207.122l-5.65-18.002-4.917 18.002H70.44L8.822 282.282h87.292l32.97-75.159H86.34zM80.83 196.16l3.45 10.964h-6.444l2.994-10.964zm13.997 84.14h-81.8l58.346-71.193h54.679l-31.225 71.193zm-90.88 5.868l9.12-12.212-1.587-1.19L0 288.15h96.134v11.3h1.983v-13.283H3.945zm46.847 11.004c-8.743 0-15.88 9.437-15.88 21.034 0 11.598 7.137 21.035 15.88 21.035s15.86-9.437 15.86-21.035c0-11.597-7.117-21.034-15.86-21.034zm0 40.087c-7.653 0-13.898-8.545-13.898-19.053s6.245-19.052 13.898-19.052 13.878 8.545 13.878 19.052-6.225 19.053-13.878 19.053zm1.665 33.327c-9.06 0-16.435 7.375-16.435 16.435v63.065h32.296v-63.62c0-8.763-7.118-15.88-15.86-15.88zm13.878 77.517h-28.33V387.02c0-7.95 6.483-14.453 14.452-14.453 7.653 0 13.878 6.245 13.878 13.898v61.637zm-13.878-77.517c-9.06 0-16.435 7.375-16.435 16.435v63.065h32.296v-63.62c0-8.763-7.118-15.88-15.86-15.88zm13.878 77.517h-28.33V387.02c0-7.95 6.483-14.453 14.452-14.453 7.653 0 13.878 6.245 13.878 13.898v61.637zM50.793 339.24c8.743 0 15.86-9.437 15.86-21.035 0-11.597-7.117-21.034-15.86-21.034s-15.88 9.437-15.88 21.034c0 11.598 7.137 21.035 15.88 21.035zm0-40.087c7.653 0 13.878 8.545 13.878 19.052s-6.225 19.053-13.878 19.053-13.898-8.545-13.898-19.053 6.245-19.052 13.898-19.052zm-43.16-8.763v173.137h85.626V290.39H7.633zm83.644 171.154H9.615V292.373h81.662v169.171zm-38.819-90.96c-9.06 0-16.435 7.376-16.435 16.436v63.065h32.296v-63.62c0-8.763-7.118-15.88-15.86-15.88zm13.878 77.518h-28.33V387.02c0-7.95 6.483-14.453 14.452-14.453 7.653 0 13.878 6.245 13.878 13.898v61.637zM50.793 339.24c8.743 0 15.86-9.437 15.86-21.035 0-11.597-7.117-21.034-15.86-21.034s-15.88 9.437-15.88 21.034c0 11.598 7.137 21.035 15.88 21.035zm0-40.087c7.653 0 13.878 8.545 13.878 19.052s-6.225 19.053-13.878 19.053-13.898-8.545-13.898-19.053 6.245-19.052 13.898-19.052zM7.633 468.067v57.99H28.41V507.32c0-11.875 9.675-21.55 21.55-21.55h.318c12.252 0 22.204 9.952 22.204 22.205v18.08H93.26v-57.99H7.633zm83.644 56.007H74.465v-16.098c0-13.343-10.845-24.188-24.187-24.188h-.318c-12.966 0-23.533 10.548-23.533 23.533v16.753H9.615v-54.025h81.662v54.025z" fill="#232323"/></svg>